<?xml version="1.0" encoding="utf-8"?>
<!-- Generator: Adobe Illustrator 26.0.1, SVG Export Plug-In . SVG Version: 6.00 Build 0)  -->
<svg version="1.1" id="Layer_1" xmlns="http://www.w3.org/2000/svg" xmlns:xlink="http://www.w3.org/1999/xlink" x="0px" y="0px"
	 viewBox="0 0 110.8 45.2" style="enable-background:new 0 0 110.8 45.2;" xml:space="preserve">
<style type="text/css">
	.st0{fill:#FDCB0A;}
	.st1{fill:#F38222;}
	.st2{fill:#AE2B31;}
	.st3{fill:#3F3F3F;}
	.st4{fill:#282828;}
	.st5{fill:#FFFFFF;}
	.st6{fill-rule:evenodd;clip-rule:evenodd;fill:#FFCC29;}
	.st7{fill-rule:evenodd;clip-rule:evenodd;fill:#A02B2D;}
	.st8{fill-rule:evenodd;clip-rule:evenodd;fill:#F58634;}
	.st9{enable-background:new    ;}
	.st10{fill:#F9F4F6;}
	.st11{fill:#A02B2D;}
	.st12{fill:#FFCC29;}
</style>
<rect y="-0.5" width="110.8" height="45.7"/>
<polygon class="st0" points="533.9,-753.1 650.4,-753.3 839.1,-1002.3 721.3,-1001.5 "/>
<path class="st1" d="M937.6-871.2c-37.7,0.2-75.5,0.4-113.2,0.6c-10.2-13.7-20.4-27.5-30.6-41.2c18.9-25.3,37.9-50.5,56.8-75.8
	C879.7-948.7,908.7-910,937.6-871.2z"/>
<polygon class="st0" points="838.4,-492.1 720.6,-490.1 534.9,-738.9 651.2,-739.7 "/>
<polygon class="st1" points="851.1,-504.9 794.9,-580.3 824.5,-622.2 937.6,-621.2 "/>
<polygon class="st2" points="385.9,-753 504.1,-752.2 662.5,-965.5 544.7,-965.5 "/>
<polygon class="st2" points="663.4,-527 545.1,-526.3 386.7,-738.7 503.4,-739.2 "/>
<g>
	<path class="st3" d="M851.1-823.8h-33.3v86.5h-20.1v-86.5h-33.3v-17.8h86.8v17.8H851.1z"/>
	<path class="st3" d="M951.7-841.6v104.2h-20.1v-44.5h-47.3v44.5H864v-104.2h20.3v42.1h47.3v-42.1H951.7z"/>
	<path class="st3" d="M1045.8-755.1v17.8h-72.4v-104.2h71.1v17.8h-50.8v25.1h43.9v16.4h-43.9v27.2L1045.8-755.1L1045.8-755.1z"/>
	<path class="st3" d="M1216.1-764.2c0,4.4-0.9,8.3-2.6,11.6c-1.8,3.3-4.2,6.1-7.3,8.4c-3.1,2.3-6.7,4-10.7,5.1
		c-4.1,1.2-8.4,1.8-13,1.8h-50.4v-104.2h55.8c3.6,0,6.9,0.8,9.8,2.3c2.9,1.6,5.4,3.6,7.5,6.1s3.6,5.3,4.8,8.5
		c1.1,3.2,1.7,6.4,1.7,9.6c0,5.1-1.3,9.9-3.8,14.3c-2.5,4.5-6.3,7.8-11.2,9.9c6,1.8,10.7,4.9,14.2,9.5
		C1214.4-776.8,1216.1-771.1,1216.1-764.2z M1152.4-824.3v26.3h27c3.4,0,6.3-1.2,8.7-3.5c2.4-2.3,3.6-5.6,3.6-9.7
		c0-4-1.1-7.2-3.3-9.5c-2.2-2.3-4.9-3.5-8.1-3.5L1152.4-824.3L1152.4-824.3z M1195.7-768c0-1.9-0.3-3.6-1-5.4
		c-0.6-1.7-1.5-3.2-2.6-4.5s-2.3-2.3-3.8-3s-3.1-1.1-4.8-1.1h-31.1v27.5h30.1c1.9,0,3.6-0.3,5.2-1s3-1.6,4.2-2.9
		c1.2-1.2,2.1-2.7,2.8-4.3C1195.4-764.4,1195.7-766.2,1195.7-768z"/>
	<path class="st3" d="M1304.4-755.1v17.8H1232v-104.2h71.1v17.8h-50.8v25.1h43.9v16.4h-43.9v27.2L1304.4-755.1L1304.4-755.1z"/>
	<path class="st3" d="M1380.1-814.3c-0.7-0.7-1.9-1.6-3.7-2.8c-1.8-1.2-4-2.3-6.6-3.5c-2.6-1.1-5.4-2.1-8.4-2.9
		c-3-0.8-6.1-1.2-9.3-1.2c-5.6,0-9.7,1-12.5,3.1c-2.7,2.1-4.1,4.9-4.1,8.7c0,2.2,0.5,3.9,1.5,5.4c1,1.4,2.5,2.7,4.5,3.7
		c2,1.1,4.4,2.1,7.4,2.9c3,0.9,6.4,1.8,10.4,2.8c5.1,1.4,9.7,2.8,13.9,4.4c4.2,1.6,7.7,3.5,10.6,5.9c2.9,2.3,5.1,5.2,6.7,8.4
		c1.6,3.3,2.3,7.3,2.3,12.1c0,5.6-1.1,10.4-3.2,14.3c-2.1,4-4.9,7.2-8.5,9.6c-3.6,2.4-7.7,4.2-12.3,5.4c-4.7,1.1-9.5,1.7-14.6,1.7
		c-7.8,0-15.6-1.2-23.2-3.5s-14.5-5.7-20.6-10l9-17.5c0.9,0.9,2.5,2,4.8,3.5c2.3,1.4,5,2.8,8.1,4.3c3.1,1.4,6.6,2.6,10.4,3.6
		s7.7,1.5,11.7,1.5c11.2,0,16.7-3.6,16.7-10.7c0-2.3-0.6-4.2-1.9-5.7c-1.3-1.6-3.1-2.9-5.4-4.1c-2.3-1.2-5.2-2.3-8.5-3.2
		c-3.3-1-7-2.1-11.2-3.2c-5-1.4-9.3-2.9-13-4.5s-6.7-3.5-9.2-5.7c-2.4-2.2-4.3-4.7-5.5-7.6c-1.2-2.9-1.8-6.3-1.8-10.4
		c0-5.3,1-10,2.9-14.1c2-4.1,4.7-7.5,8.1-10.3c3.5-2.7,7.5-4.8,12.1-6.2s9.5-2.1,14.8-2.1c7.3,0,14.1,1.2,20.3,3.5
		c6.2,2.3,11.5,5,16.2,8.1L1380.1-814.3z"/>
	<path class="st3" d="M1485.3-823.8H1452v86.5h-20.1v-86.5h-33.3v-17.8h86.8L1485.3-823.8L1485.3-823.8z"/>
</g>
<rect x="765.6" y="-729.1" class="st0" width="372.9" height="89.7"/>
<g>
	<g>
		<path class="st2" d="M791.6-684.2c0-3.7,0.6-7.3,1.8-10.8c1.2-3.6,2.9-6.8,5.2-9.6s5.1-5.1,8.4-6.8c3.3-1.7,7.1-2.6,11.3-2.6
			c5,0,9.3,1.2,13,3.6c3.7,2.4,6.4,5.6,8.2,9.4l-8.1,6.2c-0.7-1.7-1.6-3.1-2.6-4.3s-2.1-2.1-3.3-2.7c-1.2-0.7-2.4-1.2-3.7-1.5
			s-2.5-0.5-3.8-0.5c-2.7,0-5,0.6-6.9,1.8c-2,1.2-3.6,2.7-4.9,4.6c-1.3,1.9-2.3,4-2.9,6.4c-0.7,2.4-1,4.8-1,7.1
			c0,2.6,0.4,5.2,1.1,7.6s1.9,4.6,3.3,6.4c1.4,1.9,3.1,3.3,5.1,4.5c2,1.1,4.1,1.7,6.5,1.7c1.2,0,2.5-0.2,3.8-0.5s2.6-0.9,3.8-1.6
			c1.2-0.7,2.3-1.7,3.3-2.8c1-1.2,1.8-2.5,2.5-4.2l8.7,5.5c-0.9,2.2-2.1,4.2-3.7,5.9c-1.6,1.7-3.4,3.2-5.4,4.3
			c-2,1.2-4.2,2.1-6.5,2.7c-2.3,0.6-4.5,0.9-6.7,0.9c-3.9,0-7.4-0.9-10.6-2.7c-3.2-1.8-6-4.1-8.3-7s-4.1-6.2-5.4-9.9
			C792.2-676.6,791.6-680.4,791.6-684.2z"/>
		<path class="st2" d="M870.4-663.7c2.5,0,4.6-0.6,6.3-1.7c1.7-1.1,3.1-2.6,4.1-4.4c1-1.8,1.8-3.9,2.2-6.2s0.7-4.7,0.7-7.2v-30.5
			h10.5v30.5c0,4.1-0.4,7.9-1.3,11.5c-0.9,3.6-2.3,6.7-4.2,9.4s-4.4,4.8-7.4,6.4c-3,1.6-6.6,2.4-10.8,2.4c-4.3,0-8-0.8-11.1-2.5
			c-3-1.7-5.5-3.8-7.4-6.6c-1.9-2.7-3.3-5.9-4.1-9.5s-1.3-7.3-1.3-11.2v-30.5h10.6v30.5c0,2.5,0.2,5,0.7,7.3
			c0.4,2.3,1.2,4.4,2.2,6.2s2.4,3.2,4.1,4.3S868-663.7,870.4-663.7z"/>
		<path class="st2" d="M937.3-698c-0.4-0.4-1-0.9-2-1.6c-0.9-0.7-2.1-1.3-3.4-2c-1.4-0.6-2.8-1.2-4.4-1.6c-1.6-0.4-3.2-0.7-4.8-0.7
			c-2.9,0-5.1,0.6-6.5,1.8s-2.1,2.8-2.1,5c0,1.2,0.3,2.3,0.8,3.1s1.3,1.5,2.3,2.1s2.3,1.2,3.9,1.7c1.6,0.5,3.4,1,5.4,1.6
			c2.7,0.8,5.1,1.6,7.2,2.5c2.2,0.9,4,2,5.5,3.4c1.5,1.3,2.7,3,3.5,4.8c0.8,1.9,1.2,4.2,1.2,7c0,3.2-0.5,5.9-1.6,8.2
			s-2.6,4.1-4.4,5.5c-1.9,1.4-4,2.4-6.4,3.1c-2.4,0.6-5,1-7.6,1c-4.1,0-8.1-0.7-12.1-2s-7.6-3.3-10.7-5.7l4.7-10
			c0.5,0.5,1.3,1.2,2.5,2s2.6,1.6,4.3,2.4c1.6,0.8,3.4,1.5,5.4,2.1s4,0.8,6.1,0.8c5.8,0,8.7-2,8.7-6.2c0-1.3-0.3-2.4-1-3.3
			c-0.7-0.9-1.6-1.7-2.8-2.4s-2.7-1.3-4.4-1.9c-1.7-0.6-3.7-1.2-5.8-1.9c-2.6-0.8-4.9-1.6-6.8-2.6c-1.9-0.9-3.5-2-4.8-3.3
			s-2.2-2.7-2.9-4.4c-0.6-1.7-1-3.6-1-5.9c0-3,0.5-5.7,1.5-8.1c1-2.4,2.4-4.3,4.3-5.9c1.8-1.6,3.9-2.8,6.3-3.6
			c2.4-0.8,5-1.2,7.7-1.2c3.8,0,7.4,0.7,10.6,2c3.2,1.3,6,2.9,8.4,4.7L937.3-698z"/>
		<path class="st2" d="M992.2-703.5h-17.4v49.6h-10.5v-49.6h-17.4v-10.2h45.3L992.2-703.5L992.2-703.5z"/>
		<path class="st2" d="M1019.6-653.4c-4,0-7.6-0.9-10.8-2.6c-3.2-1.7-6-4-8.4-6.8c-2.3-2.8-4.1-6.1-5.4-9.7
			c-1.3-3.7-1.9-7.4-1.9-11.2c0-4,0.7-7.8,2-11.5c1.4-3.7,3.2-6.9,5.6-9.7c2.4-2.8,5.2-5,8.5-6.7s6.8-2.5,10.6-2.5
			c3.9,0,7.5,0.9,10.8,2.7c3.2,1.8,6,4.1,8.3,7s4.1,6.1,5.4,9.8s1.9,7.4,1.9,11.1c0,4-0.7,7.8-2,11.4c-1.3,3.6-3.2,6.8-5.5,9.6
			s-5.2,5-8.4,6.7C1027-654.3,1023.4-653.4,1019.6-653.4z M1003.8-683.8c0,2.6,0.4,5.1,1.1,7.5c0.7,2.4,1.7,4.5,3.1,6.4s3,3.3,5,4.5
			c2,1.1,4.2,1.7,6.7,1.7c2.6,0,4.8-0.6,6.8-1.7c2-1.2,3.6-2.7,5-4.6c1.4-1.9,2.4-4.1,3.1-6.4c0.7-2.4,1-4.8,1-7.3
			c0-2.6-0.4-5.1-1.1-7.5s-1.8-4.5-3.1-6.4c-1.4-1.9-3-3.3-5-4.4c-2-1.1-4.2-1.6-6.6-1.6c-2.6,0-4.8,0.6-6.8,1.7
			c-2,1.2-3.7,2.7-5,4.5c-1.3,1.9-2.3,4-3,6.4C1004.1-688.7,1003.8-686.2,1003.8-683.8z"/>
		<path class="st2" d="M1098.6-653.8v-39.6l-14,29.5h-5.7l-14-29.5v39.6h-10.6v-59.8h11.3l16.1,34l16.2-34h11.3v59.8H1098.6z"/>
	</g>
</g>
<g>
	<g>
		<path class="st4" d="M986.6-575.5c0,1-0.1,1.4-0.4,1.4c-0.3,0-0.3-0.1-0.3-0.4c0.1-0.2,0.1-0.4,0.1-0.6c0-0.9-0.9-1.7-2.6-2.4
			c-2.8-1.1-6.5-1.6-11.1-1.6c-4.9,0-9.3,0.6-12.9,1.9c-1.2,0.4-2.2,0.8-3,1.1c-1.3,0.5-2.4,0.7-3.1,0.7c-1.2,0-1.8-0.5-1.8-1.4
			c0-1.7,1.4-3.2,4.2-4.5c3-1.3,7.1-2,12.1-2c7.7,0,13.1,1.1,16.3,3.4C985.8-578.7,986.6-577.3,986.6-575.5z M997.9-608.1
			c0,3.1-2.2,6.1-6.5,8.9c-1.7,1.1-3.6,2.1-5.7,2.9c-5,2-9.7,3-14.1,3c-1.7,0-3-0.1-3.9-0.3c-0.2,0.3-0.6,0.9-1.1,1.8
			c-0.5,0.9-0.9,1.6-1.1,1.9c-0.2,0.3-0.5,0.9-1,1.6c-0.4,0.7-0.8,1.3-1,1.6c-0.8,1.1-1.5,2-2.2,2.8c-1.1,1.2-2.6,1.8-4.5,1.8
			c-0.4,0-0.8-0.1-1.3-0.2c-0.5-0.2-0.8-0.3-0.8-0.5c-0.1-0.2-0.1-0.3-0.1-0.3s0.1,0,0.2,0.1c0.1,0.1,0.4,0.1,0.7,0.1
			c0.4,0,0.8,0,1.4-0.1c1.3-0.2,2.7-1.1,4.2-2.6c0.9-1,2.7-3.6,5.5-8c-2.7-0.6-4.3-1.7-4.8-3.4c-0.1-0.2,0-0.4,0-0.4
			c0.1,0,0.2,0.1,0.2,0.2c0.4,0.6,1.6,1,3.6,1c0.7,0,1.6,0,2.5-0.1h0.1c2-3,4-5.7,6-8s4.2-4.2,6.4-5.5c3.6-2.2,7.2-3.3,10.7-3.3
			c1.7,0,3,0.3,3.9,0.8C997-611.3,997.9-609.9,997.9-608.1z M993.9-607.9c0.4-0.7,0.5-1.4,0.5-2.1c0-1.6-1.7-2.4-5-2.4
			c-0.6,0-1.7,0.2-3.3,0.7s-3.2,1.1-4.8,2c-3.8,2.2-7.8,6.6-11.9,13.1c4.1-0.6,8.7-1.8,13.6-3.8
			C988.8-602.7,992.4-605.2,993.9-607.9z"/>
		<path class="st4" d="M998-586.3c1.7-1,2.5-2.1,2.5-3.1c0-1.1-0.6-1.6-1.7-1.6c-0.5,0-1.1,0.2-1.7,0.5c-1.3,0.7-2.6,1.8-3.9,3.5
			c-1.5,2-2.3,3.9-2.3,5.7c0,0.7,0.2,1.3,0.5,1.9c0.3,0.6,0.9,0.9,1.8,0.9c1.5,0,3.4-0.9,5.7-2.6c2.3-1.7,4.3-3.5,6-5.3
			c0.4-0.4,0.6-0.4,0.6-0.1c0,0.2-0.1,0.5-0.3,0.6c-1.2,1.2-2,2-2.4,2.4s-1.2,1.1-2.4,2.2c-1.2,1-2.1,1.8-2.9,2.2
			c-2.3,1.3-4.2,2-5.8,2s-2.8-0.4-3.8-1.2c-0.9-0.8-1.4-1.9-1.4-3.3c0-3,1.2-5.6,3.7-7.7c2.4-2.2,5-3.3,7.6-3.3c1.8,0,3,0.4,3.6,1.3
			c0.3,0.4,0.4,0.9,0.4,1.3c0,0.5-0.1,1-0.4,1.6c-0.6,1.1-1.7,2.1-3.2,2.9c-1.6,0.8-3.1,1.2-4.5,1.2c-0.5,0-0.8-0.1-0.9-0.2
			c0-0.1,0-0.2,0.1-0.2c0.1-0.1,0.3-0.1,0.5-0.1C994.8-584.8,996.3-585.3,998-586.3z"/>
		<path class="st4" d="M1011.9-596.2c0.7-1.2,1.3-2.1,1.7-2.8s0.8-1.2,1-1.5c0.3-0.3,0.8-0.6,1.7-0.8s1.8-0.3,2.6-0.3
			s1.3,0.1,1.3,0.3s-0.7,1-2.1,2.5c-1.4,1.4-3,3.4-4.8,5.8c2.2,0.4,3.6,1.1,4.3,2.3c0.3,0.5,0.3,0.8,0.1,1c-0.2,0.1-0.4,0.1-0.6-0.2
			c-0.7-0.7-1.7-1.1-3.2-1.1c-0.6,0-1.4,0.1-2.2,0.2c-2.6,3.7-4.2,6.7-4.9,9c-0.2,0.7-0.3,1.2-0.3,1.7c0,1.2,0.5,1.9,1.4,1.9
			c1,0,2.4-0.8,4.2-2.3c2.3-1.9,4.4-3.9,6.1-5.8c0.3-0.4,0.5-0.5,0.6-0.3s0,0.4-0.2,0.7c-2.8,3.2-5.1,5.5-6.9,7s-3.6,2.2-5.2,2.2
			c-2.1,0-3.2-1.3-3.2-3.8c0-1.2,0.3-2.6,0.9-4.3l-0.9,0.9c-0.3,0.3-0.4,0.4-0.6,0.2c-0.1-0.1-0.2-0.2-0.2-0.3s0.1-0.3,0.4-0.5
			c2.3-2.3,3.9-4,4.8-5.1c-0.6,0.2-1,0.3-1.2,0.1s-0.4-0.5-0.4-0.8c-0.1-0.4,0.1-0.8,0.5-1.3s1-0.9,1.8-1.1c0.8-0.2,1.4-0.4,1.8-0.4
			C1010.6-594,1011.2-595,1011.9-596.2z"/>
		<path class="st4" d="M1022.3-600.5c0.8,0,1.4,0.2,1.6,0.7c0.3,0.5,0.4,1,0.4,1.6s-0.2,1.4-0.7,2.6c-0.4,1.2-1.3,2.4-2.6,3.6
			c-1.4,1.3-2.8,2-4.1,2c-0.1,0-0.2-0.1-0.2-0.2s0.1-0.2,0.2-0.2c1.4-0.1,2.6-0.9,3.8-2.2s1.8-2.8,2-4.3c-0.7,1-1.6,1.5-2.7,1.5
			c-0.4,0-0.7-0.1-0.9-0.4c-0.2-0.2-0.4-0.5-0.4-0.8c0-1,0.4-1.8,1.1-2.6C1020.7-600,1021.5-600.5,1022.3-600.5z"/>
		<path class="st4" d="M1021-580.9c0,0,0-0.1,0-0.2s0.1-0.1,0.2-0.1s0.2,0.1,0.2,0.2c0.6,1.4,1.5,2.1,2.8,2.1c1.6,0,3.1-0.9,4.3-2.6
			c0.9-1.3,1.7-2.7,2.4-4.1s1.3-2.6,1.7-3.4c0.5-0.8,1.2-1.8,2.2-2.9c1-1.1,1.9-1.7,2.7-2c-0.2-0.1-0.5-0.2-1-0.2s-1.3,0.4-2.5,1.1
			s-2.5,1.6-3.7,2.8c-1.2,1.1-2.5,2.4-3.9,3.8s-2.3,2.2-2.5,2.5c-0.3,0.2-0.5,0.2-0.5,0c-0.1-0.2,0-0.5,0.2-0.7c0.8-0.8,2-2,3.6-3.6
			s2.8-2.8,3.6-3.6c0.8-0.8,1.7-1.4,2.8-2c1-0.5,1.8-0.8,2.3-0.8c1.3,0,2.1,0.2,2.4,0.7c-0.8,0.4-1.5,1.4-2,3.1
			c-0.5,1.7-1.1,3.6-1.8,5.8c-0.7,2.2-1.5,3.9-2.5,5.1c0.8-0.4,2.1-1.2,3.9-2.5c1.7-1.3,3.3-2.7,4.6-4.2c0.3-0.3,0.5-0.3,0.6-0.1
			c0,0.1,0,0.2,0,0.2c0,0.1-0.3,0.5-0.9,1.1c-0.6,0.7-1.4,1.4-2.2,2.2c-0.9,0.8-2,1.8-3.3,2.8c-2.7,2.1-5.5,3.2-8.2,3.2
			C1023.5-577.1,1021.8-578.4,1021-580.9z"/>
		<path class="st4" d="M1082.4-607.8c0.3,0,0.4,0.1,0.4,0.3s-0.2,0.6-0.5,1.2c-2.6,3.8-5.4,8.2-8.3,13.2c1.5,0.1,3,0.3,4.5,0.6
			c4.8,1.1,7.2,2.8,7.2,5.1c0,0.1,0,0.2-0.1,0.2s-0.1-0.1-0.2-0.3c-0.3-0.9-2.1-1.5-5.3-1.8c-1-0.1-2.1-0.2-3.5-0.2s-3,0.1-5,0.3
			c-4.7,8.3-7.9,14.5-9.5,18.6c-0.2,0.4-0.3,0.6-0.5,0.6s-0.2-0.2-0.2-0.5c0-1.8,2.9-7.9,8.8-18.5c-1.9,0.3-3.2,0.5-4.1,0.7
			c-5.6,1.1-9.4,2.8-11.2,5.1c-0.5,0.7-0.8,1.4-0.8,2.1s0.3,1.2,1,1.8c0.2,0.1,0.2,0.2-0.1,0.2l-0.4-0.2c-1.4-1.2-2.1-2.5-2.1-4.1
			c0-1.5,0.7-3,2-4.4c1.9-2.1,5.2-3.6,9.9-4.5c2.8-0.5,5.4-0.8,7.8-0.8c0.1,0,0.3,0,0.4,0c5.6-9.7,8.7-14.5,9.3-14.5L1082.4-607.8z
			 M1101.6-612.7c0.3,0,0.5,0.1,0.5,0.3s-0.2,0.6-0.5,1.2c-3.4,4.9-7.1,10.9-11,17.9s-6.6,12.5-8.2,16.4c-0.3,0.6-0.5,0.7-0.6,0.4
			c0-0.1,0-0.3,0-0.6c0-1.4,1.7-5.4,5.2-11.8c3.5-6.5,6.6-12,9.5-16.7s4.4-7,4.8-7L1101.6-612.7z"/>
		<path class="st4" d="M1108.1-586.2c-0.4,0.5-0.7,1-1.1,1.5s-0.8,1.3-1.4,2.2s-0.8,1.7-0.8,2.3s0.2,1,0.7,1s1.3-0.3,2.4-1
			c2.2-1.4,4.7-3.5,7.5-6.3c0.3-0.4,0.5-0.4,0.6-0.2c0,0,0,0.1,0,0.2s-0.1,0.2-0.2,0.4c-5.5,5.7-9.5,8.6-12,8.6
			c-0.7,0-1.4-0.3-1.9-0.8s-0.7-1.2-0.7-1.9s0.3-1.9,0.9-3.4c-1.4,2-3,3.5-4.6,4.6s-2.9,1.6-3.9,1.6s-1.7-0.3-2.4-0.9
			c-0.7-0.6-1-1.4-1-2.3c0-2.6,1.1-5.2,3.2-7.7c1.6-1.9,3.6-3.2,6-4c1.1-0.4,2.1-0.6,3.1-0.6s2,0.3,2.9,0.9c0.9,0.6,1.5,1.3,1.8,2.2
			c1,0,1.7,0.4,2.1,1.2c0.1,0.1,0.1,0.3,0.1,0.5s-0.1,0.5-0.4,0.8C1108.7-587,1108.4-586.6,1108.1-586.2z M1104.6-591.4
			c-0.7,0-1.5,0.2-2.4,0.7c-1.6,0.8-3.2,2.1-4.7,4c-2.3,3-3.5,5.3-3.5,6.7c0,0.7,0.3,1.1,0.8,1.1c0.4,0,1.2-0.3,2.2-1
			c1-0.6,2.4-1.9,4.1-3.8c0.1-0.1,0.5-0.5,1.1-1.2s1.2-1.3,1.6-1.7c1.5-1.7,2.3-3,2.3-3.7C1106.2-591,1105.6-591.4,1104.6-591.4z"/>
		<path class="st4" d="M1131.9-593.7c0,0.1,0,0.1,0,0.2c0,0.1-0.1,0.1-0.2,0.1s-0.2-0.1-0.2-0.2c-0.2-0.5-0.5-0.8-0.9-0.8
			c-1.2,0-3.2,2.6-6.2,7.8c-1.9,3.3-3.4,5.7-4.7,7c-0.6,0.7-1.4,1.2-2.3,1.5s-1.5,0.4-1.9,0.4s-0.7-0.1-0.9-0.2
			c0.5-0.8,1.1-2.1,1.6-3.9s1-3.4,1.3-4.8c0.3-1.4,0.4-2.1,0.4-2.1l-2,2.2c-1,1.2-2.1,2.2-3.1,3.1c-0.4,0.4-0.6,0.3-0.6-0.1
			c0-0.2,0.1-0.4,0.3-0.6c0.2-0.2,0.5-0.5,0.9-0.9s0.7-0.7,0.9-0.9c0.1-0.1,0.4-0.4,0.8-0.8c0.4-0.4,0.7-0.7,0.9-1
			c0.9-1.2,1.6-2.2,2-3c0.2-0.4,0.2-0.8,0.2-1.2s-0.1-0.7-0.2-0.8s-0.2-0.3-0.2-0.5c0-0.4,0.3-0.5,0.8-0.3c1.1,0.6,1.7,1.4,1.8,2.4
			c0.1,0.5,0.1,1.3,0.1,2.2s-0.2,2.4-0.5,4.4s-0.9,3.8-1.8,5.3c1.4-1,3.1-3.6,5-7.6c1.9-4.1,3.3-6.7,4.4-7.8c0.4-0.5,1-0.7,1.7-0.7
			C1130.8-595.3,1131.6-594.8,1131.9-593.7z"/>
		<path class="st4" d="M1139.5-586.3c1.7-1,2.5-2.1,2.5-3.1c0-1.1-0.6-1.6-1.7-1.6c-0.5,0-1.1,0.2-1.7,0.5c-1.3,0.7-2.6,1.8-3.9,3.5
			c-1.5,2-2.3,3.9-2.3,5.7c0,0.7,0.2,1.3,0.5,1.9c0.3,0.6,0.9,0.9,1.8,0.9c1.5,0,3.4-0.9,5.7-2.6c2.3-1.7,4.3-3.5,6-5.3
			c0.4-0.4,0.6-0.4,0.6-0.1c0,0.2-0.1,0.5-0.3,0.6c-1.2,1.2-2,2-2.4,2.4s-1.2,1.1-2.4,2.2c-1.2,1-2.1,1.8-2.9,2.2
			c-2.3,1.3-4.2,2-5.8,2s-2.8-0.4-3.8-1.2c-0.9-0.8-1.4-1.9-1.4-3.3c0-3,1.2-5.6,3.7-7.7c2.4-2.2,5-3.3,7.6-3.3c1.8,0,3,0.4,3.6,1.3
			c0.3,0.4,0.4,0.9,0.4,1.3c0,0.5-0.1,1-0.4,1.6c-0.6,1.1-1.7,2.1-3.2,2.9c-1.6,0.8-3.1,1.2-4.5,1.2c-0.5,0-0.8-0.1-0.9-0.2
			c0-0.1,0-0.2,0.1-0.2c0.1-0.1,0.3-0.1,0.5-0.1C1136.3-584.8,1137.8-585.3,1139.5-586.3z"/>
		<path class="st4" d="M1199-604.8c0-1.7-1.8-2.8-5.3-3.4c-2.1-0.4-4.4-0.5-7-0.5s-5.6,0.2-8.7,0.5c-7.9,0.9-13.7,2.2-17.3,3.8
			c-2.9,1.3-3.7,2.7-2.3,4.2c0.2,0.2,0.1,0.3-0.1,0.3s-0.4-0.1-0.6-0.3c-0.5-0.6-0.8-1.3-0.8-2.1s0.2-1.6,0.5-2.3s0.9-1.5,1.7-2.2
			c0.8-0.8,1.8-1.4,2.9-1.9c3.4-1.5,7.4-2.5,12-3.2c2.7-0.4,5-0.5,7-0.5c5.8,0,10.6,0.8,14.4,2.4c2.5,1.1,4.1,2.3,4.7,3.5
			c0.4,0.6,0.5,1.3,0.5,1.9s-0.2,1.3-0.5,2c-0.4,0.6-0.9,1-1.3,1.1c-0.5,0.1-0.7,0-0.7-0.3c0.1-0.3,0.3-0.8,0.6-1.3
			C1198.8-603.8,1199-604.3,1199-604.8z M1170.7-580.7c-0.2,1.6-0.3,2.7-0.3,3.3c0,2,0.6,3.1,1.7,3.4c0.2,0.1,0.3,0.1,0.5,0.1
			l1.3-0.6c0.3-0.2,0.4-0.3,0.4-0.1s-0.1,0.3-0.3,0.5c-0.5,0.5-1.2,0.7-2,0.7c-0.2,0-0.3,0-0.5,0c-2.9-0.2-4.3-2-4.3-5.4
			c0-1.8,0.4-3.9,1.1-6.2s1.8-4.7,3.3-7.1c1.4-2.4,4.6-7.4,9.4-14.8c0.4-0.6,0.7-0.8,0.9-0.8c0.2,0,0.4,0.1,0.5,0.2
			c0.1,0.1,0.1,0.2,0.1,0.3s0,0.2,0,0.3C1175.6-595.9,1171.7-587.1,1170.7-580.7z"/>
		<path class="st4" d="M1191.7-590.9c0-0.5-0.3-0.7-0.9-0.7c-1.1,0-2.4,0.8-4,2.5c-0.4,0.4-1.1,1.3-2.1,2.6s-2,2.9-3,4.6l-1.2,2.9
			l0.1-0.5c-0.1,0.1-0.1,0.4-0.2,0.6c-0.2,0.4-0.6,0.8-1.4,1.1c-0.2,0.1-0.3,0.1-0.4,0.1c-0.3,0-0.4-0.3-0.1-0.8
			c0.1-0.4,0.6-1.6,1.3-3.8c0.8-2.2,1.4-3.9,1.9-5.2c-1.3,1.5-2.4,2.8-3.5,3.7c-0.3,0.3-0.5,0.3-0.7,0.1c0,0,0-0.1,0-0.2
			c0-0.1,0.1-0.3,0.4-0.6c2-1.9,3.5-3.6,4.6-5.2c0.8-2.2,2.4-5.1,4.6-9c2.2-3.8,4.5-7,6.9-9.5c1.6-1.7,3.3-2.9,5.1-3.5
			c0.8-0.3,1.6-0.4,2.3-0.4c0.7,0,1.4,0.2,2,0.7s0.9,1.3,0.9,2.5c0,1.6-0.5,3.2-1.4,4.8s-2.7,3.4-5.1,5.4s-4.7,3.5-6.8,4.5
			c-0.4,0.2-0.6,0.2-0.7-0.1s0.1-0.4,0.5-0.6c1.9-0.9,4-2.4,6.3-4.3c2.3-2,3.9-3.7,4.7-5.1c0.8-1.4,1.2-2.5,1.2-3.4s-0.3-1.3-1-1.3
			c-0.8,0-2,0.7-3.7,2.1c-2.5,2.2-5.1,5.2-7.8,9.2c-2.7,3.9-5,7.9-7,11.8c0.9-1.4,1.7-2.6,2.5-3.5c1.8-2.2,3.5-3.3,5.2-3.3
			c1.6,0,2.5,0.8,2.8,2.3c0,0.2,0,0.5,0,0.9s-0.1,1-0.4,1.7s-0.9,2.2-2,4.2s-1.7,3.3-1.7,3.7s0.1,0.6,0.4,0.6c0.4,0,0.9-0.2,1.6-0.7
			c1.8-1.2,4.1-3.3,7-6.2c0.4-0.4,0.6-0.5,0.6-0.2s-0.1,0.5-0.3,0.8c-2.4,2.7-4.8,4.9-7.4,6.7c-1.2,0.8-2.3,1.3-3.2,1.3
			c-0.3,0-0.5,0-0.7-0.1c-1.3-0.3-1.9-1-1.9-2.3s0.4-2.7,1.3-4.2c0.2-0.2,0.8-1.1,1.8-2.5C1190.9-588.8,1191.7-590.2,1191.7-590.9z"
			/>
		<path class="st4" d="M1208.9-586.3c1.7-1,2.5-2.1,2.5-3.1c0-1.1-0.6-1.6-1.7-1.6c-0.5,0-1.1,0.2-1.7,0.5c-1.3,0.7-2.6,1.8-3.9,3.5
			c-1.5,2-2.3,3.9-2.3,5.7c0,0.7,0.2,1.3,0.5,1.9c0.3,0.6,0.9,0.9,1.8,0.9c1.5,0,3.4-0.9,5.7-2.6c2.3-1.7,4.3-3.5,6-5.3
			c0.4-0.4,0.6-0.4,0.6-0.1c0,0.2-0.1,0.5-0.3,0.6c-1.2,1.2-2,2-2.4,2.4s-1.2,1.1-2.4,2.2c-1.2,1-2.1,1.8-2.9,2.2
			c-2.3,1.3-4.2,2-5.8,2s-2.8-0.4-3.8-1.2c-0.9-0.8-1.4-1.9-1.4-3.3c0-3,1.2-5.6,3.7-7.7c2.4-2.2,5-3.3,7.6-3.3c1.8,0,3,0.4,3.6,1.3
			c0.3,0.4,0.4,0.9,0.4,1.3c0,0.5-0.1,1-0.4,1.6c-0.6,1.1-1.7,2.1-3.2,2.9c-1.6,0.8-3.1,1.2-4.5,1.2c-0.5,0-0.8-0.1-0.9-0.2
			c0-0.1,0-0.2,0.1-0.2c0.1-0.1,0.3-0.1,0.5-0.1C1205.7-584.8,1207.2-585.3,1208.9-586.3z"/>
		<path class="st4" d="M1244.6-596.2c1.2-0.1,2.4-0.2,3.8-0.2s2.8,0.2,4.4,0.6s2.9,1.1,3.8,2.2c1,1.1,1.5,2.4,1.5,3.8
			s-0.4,2.8-1.1,4.3c-0.7,1.4-1.8,2.8-3.2,4.3c-4.2,4.2-9.6,6.3-16.2,6.3c-1.8,0-3.3-0.2-4.7-0.6c-1.4-0.4-2.3-0.8-2.7-1.1
			c-0.4-0.3-0.9-0.7-1.5-1.2s-0.7-0.8-0.4-0.8c0.2,0,0.6,0.2,1.4,0.5s2.3,0.5,4.4,0.5s4.5-0.3,7-0.8s4.6-1.4,6.3-2.5
			c1.8-1.1,3.2-2.3,4.2-3.7c1.3-1.7,1.9-3.3,1.9-5c0-0.9-0.2-1.9-0.7-2.8s-1.3-1.7-2.7-2.2c-1.3-0.5-2.5-0.8-3.6-0.8
			s-2.3,0.1-3.6,0.2c-1.4,0.1-3.1,0.6-5.2,1.4c-2.1,0.8-3.5,1.8-4.2,2.9c-0.7,1.1-1.3,2.2-1.8,3.1c-0.5,1-1,2-1.5,3.1
			s-0.9,1.9-1.2,2.5c-0.2,0.5-0.4,0.7-0.7,0.7s-0.4-0.1-0.4-0.4c0-1.2,1.2-3.9,3.7-8.1c2.5-4.2,4.9-8,7.1-11.2
			c2.3-3.3,3.6-4.9,4-4.9c0.2,0,0.4,0.1,0.5,0.3s0.2,0.4,0.1,0.6c-4,5.5-6.4,8.9-7.2,10c11.7-2.2,18.9-5.2,21.4-9.3
			c0.4-0.7,0.6-1.3,0.6-1.9s-0.3-1.2-0.8-1.7c-1-1-2.9-1.5-5.7-1.5s-6.5,0.7-11.1,2.1c-4.6,1.4-7.8,3-9.5,4.7
			c-0.5,0.5-0.7,0.8-0.6,1.1c0.2,0.3,0.2,0.5,0.1,0.5s-0.2,0-0.4-0.2c-0.7-0.4-1.1-1-1.3-1.6s-0.3-1.1-0.3-1.4
			c0-0.3,0.1-0.5,0.2-0.7c1.4-2.2,4.6-4.1,9.6-5.8s8.9-2.6,11.5-2.6c5.3,0,8.7,1,10.1,3c0.5,0.8,0.8,1.6,0.8,2.5
			c0,1.4-0.7,2.8-2.1,4.3C1255.4-600.2,1250.7-597.8,1244.6-596.2z"/>
		<path class="st4" d="M1269.1-586.3c1.7-1,2.5-2.1,2.5-3.1c0-1.1-0.6-1.6-1.7-1.6c-0.5,0-1.1,0.2-1.7,0.5c-1.3,0.7-2.6,1.8-3.9,3.5
			c-1.5,2-2.3,3.9-2.3,5.7c0,0.7,0.2,1.3,0.5,1.9c0.3,0.6,0.9,0.9,1.8,0.9c1.5,0,3.4-0.9,5.7-2.6c2.3-1.7,4.3-3.5,6-5.3
			c0.4-0.4,0.6-0.4,0.6-0.1c0,0.2-0.1,0.5-0.3,0.6c-1.2,1.2-2,2-2.4,2.4s-1.2,1.1-2.4,2.2c-1.2,1-2.1,1.8-2.9,2.2
			c-2.3,1.3-4.2,2-5.8,2s-2.8-0.4-3.8-1.2c-0.9-0.8-1.4-1.9-1.4-3.3c0-3,1.2-5.6,3.7-7.7c2.4-2.2,5-3.3,7.6-3.3c1.8,0,3,0.4,3.6,1.3
			c0.3,0.4,0.4,0.9,0.4,1.3c0,0.5-0.1,1-0.4,1.6c-0.6,1.1-1.7,2.1-3.2,2.9c-1.6,0.8-3.1,1.2-4.5,1.2c-0.5,0-0.8-0.1-0.9-0.2
			c0-0.1,0-0.2,0.1-0.2c0.1-0.1,0.3-0.1,0.5-0.1C1265.9-584.8,1267.4-585.3,1269.1-586.3z"/>
		<path class="st4" d="M1271.6-580.9c0,0,0-0.1,0-0.2s0.1-0.1,0.2-0.1s0.2,0.1,0.2,0.2c0.6,1.4,1.5,2.1,2.8,2.1
			c1.6,0,3.1-0.9,4.3-2.6c0.9-1.3,1.7-2.7,2.4-4.1s1.3-2.6,1.7-3.4c0.5-0.8,1.2-1.8,2.2-2.9c1-1.1,1.9-1.7,2.7-2
			c-0.2-0.1-0.5-0.2-1-0.2s-1.3,0.4-2.5,1.1s-2.5,1.6-3.7,2.8c-1.2,1.1-2.5,2.4-3.9,3.8s-2.3,2.2-2.5,2.5c-0.3,0.2-0.5,0.2-0.5,0
			c-0.1-0.2,0-0.5,0.2-0.7c0.8-0.8,2-2,3.6-3.6s2.8-2.8,3.6-3.6c0.8-0.8,1.7-1.4,2.8-2c1-0.5,1.8-0.8,2.3-0.8c1.3,0,2.1,0.2,2.4,0.7
			c-0.8,0.4-1.5,1.4-2,3.1c-0.5,1.7-1.1,3.6-1.8,5.8c-0.7,2.2-1.5,3.9-2.5,5.1c0.8-0.4,2.1-1.2,3.9-2.5c1.7-1.3,3.3-2.7,4.6-4.2
			c0.3-0.3,0.5-0.3,0.6-0.1c0,0.1,0,0.2,0,0.2c0,0.1-0.3,0.5-0.9,1.1c-0.6,0.7-1.4,1.4-2.2,2.2c-0.9,0.8-2,1.8-3.3,2.8
			c-2.7,2.1-5.5,3.2-8.2,3.2C1274.1-577.1,1272.4-578.4,1271.6-580.9z"/>
		<path class="st4" d="M1297.8-596.2c0.7-1.2,1.3-2.1,1.7-2.8s0.8-1.2,1-1.5c0.3-0.3,0.8-0.6,1.7-0.8c0.9-0.2,1.8-0.3,2.6-0.3
			s1.3,0.1,1.3,0.3s-0.7,1-2.1,2.5c-1.4,1.4-3,3.4-4.8,5.8c2.2,0.4,3.6,1.1,4.3,2.3c0.3,0.5,0.3,0.8,0.1,1c-0.2,0.1-0.4,0.1-0.6-0.2
			c-0.7-0.7-1.7-1.1-3.2-1.1c-0.6,0-1.4,0.1-2.2,0.2c-2.6,3.7-4.2,6.7-4.9,9c-0.2,0.7-0.3,1.2-0.3,1.7c0,1.2,0.5,1.9,1.4,1.9
			c1,0,2.4-0.8,4.2-2.3c2.3-1.9,4.4-3.9,6.1-5.8c0.3-0.4,0.5-0.5,0.6-0.3s0,0.4-0.2,0.7c-2.8,3.2-5.1,5.5-6.9,7s-3.6,2.2-5.2,2.2
			c-2.1,0-3.2-1.3-3.2-3.8c0-1.2,0.3-2.6,0.9-4.3l-0.9,0.9c-0.3,0.3-0.4,0.4-0.6,0.2c-0.1-0.1-0.2-0.2-0.2-0.3s0.1-0.3,0.4-0.5
			c2.3-2.3,3.9-4,4.8-5.1c-0.6,0.2-1,0.3-1.2,0.1s-0.4-0.5-0.4-0.8c-0.1-0.4,0.1-0.8,0.5-1.3s1-0.9,1.8-1.1c0.8-0.2,1.4-0.4,1.8-0.4
			C1296.5-594,1297.1-595,1297.8-596.2z"/>
		<path class="st4" d="M1354.1-605.2c0,3.2-0.6,6.3-1.9,9.4c-1.3,3-3.1,6.1-5.3,9.2c-2.8,3.9-6.1,7-9.9,9.3c-2,1.2-4,1.7-6.2,1.7
			c-2.9,0-5.1-1.1-6.8-3.3c-1.4-1.9-2.2-4.1-2.2-6.6c0-3.5,1.2-7.4,3.5-11.5c1.7-3,3.9-5.7,6.4-8.1c2.5-2.4,4.8-3.9,6.8-4.7
			c1.3-0.4,2.6-0.6,3.8-0.6c1.2,0,2.2,0.4,3.1,1.3c1,1,1.4,2.4,1.4,4.2c0,1.1-0.2,2.2-0.5,3.4c-0.1,0.4-0.2,0.5-0.3,0.2
			c-0.1-0.1,0-0.4,0-0.8c0.1-0.4,0.1-0.8,0.1-1.3c0-1.6-0.8-2.3-2.5-2.3c-2.4,0-5.4,1.3-9,3.8s-6.3,5.2-8.1,7.9
			c-2.5,3.7-3.7,7.1-3.7,10.1c0,3.3,1.7,5.2,5,5.8c0.5,0.1,1,0.2,1.5,0.2c1.8,0,3.9-0.5,6.4-1.5c4.5-1.8,8.1-4.5,11-8.4
			c3.7-5,5.5-10.7,5.5-16.9c0-2.3-0.2-4-0.7-5.2c-0.5-1.1-0.9-1.8-1.3-2s-0.8-0.3-1.1-0.2s-0.5,0.1-0.4-0.1c0-0.4,0.4-0.5,1.2-0.5
			s1.5,0.4,2.3,1.1C1353.5-610.6,1354.1-608.5,1354.1-605.2z"/>
		<path class="st4" d="M1371.6-599.7c0,0.1-0.1,0.2-0.2,0.2s-0.2-0.1-0.2-0.3c-0.2-0.8-0.6-1.4-1.1-1.9c-0.5-0.4-1-0.7-1.4-0.7
			s-0.8,0-1.1,0c-1.2,0-2.2,0.4-3.2,1.1c-1.9,1.3-4.1,3.9-6.6,7.6c1.8,0.2,2.9,0.5,3.6,1.1c1.2,1,1.7,1.7,1.4,2.2
			c-0.1,0.2-0.4,0.1-0.9-0.2s-1.3-0.5-2.4-0.5s-2.3,0.2-3.7,0.6c-2.2,3.6-3.8,7.2-4.9,10.9c-0.4,1.6-0.7,3-0.7,4
			c0,1.1,0.2,1.9,0.6,2.4c0.1,0.1,0.1,0.2,0,0.3c-0.1,0-0.2,0.1-0.2,0.1s-0.1,0-0.1-0.1c-1.2-1.1-1.8-2.7-1.8-5s1-5.9,2.9-10.9
			c-0.2,0.1-0.3,0.1-0.4,0s-0.2-0.2-0.3-0.5c-0.1-0.2-0.2-0.6-0.3-0.9c-0.1-0.4-0.1-0.7,0-1.1c0.1-0.4,0.3-0.7,0.7-1.1
			c0.4-0.4,1.2-0.8,2.3-1c2.4-4.8,4.7-8.1,6.9-9.7c1.5-1.1,3-1.6,4.6-1.6s2.9,0.4,4,1.3C1370.8-602.5,1371.6-601.2,1371.6-599.7z"/>
		<path class="st4" d="M1391.5-596.2c1.2-0.1,2.4-0.2,3.8-0.2s2.8,0.2,4.4,0.6s2.9,1.1,3.8,2.2c1,1.1,1.5,2.4,1.5,3.8
			s-0.4,2.8-1.1,4.3c-0.7,1.4-1.8,2.8-3.2,4.3c-4.2,4.2-9.6,6.3-16.2,6.3c-1.8,0-3.3-0.2-4.7-0.6c-1.4-0.4-2.3-0.8-2.7-1.1
			c-0.4-0.3-0.9-0.7-1.5-1.2s-0.7-0.8-0.4-0.8c0.2,0,0.6,0.2,1.4,0.5s2.3,0.5,4.4,0.5s4.5-0.3,7-0.8s4.6-1.4,6.3-2.5
			c1.8-1.1,3.2-2.3,4.2-3.7c1.3-1.7,1.9-3.3,1.9-5c0-0.9-0.2-1.9-0.7-2.8s-1.3-1.7-2.7-2.2c-1.3-0.5-2.5-0.8-3.6-0.8
			s-2.3,0.1-3.6,0.2c-1.4,0.1-3.1,0.6-5.2,1.4c-2.1,0.8-3.5,1.8-4.2,2.9c-0.7,1.1-1.3,2.2-1.8,3.1c-0.5,1-1,2-1.5,3.1
			s-0.9,1.9-1.2,2.5c-0.2,0.5-0.4,0.7-0.7,0.7s-0.4-0.1-0.4-0.4c0-1.2,1.2-3.9,3.7-8.1c2.5-4.2,4.9-8,7.1-11.2
			c2.3-3.3,3.6-4.9,4-4.9c0.2,0,0.4,0.1,0.5,0.3s0.2,0.4,0.1,0.6c-4,5.5-6.4,8.9-7.2,10c11.7-2.2,18.9-5.2,21.4-9.3
			c0.4-0.7,0.6-1.3,0.6-1.9s-0.3-1.2-0.8-1.7c-1-1-2.9-1.5-5.7-1.5s-6.5,0.7-11.1,2.1c-4.6,1.4-7.8,3-9.5,4.7
			c-0.5,0.5-0.7,0.8-0.6,1.1c0.2,0.3,0.2,0.5,0.1,0.5s-0.2,0-0.4-0.2c-0.7-0.4-1.1-1-1.3-1.6s-0.3-1.1-0.3-1.4
			c0-0.3,0.1-0.5,0.2-0.7c1.4-2.2,4.6-4.1,9.6-5.8s8.9-2.6,11.5-2.6c5.3,0,8.7,1,10.1,3c0.5,0.8,0.8,1.6,0.8,2.5
			c0,1.4-0.7,2.8-2.1,4.3C1402.3-600.2,1397.6-597.8,1391.5-596.2z"/>
		<path class="st4" d="M1416.1-586.3c1.7-1,2.5-2.1,2.5-3.1c0-1.1-0.6-1.6-1.7-1.6c-0.5,0-1.1,0.2-1.7,0.5c-1.3,0.7-2.6,1.8-3.9,3.5
			c-1.5,2-2.3,3.9-2.3,5.7c0,0.7,0.2,1.3,0.5,1.9c0.3,0.6,0.9,0.9,1.8,0.9c1.5,0,3.4-0.9,5.7-2.6c2.3-1.7,4.3-3.5,6-5.3
			c0.4-0.4,0.6-0.4,0.6-0.1c0,0.2-0.1,0.5-0.3,0.6c-1.2,1.2-2,2-2.4,2.4s-1.2,1.1-2.4,2.2c-1.2,1-2.1,1.8-2.9,2.2
			c-2.3,1.3-4.2,2-5.8,2s-2.8-0.4-3.8-1.2c-0.9-0.8-1.4-1.9-1.4-3.3c0-3,1.2-5.6,3.7-7.7c2.4-2.2,5-3.3,7.6-3.3c1.8,0,3,0.4,3.6,1.3
			c0.3,0.4,0.4,0.9,0.4,1.3c0,0.5-0.1,1-0.4,1.6c-0.6,1.1-1.7,2.1-3.2,2.9c-1.6,0.8-3.1,1.2-4.5,1.2c-0.5,0-0.8-0.1-0.9-0.2
			c0-0.1,0-0.2,0.1-0.2c0.1-0.1,0.3-0.1,0.5-0.1C1412.8-584.8,1414.3-585.3,1416.1-586.3z"/>
		<path class="st4" d="M1418.5-580.9c0,0,0-0.1,0-0.2s0.1-0.1,0.2-0.1s0.2,0.1,0.2,0.2c0.6,1.4,1.5,2.1,2.8,2.1
			c1.6,0,3.1-0.9,4.3-2.6c0.9-1.3,1.7-2.7,2.4-4.1s1.3-2.6,1.7-3.4c0.5-0.8,1.2-1.8,2.2-2.9c1-1.1,1.9-1.7,2.7-2
			c-0.2-0.1-0.5-0.2-1-0.2s-1.3,0.4-2.5,1.1s-2.5,1.6-3.7,2.8c-1.2,1.1-2.5,2.4-3.9,3.8s-2.3,2.2-2.5,2.5c-0.3,0.2-0.5,0.2-0.5,0
			c-0.1-0.2,0-0.5,0.2-0.7c0.8-0.8,2-2,3.6-3.6s2.8-2.8,3.6-3.6c0.8-0.8,1.7-1.4,2.8-2c1-0.5,1.8-0.8,2.3-0.8c1.3,0,2.1,0.2,2.4,0.7
			c-0.8,0.4-1.5,1.4-2,3.1c-0.5,1.7-1.1,3.6-1.8,5.8c-0.7,2.2-1.5,3.9-2.5,5.1c0.8-0.4,2.1-1.2,3.9-2.5c1.7-1.3,3.3-2.7,4.6-4.2
			c0.3-0.3,0.5-0.3,0.6-0.1c0,0.1,0,0.2,0,0.2c0,0.1-0.3,0.5-0.9,1.1c-0.6,0.7-1.4,1.4-2.2,2.2c-0.9,0.8-2,1.8-3.3,2.8
			c-2.7,2.1-5.5,3.2-8.2,3.2C1421.1-577.1,1419.3-578.4,1418.5-580.9z"/>
		<path class="st4" d="M1444.7-596.2c0.7-1.2,1.3-2.1,1.7-2.8s0.8-1.2,1-1.5c0.3-0.3,0.8-0.6,1.7-0.8c0.9-0.2,1.8-0.3,2.6-0.3
			s1.3,0.1,1.3,0.3s-0.7,1-2.1,2.5c-1.4,1.4-3,3.4-4.8,5.8c2.2,0.4,3.6,1.1,4.3,2.3c0.3,0.5,0.3,0.8,0.1,1c-0.2,0.1-0.4,0.1-0.6-0.2
			c-0.7-0.7-1.7-1.1-3.2-1.1c-0.6,0-1.4,0.1-2.2,0.2c-2.6,3.7-4.2,6.7-4.9,9c-0.2,0.7-0.3,1.2-0.3,1.7c0,1.2,0.5,1.9,1.4,1.9
			c1,0,2.4-0.8,4.2-2.3c2.3-1.9,4.4-3.9,6.1-5.8c0.3-0.4,0.5-0.5,0.6-0.3s0,0.4-0.2,0.7c-2.8,3.2-5.1,5.5-6.9,7s-3.6,2.2-5.2,2.2
			c-2.1,0-3.2-1.3-3.2-3.8c0-1.2,0.3-2.6,0.9-4.3l-0.9,0.9c-0.3,0.3-0.4,0.4-0.6,0.2c-0.1-0.1-0.2-0.2-0.2-0.3s0.1-0.3,0.4-0.5
			c2.3-2.3,3.9-4,4.8-5.1c-0.6,0.2-1,0.3-1.2,0.1s-0.4-0.5-0.4-0.8c-0.1-0.4,0.1-0.8,0.5-1.3s1-0.9,1.8-1.1c0.8-0.2,1.4-0.4,1.8-0.4
			C1443.4-594,1444-595,1444.7-596.2z"/>
	</g>
</g>
<rect x="1136.2" y="-729.1" class="st2" width="347.9" height="89.7"/>
<g>
	<g>
		<path class="st0" d="M1240.2-669.3c0,2.5-0.5,4.7-1.4,6.7c-0.9,1.9-2.2,3.5-3.8,4.8c-1.6,1.3-3.5,2.3-5.6,2.9
			c-2.1,0.7-4.4,1-6.8,1h-26.3v-59.8h29.1c1.9,0,3.6,0.5,5.1,1.3c1.5,0.9,2.8,2.1,3.9,3.5s1.9,3.1,2.5,4.9c0.6,1.8,0.9,3.7,0.9,5.5
			c0,2.9-0.7,5.7-2,8.2c-1.3,2.6-3.3,4.5-5.8,5.7c3.1,1,5.6,2.8,7.4,5.4C1239.3-676.5,1240.2-673.2,1240.2-669.3z M1206.9-703.7
			v15.1h14.1c1.8,0,3.3-0.7,4.6-2c1.3-1.3,1.9-3.2,1.9-5.6c0-2.3-0.6-4.1-1.7-5.5c-1.1-1.3-2.6-2-4.3-2H1206.9z M1229.5-671.5
			c0-1.1-0.2-2.1-0.5-3.1s-0.8-1.8-1.3-2.6c-0.6-0.7-1.2-1.3-2-1.7s-1.6-0.6-2.5-0.6H1207v15.8h15.7c1,0,1.9-0.2,2.7-0.6
			c0.8-0.4,1.6-0.9,2.2-1.6c0.6-0.7,1.1-1.5,1.5-2.5C1229.4-669.4,1229.5-670.4,1229.5-671.5z"/>
		<path class="st0" d="M1271.7-653.4c-4,0-7.6-0.9-10.8-2.6c-3.2-1.7-6-4-8.4-6.8c-2.3-2.8-4.1-6.1-5.4-9.7
			c-1.3-3.7-1.9-7.4-1.9-11.2c0-4,0.7-7.8,2-11.5c1.4-3.7,3.2-6.9,5.6-9.7s5.2-5,8.5-6.7s6.8-2.5,10.6-2.5c3.9,0,7.5,0.9,10.8,2.7
			c3.2,1.8,6,4.1,8.3,7s4.1,6.1,5.4,9.8s1.9,7.4,1.9,11.1c0,4-0.7,7.8-2,11.4c-1.3,3.6-3.2,6.8-5.5,9.6c-2.4,2.8-5.2,5-8.4,6.7
			C1279.1-654.3,1275.5-653.4,1271.7-653.4z M1255.9-683.8c0,2.6,0.4,5.1,1.1,7.5s1.7,4.5,3.1,6.4s3,3.3,5,4.5
			c2,1.1,4.2,1.7,6.7,1.7c2.6,0,4.8-0.6,6.8-1.7c2-1.2,3.6-2.7,5-4.6c1.4-1.9,2.4-4.1,3.1-6.4c0.7-2.4,1-4.8,1-7.3
			c0-2.6-0.4-5.1-1.1-7.5s-1.8-4.6-3.1-6.4c-1.4-1.9-3-3.3-5-4.4c-2-1.1-4.2-1.6-6.6-1.6c-2.6,0-4.8,0.6-6.8,1.7s-3.7,2.7-5,4.5
			c-1.3,1.9-2.3,4-3,6.4C1256.2-688.7,1255.9-686.2,1255.9-683.8z"/>
		<path class="st0" d="M1309.5-713.7l13.6,22.2l13.5-22.2h11.4l-19.4,30.3l18.8,29.5H1336l-12.9-21.4l-12.9,21.4h-11.5l18.8-29.5
			l-19.4-30.3H1309.5z"/>
		<path class="st0" d="M1391.2-664v10.2h-37.8v-59.8h37.1v10.2H1364v14.4h22.9v9.4H1364v15.6L1391.2-664L1391.2-664z"/>
		<path class="st0" d="M1430.7-698c-0.4-0.4-1-0.9-2-1.6c-0.9-0.7-2.1-1.3-3.4-2c-1.4-0.6-2.8-1.2-4.4-1.6c-1.6-0.4-3.2-0.7-4.8-0.7
			c-2.9,0-5.1,0.6-6.5,1.8s-2.1,2.8-2.1,5c0,1.2,0.3,2.3,0.8,3.1s1.3,1.5,2.3,2.1s2.3,1.2,3.9,1.7s3.4,1,5.4,1.6
			c2.7,0.8,5.1,1.6,7.2,2.5c2.2,0.9,4,2,5.5,3.4c1.5,1.3,2.7,3,3.5,4.8c0.8,1.9,1.2,4.2,1.2,7c0,3.2-0.5,5.9-1.6,8.2
			s-2.6,4.1-4.4,5.5c-1.9,1.4-4,2.4-6.4,3.1s-5,1-7.6,1c-4.1,0-8.1-0.7-12.1-2s-7.6-3.3-10.7-5.7l4.7-10c0.5,0.5,1.3,1.2,2.5,2
			s2.6,1.6,4.3,2.4c1.6,0.8,3.4,1.5,5.4,2.1s4,0.8,6.1,0.8c5.8,0,8.7-2,8.7-6.2c0-1.3-0.3-2.4-1-3.3c-0.7-0.9-1.6-1.7-2.8-2.4
			c-1.2-0.7-2.7-1.3-4.4-1.9c-1.7-0.6-3.7-1.2-5.8-1.9c-2.6-0.8-4.9-1.6-6.8-2.6c-1.9-0.9-3.5-2-4.8-3.3s-2.2-2.7-2.9-4.4
			c-0.6-1.7-1-3.6-1-5.9c0-3,0.5-5.7,1.5-8.1s2.4-4.3,4.3-5.9c1.8-1.6,3.9-2.8,6.3-3.6s5-1.2,7.7-1.2c3.8,0,7.4,0.7,10.6,2
			s6,2.9,8.4,4.7L1430.7-698z"/>
	</g>
</g>
<g>
	<g>
		<path class="st5" d="M51.8,31.5h0.8v2.9h1.3v1h-2L51.8,31.5L51.8,31.5z"/>
		<path class="st5" d="M56.2,34.2h-1.4c0,0.2,0,0.3,0.1,0.4c0.1,0.1,0.2,0.2,0.3,0.2s0.1,0,0.2-0.1c0,0,0.1-0.1,0.1-0.2l0.7,0.1
			c-0.1,0.3-0.3,0.5-0.4,0.6c-0.2,0.1-0.4,0.2-0.7,0.2s-0.5-0.1-0.6-0.2c-0.1-0.1-0.3-0.3-0.4-0.5c-0.1-0.2-0.1-0.5-0.1-0.8
			c0-0.5,0.1-0.8,0.3-1.1s0.5-0.4,0.8-0.4s0.5,0.1,0.7,0.2c0.2,0.1,0.3,0.3,0.4,0.5c0.1,0.2,0.1,0.5,0.1,0.9
			C56.2,34,56.2,34.2,56.2,34.2z M55.6,33.7c0-0.2-0.1-0.4-0.1-0.5c-0.1-0.1-0.1-0.1-0.3-0.1c-0.1,0-0.2,0.1-0.3,0.2
			c0,0.1-0.1,0.2-0.1,0.4C54.8,33.7,55.6,33.7,55.6,33.7z"/>
		<path class="st5" d="M57.5,31.5v1.1h0.4v0.8h-0.4v1c0,0.1,0,0.2,0,0.2c0,0.1,0.1,0.1,0.1,0.1c0.1,0,0.1,0,0.2-0.1l0.1,0.8
			c-0.2,0.1-0.4,0.1-0.5,0.1c-0.2,0-0.3,0-0.4-0.1c-0.1-0.1-0.2-0.2-0.2-0.3s-0.1-0.4-0.1-0.7v-1h-0.3v-0.8h0.3v-0.5L57.5,31.5z"/>
		<path class="st5" d="M58.2,31.4H59v0.9c0,0.3,0,0.6-0.1,0.8s-0.3,0.4-0.5,0.5L58.2,33c0.1-0.1,0.2-0.2,0.3-0.3s0.1-0.2,0.1-0.3
			h-0.4C58.2,32.4,58.2,31.4,58.2,31.4z"/>
		<path class="st5" d="M59,34.6l0.7-0.1c0,0.1,0.1,0.2,0.1,0.3c0.1,0.1,0.1,0.1,0.2,0.1s0.2,0,0.2-0.1c0,0,0.1-0.1,0.1-0.2
			s0-0.1-0.1-0.2c0,0-0.1-0.1-0.3-0.1c-0.3-0.1-0.4-0.1-0.5-0.2c-0.1-0.1-0.2-0.2-0.3-0.3S59,33.5,59,33.3s0-0.4,0.1-0.5
			s0.2-0.2,0.3-0.3s0.3-0.1,0.5-0.1s0.4,0,0.5,0.1s0.2,0.1,0.3,0.2c0.1,0.1,0.1,0.3,0.2,0.4l-0.7,0.1c0-0.1,0-0.2-0.1-0.2
			c-0.1-0.1-0.1-0.1-0.2-0.1c-0.1,0-0.1,0-0.2,0.1c0,0-0.1,0.1-0.1,0.2c0,0.1,0,0.1,0.1,0.2c0,0,0.2,0.1,0.3,0.1
			c0.3,0,0.4,0.1,0.6,0.2c0.1,0.1,0.2,0.2,0.3,0.3s0.1,0.3,0.1,0.5s0,0.3-0.1,0.5s-0.2,0.3-0.3,0.4c-0.1,0.1-0.3,0.1-0.6,0.1
			c-0.4,0-0.6-0.1-0.8-0.2C59.1,34.9,59,34.7,59,34.6z"/>
		<path class="st5" d="M62.6,31.5h0.9v1.3h0.9v-1.3h0.8v3.9h-0.8v-1.5h-0.9v1.5h-0.8L62.6,31.5L62.6,31.5z"/>
		<path class="st5" d="M66.2,33.4l-0.7-0.1c0-0.2,0.1-0.3,0.1-0.4c0.1-0.1,0.1-0.2,0.2-0.3c0.1-0.1,0.2-0.1,0.3-0.1
			c0.1,0,0.3,0,0.4,0c0.2,0,0.4,0,0.5,0.1c0.1,0,0.3,0.1,0.3,0.2c0.1,0.1,0.1,0.2,0.2,0.3c0.1,0.1,0.1,0.3,0.1,0.4v1.3
			c0,0.1,0,0.2,0,0.3s0,0.2,0.1,0.3h-0.7c0-0.1,0-0.1-0.1-0.2c0,0,0-0.1,0-0.2c-0.1,0.1-0.2,0.2-0.3,0.3s-0.3,0.1-0.5,0.1
			s-0.4-0.1-0.5-0.2c-0.1-0.2-0.2-0.4-0.2-0.6c0-0.2,0-0.4,0.1-0.5c0.1-0.1,0.2-0.2,0.5-0.3s0.5-0.1,0.5-0.2c0.1,0,0.2-0.1,0.3-0.1
			c0-0.1,0-0.2-0.1-0.3c0-0.1-0.1-0.1-0.2-0.1c-0.1,0-0.2,0-0.3,0.1C66.4,33.2,66.2,33.3,66.2,33.4z M66.9,34
			c-0.1,0.1-0.2,0.1-0.3,0.1c-0.2,0.1-0.2,0.1-0.2,0.2s-0.1,0.1-0.1,0.2s0,0.2,0.1,0.2c0,0.1,0.1,0.1,0.2,0.1c0.1,0,0.2,0,0.2-0.1
			c0.1-0.1,0.1-0.1,0.2-0.2c0-0.1,0-0.2,0-0.3L66.9,34L66.9,34z"/>
		<path class="st5" d="M67.8,32.5h0.8l0.4,1.7l0.4-1.7h0.8l-0.9,2.8h-0.7L67.8,32.5z"/>
		<path class="st5" d="M72.2,34.2h-1.4c0,0.2,0,0.3,0.1,0.4c0.1,0.1,0.2,0.2,0.3,0.2c0.1,0,0.1,0,0.2-0.1c0,0,0.1-0.1,0.1-0.2
			l0.7,0.1c-0.1,0.3-0.3,0.5-0.4,0.6c-0.2,0.1-0.4,0.2-0.7,0.2c-0.3,0-0.5-0.1-0.6-0.2c-0.1-0.1-0.3-0.3-0.4-0.5
			c-0.1-0.2-0.1-0.5-0.1-0.8c0-0.5,0.1-0.8,0.3-1.1c0.2-0.3,0.5-0.4,0.8-0.4s0.5,0.1,0.7,0.2c0.2,0.1,0.3,0.3,0.4,0.5
			c0.1,0.2,0.1,0.5,0.1,0.9C72.2,34,72.2,34.2,72.2,34.2z M71.4,33.7c0-0.2-0.1-0.4-0.1-0.5c-0.1-0.1-0.1-0.1-0.3-0.1
			c-0.1,0-0.2,0.1-0.3,0.2c0,0.1-0.1,0.2-0.1,0.4C70.7,33.7,71.4,33.7,71.4,33.7z"/>
		<path class="st5" d="M73.6,31.5h2.4v1h-0.9v2.9h-0.8v-2.9h-0.9L73.6,31.5L73.6,31.5z"/>
		<path class="st5" d="M76.4,31.5h0.8v1.4c0.1-0.2,0.2-0.3,0.3-0.3s0.2-0.1,0.4-0.1c0.2,0,0.4,0.1,0.5,0.3c0.1,0.2,0.2,0.5,0.2,0.8
			v1.7h-0.8v-1.5c0-0.2,0-0.3-0.1-0.4c0-0.1-0.1-0.1-0.2-0.1c-0.1,0-0.2,0.1-0.2,0.2c-0.1,0.1-0.1,0.3-0.1,0.5v1.3h-0.8
			C76.4,35.3,76.4,31.5,76.4,31.5z"/>
		<path class="st5" d="M80.9,34.2h-1.4c0,0.2,0,0.3,0.1,0.4c0.1,0.1,0.2,0.2,0.3,0.2s0.1,0,0.2-0.1c0,0,0.1-0.1,0.1-0.2l0.7,0.1
			c-0.1,0.3-0.3,0.5-0.4,0.6c-0.2,0.1-0.4,0.2-0.7,0.2s-0.5-0.1-0.6-0.2c-0.1-0.1-0.3-0.3-0.4-0.5c0-0.2,0-0.5,0-0.8
			c0-0.5,0.1-0.8,0.3-1.1s0.5-0.4,0.8-0.4s0.5,0.1,0.7,0.2c0.2,0.1,0.3,0.3,0.4,0.5c0.1,0.2,0.1,0.5,0.1,0.9L80.9,34.2L80.9,34.2z
			 M80.2,33.7c0-0.2-0.1-0.4-0.1-0.5c-0.1-0.1-0.1-0.1-0.3-0.1c-0.1,0-0.2,0.1-0.3,0.2c0,0.1-0.1,0.2-0.1,0.4
			C79.4,33.7,80.2,33.7,80.2,33.7z"/>
		<path class="st5" d="M82.6,31.5h1.5c0.3,0,0.5,0.1,0.6,0.3c0.1,0.2,0.2,0.4,0.2,0.7c0,0.2,0,0.4-0.1,0.6c-0.1,0.1-0.2,0.2-0.3,0.3
			c0.2,0.1,0.3,0.2,0.4,0.4c0.1,0.2,0.1,0.4,0.1,0.6s0,0.4-0.1,0.6c-0.1,0.2-0.2,0.3-0.3,0.4c-0.1,0.1-0.2,0.1-0.3,0.1
			c-0.2,0-0.3,0.1-0.4,0.1h-1.3L82.6,31.5L82.6,31.5z M83.4,32.9h0.4c0.1,0,0.2,0,0.3-0.1s0.1-0.2,0.1-0.3s0-0.2-0.1-0.3
			c-0.1-0.1-0.1-0.1-0.3-0.1h-0.4V32.9z M83.4,34.5h0.4c0.1,0,0.2,0,0.3-0.1s0.1-0.2,0.1-0.3s0-0.2-0.1-0.3
			c-0.1-0.1-0.2-0.1-0.3-0.1h-0.4V34.5z"/>
		<path class="st5" d="M87.4,34.2h-1.4c0,0.2,0,0.3,0.1,0.4c0.1,0.1,0.2,0.2,0.3,0.2s0.1,0,0.2-0.1c0,0,0.1-0.1,0.1-0.2l0.7,0.1
			c-0.1,0.3-0.3,0.5-0.4,0.6c-0.2,0.1-0.4,0.2-0.7,0.2s-0.5-0.1-0.6-0.2c-0.1-0.1-0.3-0.3-0.4-0.5c-0.1-0.2-0.1-0.5-0.1-0.8
			c0-0.5,0.1-0.8,0.3-1.1c0.2-0.3,0.5-0.4,0.8-0.4s0.5,0.1,0.7,0.2c0.2,0.1,0.3,0.3,0.4,0.5c0.1,0.2,0.1,0.5,0.1,0.9v0.2H87.4z
			 M86.8,33.7c0-0.2-0.1-0.4-0.1-0.5c-0.1-0.1-0.1-0.1-0.3-0.1c-0.1,0-0.2,0.1-0.3,0.2c0,0.1-0.1,0.2-0.1,0.4
			C85.9,33.7,86.8,33.7,86.8,33.7z"/>
		<path class="st5" d="M87.7,34.6l0.7-0.1c0,0.1,0.1,0.2,0.1,0.3c0.1,0.1,0.1,0.1,0.2,0.1c0.1,0,0.2,0,0.2-0.1c0,0,0.1-0.1,0.1-0.2
			s0-0.1-0.1-0.2c0,0-0.1-0.1-0.3-0.1c-0.3-0.1-0.4-0.1-0.5-0.2c-0.1-0.1-0.2-0.2-0.3-0.3c-0.1-0.1-0.1-0.3-0.1-0.5s0-0.4,0.1-0.5
			c0.1-0.1,0.2-0.2,0.3-0.3s0.3-0.1,0.5-0.1s0.4,0,0.5,0.1c0.1,0.1,0.2,0.1,0.3,0.2s0.1,0.3,0.2,0.4l-0.7,0.1c0-0.1,0-0.2-0.1-0.2
			c-0.1-0.1-0.1-0.1-0.2-0.1c-0.1,0-0.1,0-0.2,0.1c0,0-0.1,0.1-0.1,0.2c0,0.1,0,0.1,0.1,0.2c0,0,0.2,0.1,0.3,0.1
			c0.3,0,0.4,0.1,0.6,0.2c0.1,0.1,0.2,0.2,0.3,0.3s0.1,0.3,0.1,0.5s0,0.3-0.1,0.5c-0.1,0.2-0.2,0.3-0.3,0.4
			c-0.1,0.1-0.3,0.1-0.6,0.1c-0.4,0-0.6-0.1-0.8-0.2C87.8,34.9,87.7,34.7,87.7,34.6z"/>
		<path class="st5" d="M90.9,31.5v1.1h0.4v0.8h-0.4v1c0,0.1,0,0.2,0,0.2c0,0.1,0.1,0.1,0.1,0.1c0.1,0,0.1,0,0.2-0.1l0.1,0.8
			c-0.2,0.1-0.4,0.1-0.5,0.1c-0.2,0-0.3,0-0.4-0.1c-0.1-0.1-0.2-0.2-0.2-0.3s-0.1-0.4-0.1-0.7v-1h-0.3v-0.8h0.3v-0.5L90.9,31.5z"/>
		<path class="st5" d="M92.8,33.4c0-0.7,0.1-1.2,0.4-1.4c0.2-0.4,0.6-0.5,1-0.5c0.5,0,0.8,0.2,1,0.5c0.2,0.4,0.4,0.9,0.4,1.4
			s-0.1,0.8-0.2,1.1c-0.1,0.3-0.3,0.5-0.5,0.7s-0.5,0.2-0.8,0.2s-0.6-0.1-0.8-0.2c-0.2-0.1-0.4-0.4-0.5-0.7
			C92.9,34.2,92.8,33.8,92.8,33.4z M93.6,33.4c0,0.4,0.1,0.7,0.2,0.9c0.1,0.2,0.2,0.3,0.4,0.3s0.3-0.1,0.4-0.3
			c0.1-0.2,0.1-0.5,0.1-0.9s-0.1-0.7-0.2-0.8c-0.1-0.2-0.2-0.3-0.4-0.3c-0.2,0-0.3,0.1-0.4,0.3C93.7,32.7,93.6,33,93.6,33.4z"/>
		<path class="st5" d="M96.7,32.5h0.4v0.8h-0.4v2h-0.8v-2h-0.3v-0.8h0.3v-0.1c0-0.1,0-0.2,0-0.4c0-0.1,0-0.3,0.1-0.3
			c0-0.1,0.1-0.2,0.2-0.2c0.1-0.1,0.2-0.1,0.4-0.1c0.1,0,0.3,0,0.6,0.1V32c-0.1,0-0.2,0-0.2,0c-0.1,0-0.1,0-0.1,0.1
			c0,0-0.1,0.1-0.1,0.2C96.7,32.3,96.7,32.3,96.7,32.5z"/>
		<path class="st5" d="M98.8,31.5h1.5c0.3,0,0.5,0.1,0.6,0.3c0.1,0.2,0.2,0.4,0.2,0.7c0,0.2,0,0.4-0.1,0.6c-0.1,0.1-0.2,0.2-0.3,0.3
			c0.2,0.1,0.3,0.2,0.4,0.4c0.1,0.2,0.1,0.4,0.1,0.6s0,0.4-0.1,0.6c-0.1,0.2-0.2,0.3-0.3,0.4c-0.1,0.1-0.2,0.1-0.3,0.1
			c-0.2,0-0.3,0.1-0.4,0.1h-1.3L98.8,31.5L98.8,31.5z M99.7,32.9h0.4c0.1,0,0.2,0,0.3-0.1s0.1-0.2,0.1-0.3s0-0.2-0.1-0.3
			c-0.1-0.1-0.1-0.1-0.3-0.1h-0.4V32.9z M99.7,34.5h0.4c0.1,0,0.2,0,0.3-0.1s0.1-0.2,0.1-0.3s0-0.2-0.1-0.3
			c-0.1-0.1-0.2-0.1-0.3-0.1h-0.4V34.5z"/>
		<path class="st5" d="M103.7,34.2h-1.4c0,0.2,0,0.3,0.1,0.4c0.1,0.1,0.2,0.2,0.3,0.2c0.1,0,0.1,0,0.2-0.1c0,0,0.1-0.1,0.1-0.2
			l0.7,0.1c-0.1,0.3-0.3,0.5-0.4,0.6c-0.2,0.1-0.4,0.2-0.7,0.2c-0.3,0-0.5-0.1-0.6-0.2c-0.1-0.1-0.3-0.3-0.4-0.5
			c-0.1-0.2-0.1-0.5-0.1-0.8c0-0.5,0.1-0.8,0.3-1.1s0.5-0.4,0.8-0.4s0.5,0.1,0.7,0.2c0.2,0.1,0.3,0.3,0.4,0.5
			c0.1,0.2,0.1,0.5,0.1,0.9L103.7,34.2L103.7,34.2z M102.9,33.7c0-0.2-0.1-0.4-0.1-0.5c-0.1-0.1-0.1-0.1-0.3-0.1
			c-0.1,0-0.2,0.1-0.3,0.2c0,0.1-0.1,0.2-0.1,0.4C102.2,33.7,102.9,33.7,102.9,33.7z"/>
		<path class="st5" d="M103.9,34.6l0.7-0.1c0,0.1,0.1,0.2,0.1,0.3c0.1,0.1,0.1,0.1,0.2,0.1c0.1,0,0.2,0,0.2-0.1c0,0,0.1-0.1,0.1-0.2
			s0-0.1-0.1-0.2c0,0-0.1-0.1-0.3-0.1c-0.3-0.1-0.4-0.1-0.5-0.2c-0.1-0.1-0.2-0.2-0.3-0.3c-0.1-0.1-0.1-0.3-0.1-0.5s0-0.4,0.1-0.5
			c0.1-0.1,0.2-0.2,0.3-0.3s0.3-0.1,0.5-0.1s0.4,0,0.5,0.1c0.1,0.1,0.2,0.1,0.3,0.2c0.1,0.1,0.1,0.3,0.2,0.4l-0.7,0.1
			c0-0.1,0-0.2-0.1-0.2c-0.1-0.1-0.1-0.1-0.2-0.1c-0.1,0-0.1,0-0.2,0.1c0,0-0.1,0.1-0.1,0.2c0,0.1,0,0.1,0.1,0.2
			c0,0,0.2,0.1,0.3,0.1c0.3,0,0.4,0.1,0.6,0.2c0.1,0.1,0.2,0.2,0.3,0.3s0.1,0.3,0.1,0.5s0,0.3-0.1,0.5c-0.1,0.2-0.2,0.3-0.3,0.4
			c-0.1,0.1-0.3,0.1-0.6,0.1c-0.4,0-0.6-0.1-0.8-0.2C103.9,34.9,103.9,34.7,103.9,34.6z"/>
		<path class="st5" d="M107.1,31.5v1.1h0.4v0.8h-0.4v1c0,0.1,0,0.2,0,0.2c0,0.1,0.1,0.1,0.1,0.1c0.1,0,0.1,0,0.2-0.1l0.1,0.8
			c-0.2,0.1-0.4,0.1-0.5,0.1c-0.2,0-0.3,0-0.4-0.1c-0.1-0.1-0.2-0.2-0.2-0.3s-0.1-0.4-0.1-0.7v-1h-0.3v-0.8h0.3v-0.5L107.1,31.5z"/>
	</g>
</g>
<polygon class="st6" points="13.7,22.1 23.4,22.1 38.7,1.5 29.1,1.5 "/>
<polygon class="st7" points="1.4,22.1 11.1,22.1 24.2,4.5 14.5,4.5 "/>
<polygon class="st7" points="1.4,23.1 11.1,23.1 24.2,40.7 14.5,40.7 "/>
<polygon class="st8" points="37.7,12.3 35.1,8.8 39.9,2.4 47.4,12.3 "/>
<polygon class="st6" points="13.7,23.1 23.4,23.1 38.7,43.7 29.1,43.7 "/>
<polygon class="st8" points="37.7,32.9 35.1,36.4 39.9,42.8 47.4,32.9 "/>
<g id="_2077201718096">
	<polygon class="st6" points="39.3,21.8 69.6,21.8 69.6,30.1 39.3,30.1 	"/>
	<polygon class="st7" points="107.4,21.8 69.6,21.8 69.6,30.1 107.4,30.1 	"/>
</g>
<g class="st9">
	<path class="st10" d="M48.7,11.3h5.4v1.8h-1.8v8h-1.9v-8h-1.7V11.3z"/>
</g>
<g class="st9">
	<path class="st10" d="M56,11.3h1.9V15h3.3v-3.7h1.9v9.8h-1.9v-4.3h-3.3v4.3H56V11.3z"/>
</g>
<g class="st9">
	<path class="st10" d="M66,11.3h5.4v1.8h-3.5v1.8h3.5v1.8h-3.5v2.6h3.5v1.8H66V11.3z"/>
</g>
<g class="st9">
	<path class="st10" d="M77.6,21.2v-9.8h1.5c0.9,0,1.6,0.1,2,0.2c0.6,0.2,1.1,0.4,1.4,0.9c0.3,0.4,0.5,0.9,0.5,1.5
		c0,0.4-0.1,0.7-0.2,1s-0.4,0.6-0.8,0.9c0.6,0.3,1,0.6,1.3,1.1c0.3,0.4,0.4,0.9,0.4,1.5c0,0.6-0.1,1.1-0.4,1.5
		c-0.3,0.5-0.7,0.8-1.1,1c-0.5,0.2-1.1,0.3-1.9,0.3H77.6z M79.4,13.1v2.1h0.4c0.5,0,0.8-0.1,1-0.3c0.2-0.2,0.3-0.5,0.3-0.8
		c0-0.3-0.1-0.6-0.3-0.7c-0.2-0.2-0.5-0.3-1-0.3H79.4z M79.4,16.9v2.5h0.5c0.8,0,1.3-0.1,1.6-0.3c0.3-0.2,0.4-0.5,0.4-0.9
		c0-0.4-0.2-0.8-0.5-1s-0.8-0.4-1.6-0.4H79.4z"/>
</g>
<g class="st9">
	<path class="st10" d="M86.1,11.3h5.4v1.8H88v1.8h3.5v1.8H88v2.6h3.5v1.8h-5.4V11.3z"/>
</g>
<g class="st9">
	<path class="st10" d="M99.1,12.7l-1.4,1.2c-0.5-0.7-1-1-1.5-1c-0.2,0-0.4,0.1-0.6,0.2c-0.2,0.1-0.2,0.3-0.2,0.4s0.1,0.3,0.2,0.5
		c0.2,0.2,0.6,0.6,1.4,1.3c0.7,0.6,1.1,1,1.3,1.1c0.4,0.4,0.6,0.8,0.8,1.1c0.2,0.3,0.2,0.7,0.2,1.1c0,0.8-0.3,1.5-0.8,2
		c-0.6,0.5-1.3,0.8-2.2,0.8c-0.7,0-1.3-0.2-1.8-0.5c-0.5-0.3-1-0.9-1.3-1.6l1.6-0.9c0.5,0.9,1,1.3,1.6,1.3c0.3,0,0.6-0.1,0.8-0.3
		c0.2-0.2,0.3-0.4,0.3-0.6c0-0.2-0.1-0.4-0.2-0.7c-0.2-0.2-0.5-0.6-1.1-1c-1.1-0.9-1.8-1.5-2.1-2c-0.3-0.5-0.5-0.9-0.5-1.4
		c0-0.7,0.3-1.3,0.8-1.8s1.2-0.7,1.9-0.7c0.5,0,1,0.1,1.4,0.3C98.1,11.6,98.5,12.1,99.1,12.7z"/>
</g>
<g class="st9">
	<path class="st10" d="M100.7,11.3h5.4v1.8h-1.8v8h-1.9v-8h-1.7V11.3z"/>
</g>
<path class="st11" d="M43,28.3c-0.4,0-0.8-0.1-1.2-0.3c-0.4-0.2-0.6-0.5-0.8-0.8s-0.3-0.7-0.3-1.2s0.1-0.8,0.3-1.2s0.5-0.6,0.8-0.8
	c0.4-0.2,0.8-0.3,1.2-0.3s0.7,0.1,1,0.2s0.6,0.3,0.8,0.5L44.2,25c-0.3-0.3-0.7-0.5-1.2-0.5c-0.3,0-0.6,0.1-0.8,0.2s-0.4,0.3-0.6,0.6
	c-0.1,0.1-0.2,0.4-0.2,0.7s0.1,0.6,0.2,0.8c0.1,0.2,0.3,0.4,0.6,0.6c0.2,0.1,0.5,0.2,0.8,0.2c0.5,0,0.9-0.2,1.2-0.5l0.5,0.5
	c-0.2,0.2-0.5,0.4-0.8,0.5S43.3,28.3,43,28.3L43,28.3z M47.4,28.3c-0.6,0-1.1-0.2-1.4-0.5s-0.6-0.9-0.6-1.5v-2.5h0.8v2.5
	c0,0.9,0.4,1.3,1.1,1.3c0.7,0,1.1-0.4,1.1-1.3v-2.5h0.8v2.5c0,0.6-0.2,1.1-0.5,1.5C48.4,28.1,48,28.3,47.4,28.3L47.4,28.3z
	 M51.8,28.3c-0.3,0-0.7,0-1-0.1S50.2,28,50,27.8l0.3-0.6c0.2,0.1,0.4,0.3,0.7,0.3c0.3,0.1,0.5,0.1,0.8,0.1s0.6-0.1,0.7-0.2
	c0.2-0.1,0.2-0.2,0.2-0.4c0-0.1,0-0.2-0.1-0.3c-0.1-0.1-0.2-0.1-0.3-0.2c-0.1,0-0.3-0.1-0.6-0.2s-0.6-0.2-0.8-0.2
	c-0.2-0.1-0.4-0.2-0.5-0.4c-0.1-0.2-0.2-0.4-0.2-0.7c0-0.2,0.1-0.5,0.2-0.7s0.3-0.4,0.6-0.5s0.6-0.2,1-0.2c0.3,0,0.5,0,0.8,0.1
	s0.5,0.2,0.7,0.3l-0.3,0.6c-0.2-0.1-0.4-0.2-0.6-0.3c-0.2-0.1-0.4-0.1-0.6-0.1c-0.3,0-0.6,0.1-0.7,0.2c-0.2,0.1-0.2,0.3-0.2,0.4
	s0,0.2,0.1,0.3c0.1,0.1,0.2,0.1,0.3,0.2c0.1,0,0.3,0.1,0.6,0.2s0.6,0.2,0.8,0.2c0.2,0.1,0.4,0.2,0.5,0.4c0.1,0.2,0.2,0.4,0.2,0.7
	c0,0.2-0.1,0.5-0.2,0.7c-0.1,0.2-0.3,0.4-0.6,0.5C52.5,28.2,52.2,28.3,51.8,28.3L51.8,28.3z M55.2,24.5h-1.5v-0.7h3.7v0.7h-1.5v3.7
	h-0.8L55.2,24.5L55.2,24.5z M60.1,28.3c-0.4,0-0.9-0.1-1.2-0.3c-0.4-0.2-0.6-0.5-0.9-0.8c-0.2-0.3-0.3-0.7-0.3-1.2
	c0-0.4,0.1-0.8,0.3-1.2c0.2-0.3,0.5-0.6,0.9-0.8c0.4-0.2,0.8-0.3,1.2-0.3s0.9,0.1,1.2,0.3c0.4,0.2,0.6,0.5,0.9,0.8
	c0.2,0.3,0.3,0.7,0.3,1.2c0,0.4-0.1,0.8-0.3,1.2c-0.2,0.3-0.5,0.6-0.9,0.8C61,28.2,60.6,28.3,60.1,28.3L60.1,28.3z M60.1,27.5
	c0.3,0,0.6-0.1,0.8-0.2s0.4-0.3,0.6-0.6c0.1-0.2,0.2-0.5,0.2-0.8s-0.1-0.6-0.2-0.8c-0.1-0.2-0.3-0.4-0.6-0.6
	c-0.2-0.1-0.5-0.2-0.8-0.2s-0.6,0.1-0.8,0.2s-0.4,0.3-0.6,0.6c-0.1,0.2-0.2,0.5-0.2,0.8s0.1,0.6,0.2,0.8c0.1,0.2,0.3,0.4,0.6,0.6
	S59.8,27.5,60.1,27.5z M67.4,28.2v-2.9l-1.4,2.4h-0.4l-1.4-2.4v2.9h-0.8v-4.4h0.7l1.8,2.9l1.7-2.9h0.7v4.4H67.4L67.4,28.2z"/>
<g class="st9">
	<path class="st12" d="M72.5,26.5c-0.1,0-0.1,0-0.2,0c-0.1,0-0.1,0-0.2,0v1.8h-0.8v-4.5h1.2c0.2,0,0.4,0,0.5,0c0.2,0,0.3,0,0.4,0.1
		c0.3,0.1,0.5,0.2,0.7,0.4s0.2,0.5,0.2,0.8c0,0.2,0,0.4-0.1,0.6c-0.1,0.2-0.2,0.3-0.4,0.4s-0.4,0.2-0.6,0.3
		C73.1,26.5,72.9,26.5,72.5,26.5z M72.1,25.8c0,0,0.1,0,0.2,0c0.1,0,0.1,0,0.2,0c0.2,0,0.4,0,0.5-0.1c0.1,0,0.3-0.1,0.3-0.1
		c0.1-0.1,0.2-0.1,0.2-0.2c0-0.1,0.1-0.2,0.1-0.3c0-0.1,0-0.2-0.1-0.3c-0.1-0.1-0.2-0.2-0.3-0.2c-0.1,0-0.2,0-0.3-0.1
		c-0.1,0-0.2,0-0.4,0h-0.4V25.8z"/>
	<path class="st12" d="M77.2,27.1h-1.6l-0.4,1.1h-0.8l1.7-4.5h0.7l1.7,4.5h-0.8L77.2,27.1z M76.4,24.9c-0.1,0.5-0.3,0.9-0.4,1.2
		l-0.1,0.4H77L76.8,26C76.7,25.7,76.6,25.3,76.4,24.9L76.4,24.9z"/>
	<path class="st12" d="M81.1,24.4c-0.2,0-0.4,0-0.6,0.1c-0.2,0.1-0.3,0.2-0.5,0.3c-0.1,0.1-0.2,0.3-0.3,0.5s-0.1,0.4-0.1,0.7
		c0,0.3,0,0.5,0.1,0.7s0.2,0.4,0.3,0.5c0.1,0.1,0.3,0.2,0.5,0.3c0.2,0.1,0.4,0.1,0.6,0.1c0.2,0,0.3,0,0.5,0c0.2,0,0.3-0.1,0.5-0.1
		v0.7c-0.1,0-0.3,0.1-0.5,0.1c-0.2,0-0.4,0-0.5,0c-0.4,0-0.7-0.1-1-0.2s-0.5-0.3-0.7-0.5c-0.2-0.2-0.3-0.4-0.4-0.7s-0.1-0.6-0.1-0.9
		c0-0.3,0-0.7,0.1-1c0.1-0.3,0.2-0.5,0.4-0.8c0.2-0.2,0.4-0.4,0.7-0.5c0.3-0.1,0.6-0.2,1-0.2c0.2,0,0.4,0,0.5,0
		c0.2,0,0.3,0.1,0.4,0.1v0.7c-0.2-0.1-0.3-0.1-0.5-0.1C81.4,24.4,81.3,24.4,81.1,24.4z"/>
	<path class="st12" d="M82.9,28.3v-4.5h0.8v2h0l1.6-2h1L84.5,26l1.9,2.3h-1l-1.7-2h0v2H82.9z"/>
	<path class="st12" d="M89.4,27.1h-1.6l-0.4,1.1h-0.8l1.7-4.5H89l1.7,4.5h-0.8L89.4,27.1z M88.6,24.9c-0.1,0.5-0.3,0.9-0.4,1.2
		l-0.1,0.4h1.1L89,26C88.9,25.7,88.8,25.3,88.6,24.9L88.6,24.9z"/>
	<path class="st12" d="M93.9,26.6h-1v-0.7h1.7v2.3c-0.1,0-0.1,0.1-0.2,0.1c-0.1,0-0.2,0.1-0.3,0.1c-0.1,0-0.2,0-0.4,0.1
		c-0.1,0-0.3,0-0.4,0c-0.4,0-0.7-0.1-1-0.2c-0.3-0.1-0.5-0.3-0.7-0.5c-0.2-0.2-0.3-0.4-0.4-0.7c-0.1-0.3-0.1-0.6-0.1-0.9
		c0-0.2,0-0.5,0.1-0.7c0-0.2,0.1-0.4,0.2-0.6c0.1-0.2,0.2-0.3,0.4-0.5s0.3-0.3,0.5-0.4c0.2-0.1,0.4-0.2,0.6-0.2
		c0.2-0.1,0.4-0.1,0.7-0.1c0.2,0,0.4,0,0.6,0c0.2,0,0.4,0.1,0.5,0.1v0.7c-0.2-0.1-0.3-0.1-0.5-0.1s-0.3,0-0.5,0
		c-0.2,0-0.5,0-0.7,0.1c-0.2,0.1-0.4,0.2-0.5,0.3c-0.1,0.1-0.3,0.3-0.4,0.5c-0.1,0.2-0.1,0.4-0.1,0.7c0,0.5,0.1,0.9,0.4,1.2
		c0.3,0.3,0.6,0.4,1.1,0.4c0.1,0,0.2,0,0.3,0c0.1,0,0.2,0,0.3,0V26.6z"/>
	<path class="st12" d="M95.6,28.3v-4.5h0.8v4.5H95.6z"/>
	<path class="st12" d="M99.7,25.9c0.3,0.5,0.6,0.9,0.7,1.2h0c0-0.6,0-1,0-1.3v-2h0.8v4.5h-0.8L99,26.2c-0.2-0.4-0.5-0.8-0.8-1.2h0
		c0,0.6,0,1,0,1.3v2h-0.8v-4.5h0.8L99.7,25.9z"/>
	<path class="st12" d="M104.9,26.6h-1v-0.7h1.7v2.3c-0.1,0-0.1,0.1-0.2,0.1c-0.1,0-0.2,0.1-0.3,0.1c-0.1,0-0.2,0-0.4,0.1
		c-0.1,0-0.3,0-0.4,0c-0.4,0-0.7-0.1-1-0.2c-0.3-0.1-0.5-0.3-0.7-0.5c-0.2-0.2-0.3-0.4-0.4-0.7c-0.1-0.3-0.1-0.6-0.1-0.9
		c0-0.2,0-0.5,0.1-0.7c0-0.2,0.1-0.4,0.2-0.6c0.1-0.2,0.2-0.3,0.4-0.5s0.3-0.3,0.5-0.4c0.2-0.1,0.4-0.2,0.6-0.2
		c0.2-0.1,0.4-0.1,0.7-0.1c0.2,0,0.4,0,0.6,0c0.2,0,0.4,0.1,0.5,0.1v0.7c-0.2-0.1-0.3-0.1-0.5-0.1s-0.3,0-0.5,0
		c-0.2,0-0.5,0-0.7,0.1c-0.2,0.1-0.4,0.2-0.5,0.3c-0.1,0.1-0.3,0.3-0.4,0.5c-0.1,0.2-0.1,0.4-0.1,0.7c0,0.5,0.1,0.9,0.4,1.2
		c0.3,0.3,0.6,0.4,1.1,0.4c0.1,0,0.2,0,0.3,0c0.1,0,0.2,0,0.3,0V26.6z"/>
</g>
</svg>
