<?xml version="1.0" encoding="utf-8"?>
<!-- Generator: Adobe Illustrator 23.0.5, SVG Export Plug-In . SVG Version: 6.00 Build 0)  -->
<svg version="1.1" id="Layer_1" xmlns="http://www.w3.org/2000/svg" xmlns:xlink="http://www.w3.org/1999/xlink" x="0px" y="0px"
	 viewBox="0 0 110.8 45.2" style="enable-background:new 0 0 110.8 45.2;" xml:space="preserve">
<style type="text/css">
	.st0{fill:#FDCB0A;}
	.st1{fill:#F38222;}
	.st2{fill:#AE2B31;}
	.st3{fill:#3F3F3F;}
	.st4{fill:#282828;}
</style>
<polygon class="st0" points="533.9,-753.1 650.4,-753.3 839.1,-1002.3 721.3,-1001.5 "/>
<path class="st1" d="M937.6-871.2c-37.7,0.2-75.5,0.4-113.2,0.6c-10.2-13.7-20.4-27.5-30.6-41.2c18.9-25.3,37.9-50.5,56.8-75.8
	C879.7-948.7,908.7-910,937.6-871.2z"/>
<polygon class="st0" points="838.4,-492.1 720.6,-490.1 534.9,-738.9 651.2,-739.7 "/>
<polygon class="st1" points="851.1,-504.9 794.9,-580.3 824.5,-622.2 937.6,-621.2 "/>
<polygon class="st2" points="385.9,-753 504.1,-752.2 662.5,-965.5 544.7,-965.5 "/>
<polygon class="st2" points="663.4,-527 545.1,-526.3 386.7,-738.7 503.4,-739.2 "/>
<g>
	<path class="st3" d="M851.1-823.8h-33.3v86.5h-20.1v-86.5h-33.3v-17.8h86.8V-823.8z"/>
	<path class="st3" d="M951.7-841.6v104.2h-20.1v-44.5h-47.3v44.5h-20.3v-104.2h20.3v42.1h47.3v-42.1H951.7z"/>
	<path class="st3" d="M1045.8-755.1v17.8h-72.4v-104.2h71.1v17.8h-50.8v25.1h43.9v16.4h-43.9v27.2H1045.8z"/>
	<path class="st3" d="M1216.1-764.2c0,4.4-0.9,8.3-2.6,11.6c-1.8,3.3-4.2,6.1-7.3,8.4c-3.1,2.3-6.7,4-10.7,5.1
		c-4.1,1.2-8.4,1.8-13,1.8h-50.4v-104.2h55.8c3.6,0,6.9,0.8,9.8,2.3c2.9,1.6,5.4,3.6,7.5,6.1c2.1,2.5,3.6,5.3,4.8,8.5
		c1.1,3.2,1.7,6.4,1.7,9.6c0,5.1-1.3,9.9-3.8,14.3c-2.5,4.5-6.3,7.8-11.2,9.9c6,1.8,10.7,4.9,14.2,9.5
		C1214.4-776.8,1216.1-771.1,1216.1-764.2z M1152.4-824.3v26.3h27c3.4,0,6.3-1.2,8.7-3.5c2.4-2.3,3.6-5.6,3.6-9.7
		c0-4-1.1-7.2-3.3-9.5c-2.2-2.3-4.9-3.5-8.1-3.5H1152.4z M1195.7-768c0-1.9-0.3-3.6-1-5.4c-0.6-1.7-1.5-3.2-2.6-4.5
		c-1.1-1.3-2.3-2.3-3.8-3c-1.5-0.7-3.1-1.1-4.8-1.1h-31.1v27.5h30.1c1.9,0,3.6-0.3,5.2-1c1.6-0.7,3-1.6,4.2-2.9
		c1.2-1.2,2.1-2.7,2.8-4.3C1195.4-764.4,1195.7-766.2,1195.7-768z"/>
	<path class="st3" d="M1304.4-755.1v17.8H1232v-104.2h71.1v17.8h-50.8v25.1h43.9v16.4h-43.9v27.2H1304.4z"/>
	<path class="st3" d="M1380.1-814.3c-0.7-0.7-1.9-1.6-3.7-2.8c-1.8-1.2-4-2.3-6.6-3.5c-2.6-1.1-5.4-2.1-8.4-2.9
		c-3-0.8-6.1-1.2-9.3-1.2c-5.6,0-9.7,1-12.5,3.1c-2.7,2.1-4.1,4.9-4.1,8.7c0,2.2,0.5,3.9,1.5,5.4c1,1.4,2.5,2.7,4.5,3.7
		c2,1.1,4.4,2.1,7.4,2.9c3,0.9,6.4,1.8,10.4,2.8c5.1,1.4,9.7,2.8,13.9,4.4c4.2,1.6,7.7,3.5,10.6,5.9c2.9,2.3,5.1,5.2,6.7,8.4
		c1.6,3.3,2.3,7.3,2.3,12.1c0,5.6-1.1,10.4-3.2,14.3c-2.1,4-4.9,7.2-8.5,9.6c-3.6,2.4-7.7,4.2-12.3,5.4c-4.7,1.1-9.5,1.7-14.6,1.7
		c-7.8,0-15.6-1.2-23.2-3.5c-7.6-2.3-14.5-5.7-20.6-10l9-17.5c0.9,0.9,2.5,2,4.8,3.5c2.3,1.4,5,2.8,8.1,4.3
		c3.1,1.4,6.6,2.6,10.4,3.6c3.8,1,7.7,1.5,11.7,1.5c11.2,0,16.7-3.6,16.7-10.7c0-2.3-0.6-4.2-1.9-5.7c-1.3-1.6-3.1-2.9-5.4-4.1
		c-2.3-1.2-5.2-2.3-8.5-3.2c-3.3-1-7-2.1-11.2-3.2c-5-1.4-9.3-2.9-13-4.5c-3.7-1.6-6.7-3.5-9.2-5.7c-2.4-2.2-4.3-4.7-5.5-7.6
		c-1.2-2.9-1.8-6.3-1.8-10.4c0-5.3,1-10,2.9-14.1c2-4.1,4.7-7.5,8.1-10.3c3.5-2.7,7.5-4.8,12.1-6.2c4.6-1.4,9.5-2.1,14.8-2.1
		c7.3,0,14.1,1.2,20.3,3.5c6.2,2.3,11.5,5,16.2,8.1L1380.1-814.3z"/>
	<path class="st3" d="M1485.3-823.8h-33.3v86.5h-20.1v-86.5h-33.3v-17.8h86.8V-823.8z"/>
</g>
<rect x="765.6" y="-729.1" class="st0" width="372.9" height="89.7"/>
<g>
	<g>
		<path class="st2" d="M791.6-684.2c0-3.7,0.6-7.3,1.8-10.8c1.2-3.6,2.9-6.8,5.2-9.6c2.3-2.8,5.1-5.1,8.4-6.8
			c3.3-1.7,7.1-2.6,11.3-2.6c5,0,9.3,1.2,13,3.6c3.7,2.4,6.4,5.6,8.2,9.4l-8.1,6.2c-0.7-1.7-1.6-3.1-2.6-4.3c-1-1.2-2.1-2.1-3.3-2.7
			c-1.2-0.7-2.4-1.2-3.7-1.5c-1.3-0.3-2.5-0.5-3.8-0.5c-2.7,0-5,0.6-6.9,1.8c-2,1.2-3.6,2.7-4.9,4.6c-1.3,1.9-2.3,4-2.9,6.4
			c-0.7,2.4-1,4.8-1,7.1c0,2.6,0.4,5.2,1.1,7.6s1.9,4.6,3.3,6.4c1.4,1.9,3.1,3.3,5.1,4.5c2,1.1,4.1,1.7,6.5,1.7
			c1.2,0,2.5-0.2,3.8-0.5c1.3-0.3,2.6-0.9,3.8-1.6c1.2-0.7,2.3-1.7,3.3-2.8c1-1.2,1.8-2.5,2.5-4.2l8.7,5.5c-0.9,2.2-2.1,4.2-3.7,5.9
			c-1.6,1.7-3.4,3.2-5.4,4.3c-2,1.2-4.2,2.1-6.5,2.7c-2.3,0.6-4.5,0.9-6.7,0.9c-3.9,0-7.4-0.9-10.6-2.7c-3.2-1.8-6-4.1-8.3-7
			c-2.3-2.9-4.1-6.2-5.4-9.9C792.2-676.6,791.6-680.4,791.6-684.2z"/>
		<path class="st2" d="M870.4-663.7c2.5,0,4.6-0.6,6.3-1.7c1.7-1.1,3.1-2.6,4.1-4.4c1-1.8,1.8-3.9,2.2-6.2c0.4-2.3,0.7-4.7,0.7-7.2
			v-30.5h10.5v30.5c0,4.1-0.4,7.9-1.3,11.5c-0.9,3.6-2.3,6.7-4.2,9.4s-4.4,4.8-7.4,6.4c-3,1.6-6.6,2.4-10.8,2.4
			c-4.3,0-8-0.8-11.1-2.5c-3-1.7-5.5-3.8-7.4-6.6c-1.9-2.7-3.3-5.9-4.1-9.5c-0.8-3.6-1.3-7.3-1.3-11.2v-30.5h10.6v30.5
			c0,2.5,0.2,5,0.7,7.3c0.4,2.3,1.2,4.4,2.2,6.2c1,1.8,2.4,3.2,4.1,4.3S868-663.7,870.4-663.7z"/>
		<path class="st2" d="M937.3-698c-0.4-0.4-1-0.9-2-1.6c-0.9-0.7-2.1-1.3-3.4-2c-1.4-0.6-2.8-1.2-4.4-1.6c-1.6-0.4-3.2-0.7-4.8-0.7
			c-2.9,0-5.1,0.6-6.5,1.8c-1.4,1.2-2.1,2.8-2.1,5c0,1.2,0.3,2.3,0.8,3.1c0.5,0.8,1.3,1.5,2.3,2.1c1,0.6,2.3,1.2,3.9,1.7
			c1.6,0.5,3.4,1,5.4,1.6c2.7,0.8,5.1,1.6,7.2,2.5c2.2,0.9,4,2,5.5,3.4c1.5,1.3,2.7,3,3.5,4.8c0.8,1.9,1.2,4.2,1.2,7
			c0,3.2-0.5,5.9-1.6,8.2c-1.1,2.3-2.6,4.1-4.4,5.5c-1.9,1.4-4,2.4-6.4,3.1c-2.4,0.6-5,1-7.6,1c-4.1,0-8.1-0.7-12.1-2
			c-4-1.3-7.6-3.3-10.7-5.7l4.7-10c0.5,0.5,1.3,1.2,2.5,2c1.2,0.8,2.6,1.6,4.3,2.4c1.6,0.8,3.4,1.5,5.4,2.1c2,0.6,4,0.8,6.1,0.8
			c5.8,0,8.7-2,8.7-6.2c0-1.3-0.3-2.4-1-3.3c-0.7-0.9-1.6-1.7-2.8-2.4c-1.2-0.7-2.7-1.3-4.4-1.9c-1.7-0.6-3.7-1.2-5.8-1.9
			c-2.6-0.8-4.9-1.6-6.8-2.6c-1.9-0.9-3.5-2-4.8-3.3c-1.3-1.3-2.2-2.7-2.9-4.4c-0.6-1.7-1-3.6-1-5.9c0-3,0.5-5.7,1.5-8.1
			c1-2.4,2.4-4.3,4.3-5.9c1.8-1.6,3.9-2.8,6.3-3.6c2.4-0.8,5-1.2,7.7-1.2c3.8,0,7.4,0.7,10.6,2c3.2,1.3,6,2.9,8.4,4.7L937.3-698z"/>
		<path class="st2" d="M992.2-703.5h-17.4v49.6h-10.5v-49.6h-17.4v-10.2h45.3V-703.5z"/>
		<path class="st2" d="M1019.6-653.4c-4,0-7.6-0.9-10.8-2.6c-3.2-1.7-6-4-8.4-6.8c-2.3-2.8-4.1-6.1-5.4-9.7
			c-1.3-3.7-1.9-7.4-1.9-11.2c0-4,0.7-7.8,2-11.5c1.4-3.7,3.2-6.9,5.6-9.7c2.4-2.8,5.2-5,8.5-6.7c3.3-1.7,6.8-2.5,10.6-2.5
			c3.9,0,7.5,0.9,10.8,2.7c3.2,1.8,6,4.1,8.3,7c2.3,2.9,4.1,6.1,5.4,9.8c1.3,3.7,1.9,7.4,1.9,11.1c0,4-0.7,7.8-2,11.4
			c-1.3,3.6-3.2,6.8-5.5,9.6c-2.3,2.8-5.2,5-8.4,6.7C1027-654.3,1023.4-653.4,1019.6-653.4z M1003.8-683.8c0,2.6,0.4,5.1,1.1,7.5
			c0.7,2.4,1.7,4.5,3.1,6.4s3,3.3,5,4.5c2,1.1,4.2,1.7,6.7,1.7c2.6,0,4.8-0.6,6.8-1.7c2-1.2,3.6-2.7,5-4.6c1.4-1.9,2.4-4.1,3.1-6.4
			c0.7-2.4,1-4.8,1-7.3c0-2.6-0.4-5.1-1.1-7.5c-0.7-2.4-1.8-4.5-3.1-6.4c-1.4-1.9-3-3.3-5-4.4c-2-1.1-4.2-1.6-6.6-1.6
			c-2.6,0-4.8,0.6-6.8,1.7c-2,1.2-3.7,2.7-5,4.5c-1.3,1.9-2.3,4-3,6.4C1004.1-688.7,1003.8-686.2,1003.8-683.8z"/>
		<path class="st2" d="M1098.6-653.8v-39.6l-14,29.5h-5.7l-14-29.5v39.6h-10.6v-59.8h11.3l16.1,34l16.2-34h11.3v59.8H1098.6z"/>
	</g>
</g>
<g>
	<g>
		<path class="st4" d="M986.6-575.5c0,1-0.1,1.4-0.4,1.4c-0.3,0-0.3-0.1-0.3-0.4c0.1-0.2,0.1-0.4,0.1-0.6c0-0.9-0.9-1.7-2.6-2.4
			c-2.8-1.1-6.5-1.6-11.1-1.6c-4.9,0-9.3,0.6-12.9,1.9c-1.2,0.4-2.2,0.8-3,1.1c-1.3,0.5-2.4,0.7-3.1,0.7c-1.2,0-1.8-0.5-1.8-1.4
			c0-1.7,1.4-3.2,4.2-4.5c3-1.3,7.1-2,12.1-2c7.7,0,13.1,1.1,16.3,3.4C985.8-578.7,986.6-577.3,986.6-575.5z M997.9-608.1
			c0,3.1-2.2,6.1-6.5,8.9c-1.7,1.1-3.6,2.1-5.7,2.9c-5,2-9.7,3-14.1,3c-1.7,0-3-0.1-3.9-0.3c-0.2,0.3-0.6,0.9-1.1,1.8
			c-0.5,0.9-0.9,1.6-1.1,1.9c-0.2,0.3-0.5,0.9-1,1.6c-0.4,0.7-0.8,1.3-1,1.6c-0.8,1.1-1.5,2-2.2,2.8c-1.1,1.2-2.6,1.8-4.5,1.8
			c-0.4,0-0.8-0.1-1.3-0.2c-0.5-0.2-0.8-0.3-0.8-0.5c-0.1-0.2-0.1-0.3-0.1-0.3s0.1,0,0.2,0.1c0.1,0.1,0.4,0.1,0.7,0.1
			c0.4,0,0.8,0,1.4-0.1c1.3-0.2,2.7-1.1,4.2-2.6c0.9-1,2.7-3.6,5.5-8c-2.7-0.6-4.3-1.7-4.8-3.4c-0.1-0.2,0-0.4,0-0.4
			c0.1,0,0.2,0.1,0.2,0.2c0.4,0.6,1.6,1,3.6,1c0.7,0,1.6,0,2.5-0.1h0.1c2-3,4-5.7,6-8s4.2-4.2,6.4-5.5c3.6-2.2,7.2-3.3,10.7-3.3
			c1.7,0,3,0.3,3.9,0.8C997-611.3,997.9-609.9,997.9-608.1z M993.9-607.9c0.4-0.7,0.5-1.4,0.5-2.1c0-1.6-1.7-2.4-5-2.4
			c-0.6,0-1.7,0.2-3.3,0.7c-1.6,0.5-3.2,1.1-4.8,2c-3.8,2.2-7.8,6.6-11.9,13.1c4.1-0.6,8.7-1.8,13.6-3.8
			C988.8-602.7,992.4-605.2,993.9-607.9z"/>
		<path class="st4" d="M998-586.3c1.7-1,2.5-2.1,2.5-3.1c0-1.1-0.6-1.6-1.7-1.6c-0.5,0-1.1,0.2-1.7,0.5c-1.3,0.7-2.6,1.8-3.9,3.5
			c-1.5,2-2.3,3.9-2.3,5.7c0,0.7,0.2,1.3,0.5,1.9c0.3,0.6,0.9,0.9,1.8,0.9c1.5,0,3.4-0.9,5.7-2.6c2.3-1.7,4.3-3.5,6-5.3
			c0.4-0.4,0.6-0.4,0.6-0.1c0,0.2-0.1,0.5-0.3,0.6c-1.2,1.2-2,2-2.4,2.4c-0.4,0.4-1.2,1.1-2.4,2.2c-1.2,1-2.1,1.8-2.9,2.2
			c-2.3,1.3-4.2,2-5.8,2s-2.8-0.4-3.8-1.2c-0.9-0.8-1.4-1.9-1.4-3.3c0-3,1.2-5.6,3.7-7.7c2.4-2.2,5-3.3,7.6-3.3c1.8,0,3,0.4,3.6,1.3
			c0.3,0.4,0.4,0.9,0.4,1.3c0,0.5-0.1,1-0.4,1.6c-0.6,1.1-1.7,2.1-3.2,2.9c-1.6,0.8-3.1,1.2-4.5,1.2c-0.5,0-0.8-0.1-0.9-0.2
			c0-0.1,0-0.2,0.1-0.2c0.1-0.1,0.3-0.1,0.5-0.1C994.8-584.8,996.3-585.3,998-586.3z"/>
		<path class="st4" d="M1011.9-596.2c0.7-1.2,1.3-2.1,1.7-2.8s0.8-1.2,1-1.5c0.3-0.3,0.8-0.6,1.7-0.8c0.9-0.2,1.8-0.3,2.6-0.3
			s1.3,0.1,1.3,0.3c0,0.2-0.7,1-2.1,2.5c-1.4,1.4-3,3.4-4.8,5.8c2.2,0.4,3.6,1.1,4.3,2.3c0.3,0.5,0.3,0.8,0.1,1
			c-0.2,0.1-0.4,0.1-0.6-0.2c-0.7-0.7-1.7-1.1-3.2-1.1c-0.6,0-1.4,0.1-2.2,0.2c-2.6,3.7-4.2,6.7-4.9,9c-0.2,0.7-0.3,1.2-0.3,1.7
			c0,1.2,0.5,1.9,1.4,1.9c1,0,2.4-0.8,4.2-2.3c2.3-1.9,4.4-3.9,6.1-5.8c0.3-0.4,0.5-0.5,0.6-0.3c0.1,0.2,0,0.4-0.2,0.7
			c-2.8,3.2-5.1,5.5-6.9,7s-3.6,2.2-5.2,2.2c-2.1,0-3.2-1.3-3.2-3.8c0-1.2,0.3-2.6,0.9-4.3l-0.9,0.9c-0.3,0.3-0.4,0.4-0.6,0.2
			c-0.1-0.1-0.2-0.2-0.2-0.3c0-0.1,0.1-0.3,0.4-0.5c2.3-2.3,3.9-4,4.8-5.1c-0.6,0.2-1,0.3-1.2,0.1c-0.2-0.2-0.4-0.5-0.4-0.8
			c-0.1-0.4,0.1-0.8,0.5-1.3c0.4-0.5,1-0.9,1.8-1.1c0.8-0.2,1.4-0.4,1.8-0.4C1010.6-594,1011.2-595,1011.9-596.2z"/>
		<path class="st4" d="M1022.3-600.5c0.8,0,1.4,0.2,1.6,0.7c0.3,0.5,0.4,1,0.4,1.6s-0.2,1.4-0.7,2.6c-0.4,1.2-1.3,2.4-2.6,3.6
			c-1.4,1.3-2.8,2-4.1,2c-0.1,0-0.2-0.1-0.2-0.2s0.1-0.2,0.2-0.2c1.4-0.1,2.6-0.9,3.8-2.2s1.8-2.8,2-4.3c-0.7,1-1.6,1.5-2.7,1.5
			c-0.4,0-0.7-0.1-0.9-0.4c-0.2-0.2-0.4-0.5-0.4-0.8c0-1,0.4-1.8,1.1-2.6C1020.7-600,1021.5-600.5,1022.3-600.5z"/>
		<path class="st4" d="M1021-580.9c0,0,0-0.1,0-0.2s0.1-0.1,0.2-0.1s0.2,0.1,0.2,0.2c0.6,1.4,1.5,2.1,2.8,2.1c1.6,0,3.1-0.9,4.3-2.6
			c0.9-1.3,1.7-2.7,2.4-4.1s1.3-2.6,1.7-3.4c0.5-0.8,1.2-1.8,2.2-2.9c1-1.1,1.9-1.7,2.7-2c-0.2-0.1-0.5-0.2-1-0.2
			c-0.5,0-1.3,0.4-2.5,1.1s-2.5,1.6-3.7,2.8c-1.2,1.1-2.5,2.4-3.9,3.8s-2.3,2.2-2.5,2.5c-0.3,0.2-0.5,0.2-0.5,0
			c-0.1-0.2,0-0.5,0.2-0.7c0.8-0.8,2-2,3.6-3.6c1.6-1.6,2.8-2.8,3.6-3.6c0.8-0.8,1.7-1.4,2.8-2c1-0.5,1.8-0.8,2.3-0.8
			c1.3,0,2.1,0.2,2.4,0.7c-0.8,0.4-1.5,1.4-2,3.1c-0.5,1.7-1.1,3.6-1.8,5.8c-0.7,2.2-1.5,3.9-2.5,5.1c0.8-0.4,2.1-1.2,3.9-2.5
			c1.7-1.3,3.3-2.7,4.6-4.2c0.3-0.3,0.5-0.3,0.6-0.1c0,0.1,0,0.2,0,0.2c0,0.1-0.3,0.5-0.9,1.1c-0.6,0.7-1.4,1.4-2.2,2.2
			c-0.9,0.8-2,1.8-3.3,2.8c-2.7,2.1-5.5,3.2-8.2,3.2C1023.5-577.1,1021.8-578.4,1021-580.9z"/>
		<path class="st4" d="M1082.4-607.8c0.3,0,0.4,0.1,0.4,0.3c0,0.2-0.2,0.6-0.5,1.2c-2.6,3.8-5.4,8.2-8.3,13.2c1.5,0.1,3,0.3,4.5,0.6
			c4.8,1.1,7.2,2.8,7.2,5.1c0,0.1,0,0.2-0.1,0.2c-0.1,0-0.1-0.1-0.2-0.3c-0.3-0.9-2.1-1.5-5.3-1.8c-1-0.1-2.1-0.2-3.5-0.2
			c-1.4,0-3,0.1-5,0.3c-4.7,8.3-7.9,14.5-9.5,18.6c-0.2,0.4-0.3,0.6-0.5,0.6s-0.2-0.2-0.2-0.5c0-1.8,2.9-7.9,8.8-18.5
			c-1.9,0.3-3.2,0.5-4.1,0.7c-5.6,1.1-9.4,2.8-11.2,5.1c-0.5,0.7-0.8,1.4-0.8,2.1s0.3,1.2,1,1.8c0.2,0.1,0.2,0.2-0.1,0.2l-0.4-0.2
			c-1.4-1.2-2.1-2.5-2.1-4.1c0-1.5,0.7-3,2-4.4c1.9-2.1,5.2-3.6,9.9-4.5c2.8-0.5,5.4-0.8,7.8-0.8c0.1,0,0.3,0,0.4,0
			c5.6-9.7,8.7-14.5,9.3-14.5L1082.4-607.8z M1101.6-612.7c0.3,0,0.5,0.1,0.5,0.3c0,0.2-0.2,0.6-0.5,1.2c-3.4,4.9-7.1,10.9-11,17.9
			c-3.9,7-6.6,12.5-8.2,16.4c-0.3,0.6-0.5,0.7-0.6,0.4c0-0.1,0-0.3,0-0.6c0-1.4,1.7-5.4,5.2-11.8c3.5-6.5,6.6-12,9.5-16.7
			s4.4-7,4.8-7L1101.6-612.7z"/>
		<path class="st4" d="M1108.1-586.2c-0.4,0.5-0.7,1-1.1,1.5c-0.4,0.5-0.8,1.3-1.4,2.2c-0.6,0.9-0.8,1.7-0.8,2.3s0.2,1,0.7,1
			c0.5,0,1.3-0.3,2.4-1c2.2-1.4,4.7-3.5,7.5-6.3c0.3-0.4,0.5-0.4,0.6-0.2c0,0,0,0.1,0,0.2s-0.1,0.2-0.2,0.4c-5.5,5.7-9.5,8.6-12,8.6
			c-0.7,0-1.4-0.3-1.9-0.8c-0.5-0.5-0.7-1.2-0.7-1.9s0.3-1.9,0.9-3.4c-1.4,2-3,3.5-4.6,4.6s-2.9,1.6-3.9,1.6s-1.7-0.3-2.4-0.9
			c-0.7-0.6-1-1.4-1-2.3c0-2.6,1.1-5.2,3.2-7.7c1.6-1.9,3.6-3.2,6-4c1.1-0.4,2.1-0.6,3.1-0.6s2,0.3,2.9,0.9c0.9,0.6,1.5,1.3,1.8,2.2
			c1,0,1.7,0.4,2.1,1.2c0.1,0.1,0.1,0.3,0.1,0.5c0,0.2-0.1,0.5-0.4,0.8C1108.7-587,1108.4-586.6,1108.1-586.2z M1104.6-591.4
			c-0.7,0-1.5,0.2-2.4,0.7c-1.6,0.8-3.2,2.1-4.7,4c-2.3,3-3.5,5.3-3.5,6.7c0,0.7,0.3,1.1,0.8,1.1c0.4,0,1.2-0.3,2.2-1
			c1-0.6,2.4-1.9,4.1-3.8c0.1-0.1,0.5-0.5,1.1-1.2c0.6-0.7,1.2-1.3,1.6-1.7c1.5-1.7,2.3-3,2.3-3.7
			C1106.2-591,1105.6-591.4,1104.6-591.4z"/>
		<path class="st4" d="M1131.9-593.7c0,0.1,0,0.1,0,0.2c0,0.1-0.1,0.1-0.2,0.1c-0.1,0-0.2-0.1-0.2-0.2c-0.2-0.5-0.5-0.8-0.9-0.8
			c-1.2,0-3.2,2.6-6.2,7.8c-1.9,3.3-3.4,5.7-4.7,7c-0.6,0.7-1.4,1.2-2.3,1.5c-0.9,0.3-1.5,0.4-1.9,0.4s-0.7-0.1-0.9-0.2
			c0.5-0.8,1.1-2.1,1.6-3.9s1-3.4,1.3-4.8c0.3-1.4,0.4-2.1,0.4-2.1l-2,2.2c-1,1.2-2.1,2.2-3.1,3.1c-0.4,0.4-0.6,0.3-0.6-0.1
			c0-0.2,0.1-0.4,0.3-0.6c0.2-0.2,0.5-0.5,0.9-0.9c0.4-0.4,0.7-0.7,0.9-0.9c0.1-0.1,0.4-0.4,0.8-0.8c0.4-0.4,0.7-0.7,0.9-1
			c0.9-1.2,1.6-2.2,2-3c0.2-0.4,0.2-0.8,0.2-1.2c0-0.4-0.1-0.7-0.2-0.8c-0.1-0.1-0.2-0.3-0.2-0.5c0-0.4,0.3-0.5,0.8-0.3
			c1.1,0.6,1.7,1.4,1.8,2.4c0.1,0.5,0.1,1.3,0.1,2.2c0,0.9-0.2,2.4-0.5,4.4c-0.3,2-0.9,3.8-1.8,5.3c1.4-1,3.1-3.6,5-7.6
			c1.9-4.1,3.3-6.7,4.4-7.8c0.4-0.5,1-0.7,1.7-0.7C1130.8-595.3,1131.6-594.8,1131.9-593.7z"/>
		<path class="st4" d="M1139.5-586.3c1.7-1,2.5-2.1,2.5-3.1c0-1.1-0.6-1.6-1.7-1.6c-0.5,0-1.1,0.2-1.7,0.5c-1.3,0.7-2.6,1.8-3.9,3.5
			c-1.5,2-2.3,3.9-2.3,5.7c0,0.7,0.2,1.3,0.5,1.9c0.3,0.6,0.9,0.9,1.8,0.9c1.5,0,3.4-0.9,5.7-2.6c2.3-1.7,4.3-3.5,6-5.3
			c0.4-0.4,0.6-0.4,0.6-0.1c0,0.2-0.1,0.5-0.3,0.6c-1.2,1.2-2,2-2.4,2.4c-0.4,0.4-1.2,1.1-2.4,2.2c-1.2,1-2.1,1.8-2.9,2.2
			c-2.3,1.3-4.2,2-5.8,2s-2.8-0.4-3.8-1.2c-0.9-0.8-1.4-1.9-1.4-3.3c0-3,1.2-5.6,3.7-7.7c2.4-2.2,5-3.3,7.6-3.3c1.8,0,3,0.4,3.6,1.3
			c0.3,0.4,0.4,0.9,0.4,1.3c0,0.5-0.1,1-0.4,1.6c-0.6,1.1-1.7,2.1-3.2,2.9c-1.6,0.8-3.1,1.2-4.5,1.2c-0.5,0-0.8-0.1-0.9-0.2
			c0-0.1,0-0.2,0.1-0.2c0.1-0.1,0.3-0.1,0.5-0.1C1136.3-584.8,1137.8-585.3,1139.5-586.3z"/>
		<path class="st4" d="M1199-604.8c0-1.7-1.8-2.8-5.3-3.4c-2.1-0.4-4.4-0.5-7-0.5s-5.6,0.2-8.7,0.5c-7.9,0.9-13.7,2.2-17.3,3.8
			c-2.9,1.3-3.7,2.7-2.3,4.2c0.2,0.2,0.1,0.3-0.1,0.3s-0.4-0.1-0.6-0.3c-0.5-0.6-0.8-1.3-0.8-2.1c0-0.8,0.2-1.6,0.5-2.3
			s0.9-1.5,1.7-2.2c0.8-0.8,1.8-1.4,2.9-1.9c3.4-1.5,7.4-2.5,12-3.2c2.7-0.4,5-0.5,7-0.5c5.8,0,10.6,0.8,14.4,2.4
			c2.5,1.1,4.1,2.3,4.7,3.5c0.4,0.6,0.5,1.3,0.5,1.9s-0.2,1.3-0.5,2c-0.4,0.6-0.9,1-1.3,1.1c-0.5,0.1-0.7,0-0.7-0.3
			c0.1-0.3,0.3-0.8,0.6-1.3C1198.8-603.8,1199-604.3,1199-604.8z M1170.7-580.7c-0.2,1.6-0.3,2.7-0.3,3.3c0,2,0.6,3.1,1.7,3.4
			c0.2,0.1,0.3,0.1,0.5,0.1l1.3-0.6c0.3-0.2,0.4-0.3,0.4-0.1s-0.1,0.3-0.3,0.5c-0.5,0.5-1.2,0.7-2,0.7c-0.2,0-0.3,0-0.5,0
			c-2.9-0.2-4.3-2-4.3-5.4c0-1.8,0.4-3.9,1.1-6.2s1.8-4.7,3.3-7.1c1.4-2.4,4.6-7.4,9.4-14.8c0.4-0.6,0.7-0.8,0.9-0.8
			c0.2,0,0.4,0.1,0.5,0.2c0.1,0.1,0.1,0.2,0.1,0.3c0,0.1,0,0.2,0,0.3C1175.6-595.9,1171.7-587.1,1170.7-580.7z"/>
		<path class="st4" d="M1191.7-590.9c0-0.5-0.3-0.7-0.9-0.7c-1.1,0-2.4,0.8-4,2.5c-0.4,0.4-1.1,1.3-2.1,2.6c-1,1.3-2,2.9-3,4.6
			l-1.2,2.9l0.1-0.5c-0.1,0.1-0.1,0.4-0.2,0.6c-0.2,0.4-0.6,0.8-1.4,1.1c-0.2,0.1-0.3,0.1-0.4,0.1c-0.3,0-0.4-0.3-0.1-0.8
			c0.1-0.4,0.6-1.6,1.3-3.8c0.8-2.2,1.4-3.9,1.9-5.2c-1.3,1.5-2.4,2.8-3.5,3.7c-0.3,0.3-0.5,0.3-0.7,0.1c0,0,0-0.1,0-0.2
			c0-0.1,0.1-0.3,0.4-0.6c2-1.9,3.5-3.6,4.6-5.2c0.8-2.2,2.4-5.1,4.6-9c2.2-3.8,4.5-7,6.9-9.5c1.6-1.7,3.3-2.9,5.1-3.5
			c0.8-0.3,1.6-0.4,2.3-0.4c0.7,0,1.4,0.2,2,0.7s0.9,1.3,0.9,2.5c0,1.6-0.5,3.2-1.4,4.8s-2.7,3.4-5.1,5.4c-2.4,2-4.7,3.5-6.8,4.5
			c-0.4,0.2-0.6,0.2-0.7-0.1s0.1-0.4,0.5-0.6c1.9-0.9,4-2.4,6.3-4.3c2.3-2,3.9-3.7,4.7-5.1c0.8-1.4,1.2-2.5,1.2-3.4s-0.3-1.3-1-1.3
			c-0.8,0-2,0.7-3.7,2.1c-2.5,2.2-5.1,5.2-7.8,9.2c-2.7,3.9-5,7.9-7,11.8c0.9-1.4,1.7-2.6,2.5-3.5c1.8-2.2,3.5-3.3,5.2-3.3
			c1.6,0,2.5,0.8,2.8,2.3c0,0.2,0,0.5,0,0.9c0,0.4-0.1,1-0.4,1.7s-0.9,2.2-2,4.2c-1.1,2-1.7,3.3-1.7,3.7c0,0.4,0.1,0.6,0.4,0.6
			c0.4,0,0.9-0.2,1.6-0.7c1.8-1.2,4.1-3.3,7-6.2c0.4-0.4,0.6-0.5,0.6-0.2c0,0.3-0.1,0.5-0.3,0.8c-2.4,2.7-4.8,4.9-7.4,6.7
			c-1.2,0.8-2.3,1.3-3.2,1.3c-0.3,0-0.5,0-0.7-0.1c-1.3-0.3-1.9-1-1.9-2.3c0-1.3,0.4-2.7,1.3-4.2c0.2-0.2,0.8-1.1,1.8-2.5
			C1190.9-588.8,1191.7-590.2,1191.7-590.9z"/>
		<path class="st4" d="M1208.9-586.3c1.7-1,2.5-2.1,2.5-3.1c0-1.1-0.6-1.6-1.7-1.6c-0.5,0-1.1,0.2-1.7,0.5c-1.3,0.7-2.6,1.8-3.9,3.5
			c-1.5,2-2.3,3.9-2.3,5.7c0,0.7,0.2,1.3,0.5,1.9c0.3,0.6,0.9,0.9,1.8,0.9c1.5,0,3.4-0.9,5.7-2.6c2.3-1.7,4.3-3.5,6-5.3
			c0.4-0.4,0.6-0.4,0.6-0.1c0,0.2-0.1,0.5-0.3,0.6c-1.2,1.2-2,2-2.4,2.4c-0.4,0.4-1.2,1.1-2.4,2.2c-1.2,1-2.1,1.8-2.9,2.2
			c-2.3,1.3-4.2,2-5.8,2s-2.8-0.4-3.8-1.2c-0.9-0.8-1.4-1.9-1.4-3.3c0-3,1.2-5.6,3.7-7.7c2.4-2.2,5-3.3,7.6-3.3c1.8,0,3,0.4,3.6,1.3
			c0.3,0.4,0.4,0.9,0.4,1.3c0,0.5-0.1,1-0.4,1.6c-0.6,1.1-1.7,2.1-3.2,2.9c-1.6,0.8-3.1,1.2-4.5,1.2c-0.5,0-0.8-0.1-0.9-0.2
			c0-0.1,0-0.2,0.1-0.2c0.1-0.1,0.3-0.1,0.5-0.1C1205.7-584.8,1207.2-585.3,1208.9-586.3z"/>
		<path class="st4" d="M1244.6-596.2c1.2-0.1,2.4-0.2,3.8-0.2s2.8,0.2,4.4,0.6s2.9,1.1,3.8,2.2c1,1.1,1.5,2.4,1.5,3.8
			s-0.4,2.8-1.1,4.3c-0.7,1.4-1.8,2.8-3.2,4.3c-4.2,4.2-9.6,6.3-16.2,6.3c-1.8,0-3.3-0.2-4.7-0.6c-1.4-0.4-2.3-0.8-2.7-1.1
			c-0.4-0.3-0.9-0.7-1.5-1.2c-0.6-0.5-0.7-0.8-0.4-0.8c0.2,0,0.6,0.2,1.4,0.5c0.8,0.3,2.3,0.5,4.4,0.5s4.5-0.3,7-0.8
			c2.5-0.5,4.6-1.4,6.3-2.5c1.8-1.1,3.2-2.3,4.2-3.7c1.3-1.7,1.9-3.3,1.9-5c0-0.9-0.2-1.9-0.7-2.8s-1.3-1.7-2.7-2.2
			c-1.3-0.5-2.5-0.8-3.6-0.8c-1.1,0-2.3,0.1-3.6,0.2c-1.4,0.1-3.1,0.6-5.2,1.4c-2.1,0.8-3.5,1.8-4.2,2.9c-0.7,1.1-1.3,2.2-1.8,3.1
			c-0.5,1-1,2-1.5,3.1c-0.5,1.1-0.9,1.9-1.2,2.5c-0.2,0.5-0.4,0.7-0.7,0.7s-0.4-0.1-0.4-0.4c0-1.2,1.2-3.9,3.7-8.1
			c2.5-4.2,4.9-8,7.1-11.2c2.3-3.3,3.6-4.9,4-4.9c0.2,0,0.4,0.1,0.5,0.3c0.1,0.2,0.2,0.4,0.1,0.6c-4,5.5-6.4,8.9-7.2,10
			c11.7-2.2,18.9-5.2,21.4-9.3c0.4-0.7,0.6-1.3,0.6-1.9s-0.3-1.2-0.8-1.7c-1-1-2.9-1.5-5.7-1.5s-6.5,0.7-11.1,2.1
			c-4.6,1.4-7.8,3-9.5,4.7c-0.5,0.5-0.7,0.8-0.6,1.1c0.2,0.3,0.2,0.5,0.1,0.5c-0.1,0-0.2,0-0.4-0.2c-0.7-0.4-1.1-1-1.3-1.6
			s-0.3-1.1-0.3-1.4c0-0.3,0.1-0.5,0.2-0.7c1.4-2.2,4.6-4.1,9.6-5.8c5-1.7,8.9-2.6,11.5-2.6c5.3,0,8.7,1,10.1,3
			c0.5,0.8,0.8,1.6,0.8,2.5c0,1.4-0.7,2.8-2.1,4.3C1255.4-600.2,1250.7-597.8,1244.6-596.2z"/>
		<path class="st4" d="M1269.1-586.3c1.7-1,2.5-2.1,2.5-3.1c0-1.1-0.6-1.6-1.7-1.6c-0.5,0-1.1,0.2-1.7,0.5c-1.3,0.7-2.6,1.8-3.9,3.5
			c-1.5,2-2.3,3.9-2.3,5.7c0,0.7,0.2,1.3,0.5,1.9c0.3,0.6,0.9,0.9,1.8,0.9c1.5,0,3.4-0.9,5.7-2.6c2.3-1.7,4.3-3.5,6-5.3
			c0.4-0.4,0.6-0.4,0.6-0.1c0,0.2-0.1,0.5-0.3,0.6c-1.2,1.2-2,2-2.4,2.4c-0.4,0.4-1.2,1.1-2.4,2.2c-1.2,1-2.1,1.8-2.9,2.2
			c-2.3,1.3-4.2,2-5.8,2s-2.8-0.4-3.8-1.2c-0.9-0.8-1.4-1.9-1.4-3.3c0-3,1.2-5.6,3.7-7.7c2.4-2.2,5-3.3,7.6-3.3c1.8,0,3,0.4,3.6,1.3
			c0.3,0.4,0.4,0.9,0.4,1.3c0,0.5-0.1,1-0.4,1.6c-0.6,1.1-1.7,2.1-3.2,2.9c-1.6,0.8-3.1,1.2-4.5,1.2c-0.5,0-0.8-0.1-0.9-0.2
			c0-0.1,0-0.2,0.1-0.2c0.1-0.1,0.3-0.1,0.5-0.1C1265.9-584.8,1267.4-585.3,1269.1-586.3z"/>
		<path class="st4" d="M1271.6-580.9c0,0,0-0.1,0-0.2s0.1-0.1,0.2-0.1s0.2,0.1,0.2,0.2c0.6,1.4,1.5,2.1,2.8,2.1
			c1.6,0,3.1-0.9,4.3-2.6c0.9-1.3,1.7-2.7,2.4-4.1s1.3-2.6,1.7-3.4c0.5-0.8,1.2-1.8,2.2-2.9c1-1.1,1.9-1.7,2.7-2
			c-0.2-0.1-0.5-0.2-1-0.2c-0.5,0-1.3,0.4-2.5,1.1s-2.5,1.6-3.7,2.8c-1.2,1.1-2.5,2.4-3.9,3.8s-2.3,2.2-2.5,2.5
			c-0.3,0.2-0.5,0.2-0.5,0c-0.1-0.2,0-0.5,0.2-0.7c0.8-0.8,2-2,3.6-3.6c1.6-1.6,2.8-2.8,3.6-3.6c0.8-0.8,1.7-1.4,2.8-2
			c1-0.5,1.8-0.8,2.3-0.8c1.3,0,2.1,0.2,2.4,0.7c-0.8,0.4-1.5,1.4-2,3.1c-0.5,1.7-1.1,3.6-1.8,5.8c-0.7,2.2-1.5,3.9-2.5,5.1
			c0.8-0.4,2.1-1.2,3.9-2.5c1.7-1.3,3.3-2.7,4.6-4.2c0.3-0.3,0.5-0.3,0.6-0.1c0,0.1,0,0.2,0,0.2c0,0.1-0.3,0.5-0.9,1.1
			c-0.6,0.7-1.4,1.4-2.2,2.2c-0.9,0.8-2,1.8-3.3,2.8c-2.7,2.1-5.5,3.2-8.2,3.2C1274.1-577.1,1272.4-578.4,1271.6-580.9z"/>
		<path class="st4" d="M1297.8-596.2c0.7-1.2,1.3-2.1,1.7-2.8s0.8-1.2,1-1.5c0.3-0.3,0.8-0.6,1.7-0.8c0.9-0.2,1.8-0.3,2.6-0.3
			s1.3,0.1,1.3,0.3c0,0.2-0.7,1-2.1,2.5c-1.4,1.4-3,3.4-4.8,5.8c2.2,0.4,3.6,1.1,4.3,2.3c0.3,0.5,0.3,0.8,0.1,1
			c-0.2,0.1-0.4,0.1-0.6-0.2c-0.7-0.7-1.7-1.1-3.2-1.1c-0.6,0-1.4,0.1-2.2,0.2c-2.6,3.7-4.2,6.7-4.9,9c-0.2,0.7-0.3,1.2-0.3,1.7
			c0,1.2,0.5,1.9,1.4,1.9c1,0,2.4-0.8,4.2-2.3c2.3-1.9,4.4-3.9,6.1-5.8c0.3-0.4,0.5-0.5,0.6-0.3c0.1,0.2,0,0.4-0.2,0.7
			c-2.8,3.2-5.1,5.5-6.9,7s-3.6,2.2-5.2,2.2c-2.1,0-3.2-1.3-3.2-3.8c0-1.2,0.3-2.6,0.9-4.3l-0.9,0.9c-0.3,0.3-0.4,0.4-0.6,0.2
			c-0.1-0.1-0.2-0.2-0.2-0.3c0-0.1,0.1-0.3,0.4-0.5c2.3-2.3,3.9-4,4.8-5.1c-0.6,0.2-1,0.3-1.2,0.1c-0.2-0.2-0.4-0.5-0.4-0.8
			c-0.1-0.4,0.1-0.8,0.5-1.3c0.4-0.5,1-0.9,1.8-1.1c0.8-0.2,1.4-0.4,1.8-0.4C1296.5-594,1297.1-595,1297.8-596.2z"/>
		<path class="st4" d="M1354.1-605.2c0,3.2-0.6,6.3-1.9,9.4c-1.3,3-3.1,6.1-5.3,9.2c-2.8,3.9-6.1,7-9.9,9.3c-2,1.2-4,1.7-6.2,1.7
			c-2.9,0-5.1-1.1-6.8-3.3c-1.4-1.9-2.2-4.1-2.2-6.6c0-3.5,1.2-7.4,3.5-11.5c1.7-3,3.9-5.7,6.4-8.1c2.5-2.4,4.8-3.9,6.8-4.7
			c1.3-0.4,2.6-0.6,3.8-0.6c1.2,0,2.2,0.4,3.1,1.3c1,1,1.4,2.4,1.4,4.2c0,1.1-0.2,2.2-0.5,3.4c-0.1,0.4-0.2,0.5-0.3,0.2
			c-0.1-0.1,0-0.4,0-0.8c0.1-0.4,0.1-0.8,0.1-1.3c0-1.6-0.8-2.3-2.5-2.3c-2.4,0-5.4,1.3-9,3.8c-3.6,2.5-6.3,5.2-8.1,7.9
			c-2.5,3.7-3.7,7.1-3.7,10.1c0,3.3,1.7,5.2,5,5.8c0.5,0.1,1,0.2,1.5,0.2c1.8,0,3.9-0.5,6.4-1.5c4.5-1.8,8.1-4.5,11-8.4
			c3.7-5,5.5-10.7,5.5-16.9c0-2.3-0.2-4-0.7-5.2c-0.5-1.1-0.9-1.8-1.3-2c-0.4-0.2-0.8-0.3-1.1-0.2s-0.5,0.1-0.4-0.1
			c0-0.4,0.4-0.5,1.2-0.5s1.5,0.4,2.3,1.1C1353.5-610.6,1354.1-608.5,1354.1-605.2z"/>
		<path class="st4" d="M1371.6-599.7c0,0.1-0.1,0.2-0.2,0.2c-0.1,0-0.2-0.1-0.2-0.3c-0.2-0.8-0.6-1.4-1.1-1.9
			c-0.5-0.4-1-0.7-1.4-0.7c-0.4,0-0.8,0-1.1,0c-1.2,0-2.2,0.4-3.2,1.1c-1.9,1.3-4.1,3.9-6.6,7.6c1.8,0.2,2.9,0.5,3.6,1.1
			c1.2,1,1.7,1.7,1.4,2.2c-0.1,0.2-0.4,0.1-0.9-0.2c-0.5-0.3-1.3-0.5-2.4-0.5c-1.1,0-2.3,0.2-3.7,0.6c-2.2,3.6-3.8,7.2-4.9,10.9
			c-0.4,1.6-0.7,3-0.7,4c0,1.1,0.2,1.9,0.6,2.4c0.1,0.1,0.1,0.2,0,0.3c-0.1,0-0.2,0.1-0.2,0.1s-0.1,0-0.1-0.1
			c-1.2-1.1-1.8-2.7-1.8-5s1-5.9,2.9-10.9c-0.2,0.1-0.3,0.1-0.4,0c-0.1-0.1-0.2-0.2-0.3-0.5c-0.1-0.2-0.2-0.6-0.3-0.9
			c-0.1-0.4-0.1-0.7,0-1.1c0.1-0.4,0.3-0.7,0.7-1.1c0.4-0.4,1.2-0.8,2.3-1c2.4-4.8,4.7-8.1,6.9-9.7c1.5-1.1,3-1.6,4.6-1.6
			c1.6,0,2.9,0.4,4,1.3C1370.8-602.5,1371.6-601.2,1371.6-599.7z"/>
		<path class="st4" d="M1391.5-596.2c1.2-0.1,2.4-0.2,3.8-0.2s2.8,0.2,4.4,0.6s2.9,1.1,3.8,2.2c1,1.1,1.5,2.4,1.5,3.8
			s-0.4,2.8-1.1,4.3c-0.7,1.4-1.8,2.8-3.2,4.3c-4.2,4.2-9.6,6.3-16.2,6.3c-1.8,0-3.3-0.2-4.7-0.6c-1.4-0.4-2.3-0.8-2.7-1.1
			c-0.4-0.3-0.9-0.7-1.5-1.2c-0.6-0.5-0.7-0.8-0.4-0.8c0.2,0,0.6,0.2,1.4,0.5c0.8,0.3,2.3,0.5,4.4,0.5s4.5-0.3,7-0.8
			c2.5-0.5,4.6-1.4,6.3-2.5c1.8-1.1,3.2-2.3,4.2-3.7c1.3-1.7,1.9-3.3,1.9-5c0-0.9-0.2-1.9-0.7-2.8s-1.3-1.7-2.7-2.2
			c-1.3-0.5-2.5-0.8-3.6-0.8c-1.1,0-2.3,0.1-3.6,0.2c-1.4,0.1-3.1,0.6-5.2,1.4c-2.1,0.8-3.5,1.8-4.2,2.9c-0.7,1.1-1.3,2.2-1.8,3.1
			c-0.5,1-1,2-1.5,3.1c-0.5,1.1-0.9,1.9-1.2,2.5c-0.2,0.5-0.4,0.7-0.7,0.7s-0.4-0.1-0.4-0.4c0-1.2,1.2-3.9,3.7-8.1
			c2.5-4.2,4.9-8,7.1-11.2c2.3-3.3,3.6-4.9,4-4.9c0.2,0,0.4,0.1,0.5,0.3c0.1,0.2,0.2,0.4,0.1,0.6c-4,5.5-6.4,8.9-7.2,10
			c11.7-2.2,18.9-5.2,21.4-9.3c0.4-0.7,0.6-1.3,0.6-1.9s-0.3-1.2-0.8-1.7c-1-1-2.9-1.5-5.7-1.5s-6.5,0.7-11.1,2.1
			c-4.6,1.4-7.8,3-9.5,4.7c-0.5,0.5-0.7,0.8-0.6,1.1c0.2,0.3,0.2,0.5,0.1,0.5c-0.1,0-0.2,0-0.4-0.2c-0.7-0.4-1.1-1-1.3-1.6
			s-0.3-1.1-0.3-1.4c0-0.3,0.1-0.5,0.2-0.7c1.4-2.2,4.6-4.1,9.6-5.8c5-1.7,8.9-2.6,11.5-2.6c5.3,0,8.7,1,10.1,3
			c0.5,0.8,0.8,1.6,0.8,2.5c0,1.4-0.7,2.8-2.1,4.3C1402.3-600.2,1397.6-597.8,1391.5-596.2z"/>
		<path class="st4" d="M1416.1-586.3c1.7-1,2.5-2.1,2.5-3.1c0-1.1-0.6-1.6-1.7-1.6c-0.5,0-1.1,0.2-1.7,0.5c-1.3,0.7-2.6,1.8-3.9,3.5
			c-1.5,2-2.3,3.9-2.3,5.7c0,0.7,0.2,1.3,0.5,1.9c0.3,0.6,0.9,0.9,1.8,0.9c1.5,0,3.4-0.9,5.7-2.6c2.3-1.7,4.3-3.5,6-5.3
			c0.4-0.4,0.6-0.4,0.6-0.1c0,0.2-0.1,0.5-0.3,0.6c-1.2,1.2-2,2-2.4,2.4c-0.4,0.4-1.2,1.1-2.4,2.2c-1.2,1-2.1,1.8-2.9,2.2
			c-2.3,1.3-4.2,2-5.8,2s-2.8-0.4-3.8-1.2c-0.9-0.8-1.4-1.9-1.4-3.3c0-3,1.2-5.6,3.7-7.7c2.4-2.2,5-3.3,7.6-3.3c1.8,0,3,0.4,3.6,1.3
			c0.3,0.4,0.4,0.9,0.4,1.3c0,0.5-0.1,1-0.4,1.6c-0.6,1.1-1.7,2.1-3.2,2.9c-1.6,0.8-3.1,1.2-4.5,1.2c-0.5,0-0.8-0.1-0.9-0.2
			c0-0.1,0-0.2,0.1-0.2c0.1-0.1,0.3-0.1,0.5-0.1C1412.8-584.8,1414.3-585.3,1416.1-586.3z"/>
		<path class="st4" d="M1418.5-580.9c0,0,0-0.1,0-0.2s0.1-0.1,0.2-0.1s0.2,0.1,0.2,0.2c0.6,1.4,1.5,2.1,2.8,2.1
			c1.6,0,3.1-0.9,4.3-2.6c0.9-1.3,1.7-2.7,2.4-4.1s1.3-2.6,1.7-3.4c0.5-0.8,1.2-1.8,2.2-2.9c1-1.1,1.9-1.7,2.7-2
			c-0.2-0.1-0.5-0.2-1-0.2c-0.5,0-1.3,0.4-2.5,1.1s-2.5,1.6-3.7,2.8c-1.2,1.1-2.5,2.4-3.9,3.8s-2.3,2.2-2.5,2.5
			c-0.3,0.2-0.5,0.2-0.5,0c-0.1-0.2,0-0.5,0.2-0.7c0.8-0.8,2-2,3.6-3.6c1.6-1.6,2.8-2.8,3.6-3.6c0.8-0.8,1.7-1.4,2.8-2
			c1-0.5,1.8-0.8,2.3-0.8c1.3,0,2.1,0.2,2.4,0.7c-0.8,0.4-1.5,1.4-2,3.1c-0.5,1.7-1.1,3.6-1.8,5.8c-0.7,2.2-1.5,3.9-2.5,5.1
			c0.8-0.4,2.1-1.2,3.9-2.5c1.7-1.3,3.3-2.7,4.6-4.2c0.3-0.3,0.5-0.3,0.6-0.1c0,0.1,0,0.2,0,0.2c0,0.1-0.3,0.5-0.9,1.1
			c-0.6,0.7-1.4,1.4-2.2,2.2c-0.9,0.8-2,1.8-3.3,2.8c-2.7,2.1-5.5,3.2-8.2,3.2C1421.1-577.1,1419.3-578.4,1418.5-580.9z"/>
		<path class="st4" d="M1444.7-596.2c0.7-1.2,1.3-2.1,1.7-2.8s0.8-1.2,1-1.5c0.3-0.3,0.8-0.6,1.7-0.8c0.9-0.2,1.8-0.3,2.6-0.3
			s1.3,0.1,1.3,0.3c0,0.2-0.7,1-2.1,2.5c-1.4,1.4-3,3.4-4.8,5.8c2.2,0.4,3.6,1.1,4.3,2.3c0.3,0.5,0.3,0.8,0.1,1
			c-0.2,0.1-0.4,0.1-0.6-0.2c-0.7-0.7-1.7-1.1-3.2-1.1c-0.6,0-1.4,0.1-2.2,0.2c-2.6,3.7-4.2,6.7-4.9,9c-0.2,0.7-0.3,1.2-0.3,1.7
			c0,1.2,0.5,1.9,1.4,1.9c1,0,2.4-0.8,4.2-2.3c2.3-1.9,4.4-3.9,6.1-5.8c0.3-0.4,0.5-0.5,0.6-0.3c0.1,0.2,0,0.4-0.2,0.7
			c-2.8,3.2-5.1,5.5-6.9,7s-3.6,2.2-5.2,2.2c-2.1,0-3.2-1.3-3.2-3.8c0-1.2,0.3-2.6,0.9-4.3l-0.9,0.9c-0.3,0.3-0.4,0.4-0.6,0.2
			c-0.1-0.1-0.2-0.2-0.2-0.3c0-0.1,0.1-0.3,0.4-0.5c2.3-2.3,3.9-4,4.8-5.1c-0.6,0.2-1,0.3-1.2,0.1c-0.2-0.2-0.4-0.5-0.4-0.8
			c-0.1-0.4,0.1-0.8,0.5-1.3c0.4-0.5,1-0.9,1.8-1.1c0.8-0.2,1.4-0.4,1.8-0.4C1443.4-594,1444-595,1444.7-596.2z"/>
	</g>
</g>
<rect x="1136.2" y="-729.1" class="st2" width="347.9" height="89.7"/>
<g>
	<g>
		<path class="st0" d="M1240.2-669.3c0,2.5-0.5,4.7-1.4,6.7c-0.9,1.9-2.2,3.5-3.8,4.8c-1.6,1.3-3.5,2.3-5.6,2.9
			c-2.1,0.7-4.4,1-6.8,1h-26.3v-59.8h29.1c1.9,0,3.6,0.5,5.1,1.3c1.5,0.9,2.8,2.1,3.9,3.5s1.9,3.1,2.5,4.9c0.6,1.8,0.9,3.7,0.9,5.5
			c0,2.9-0.7,5.7-2,8.2c-1.3,2.6-3.3,4.5-5.8,5.7c3.1,1,5.6,2.8,7.4,5.4C1239.3-676.5,1240.2-673.2,1240.2-669.3z M1206.9-703.7
			v15.1h14.1c1.8,0,3.3-0.7,4.6-2c1.3-1.3,1.9-3.2,1.9-5.6c0-2.3-0.6-4.1-1.7-5.5c-1.1-1.3-2.6-2-4.3-2H1206.9z M1229.5-671.5
			c0-1.1-0.2-2.1-0.5-3.1c-0.3-1-0.8-1.8-1.3-2.6c-0.6-0.7-1.2-1.3-2-1.7c-0.8-0.4-1.6-0.6-2.5-0.6h-16.2v15.8h15.7
			c1,0,1.9-0.2,2.7-0.6c0.8-0.4,1.6-0.9,2.2-1.6c0.6-0.7,1.1-1.5,1.5-2.5C1229.4-669.4,1229.5-670.4,1229.5-671.5z"/>
		<path class="st0" d="M1271.7-653.4c-4,0-7.6-0.9-10.8-2.6c-3.2-1.7-6-4-8.4-6.8c-2.3-2.8-4.1-6.1-5.4-9.7
			c-1.3-3.7-1.9-7.4-1.9-11.2c0-4,0.7-7.8,2-11.5c1.4-3.7,3.2-6.9,5.6-9.7c2.4-2.8,5.2-5,8.5-6.7c3.3-1.7,6.8-2.5,10.6-2.5
			c3.9,0,7.5,0.9,10.8,2.7c3.2,1.8,6,4.1,8.3,7c2.3,2.9,4.1,6.1,5.4,9.8c1.3,3.7,1.9,7.4,1.9,11.1c0,4-0.7,7.8-2,11.4
			c-1.3,3.6-3.2,6.8-5.5,9.6c-2.4,2.8-5.2,5-8.4,6.7C1279.1-654.3,1275.5-653.4,1271.7-653.4z M1255.9-683.8c0,2.6,0.4,5.1,1.1,7.5
			c0.7,2.4,1.7,4.5,3.1,6.4c1.4,1.9,3,3.3,5,4.5c2,1.1,4.2,1.7,6.7,1.7c2.6,0,4.8-0.6,6.8-1.7c2-1.2,3.6-2.7,5-4.6
			c1.4-1.9,2.4-4.1,3.1-6.4c0.7-2.4,1-4.8,1-7.3c0-2.6-0.4-5.1-1.1-7.5c-0.7-2.4-1.8-4.6-3.1-6.4c-1.4-1.9-3-3.3-5-4.4
			c-2-1.1-4.2-1.6-6.6-1.6c-2.6,0-4.8,0.6-6.8,1.7s-3.7,2.7-5,4.5c-1.3,1.9-2.3,4-3,6.4C1256.2-688.7,1255.9-686.2,1255.9-683.8z"/>
		<path class="st0" d="M1309.5-713.7l13.6,22.2l13.5-22.2h11.4l-19.4,30.3l18.8,29.5H1336l-12.9-21.4l-12.9,21.4h-11.5l18.8-29.5
			l-19.4-30.3H1309.5z"/>
		<path class="st0" d="M1391.2-664v10.2h-37.8v-59.8h37.1v10.2H1364v14.4h22.9v9.4H1364v15.6H1391.2z"/>
		<path class="st0" d="M1430.7-698c-0.4-0.4-1-0.9-2-1.6c-0.9-0.7-2.1-1.3-3.4-2c-1.4-0.6-2.8-1.2-4.4-1.6c-1.6-0.4-3.2-0.7-4.8-0.7
			c-2.9,0-5.1,0.6-6.5,1.8c-1.4,1.2-2.1,2.8-2.1,5c0,1.2,0.3,2.3,0.8,3.1c0.5,0.8,1.3,1.5,2.3,2.1c1,0.6,2.3,1.2,3.9,1.7
			c1.6,0.5,3.4,1,5.4,1.6c2.7,0.8,5.1,1.6,7.2,2.5c2.2,0.9,4,2,5.5,3.4c1.5,1.3,2.7,3,3.5,4.8c0.8,1.9,1.2,4.2,1.2,7
			c0,3.2-0.5,5.9-1.6,8.2c-1.1,2.3-2.6,4.1-4.4,5.5c-1.9,1.4-4,2.4-6.4,3.1s-5,1-7.6,1c-4.1,0-8.1-0.7-12.1-2
			c-4-1.3-7.6-3.3-10.7-5.7l4.7-10c0.5,0.5,1.3,1.2,2.5,2c1.2,0.8,2.6,1.6,4.3,2.4c1.6,0.8,3.4,1.5,5.4,2.1c2,0.6,4,0.8,6.1,0.8
			c5.8,0,8.7-2,8.7-6.2c0-1.3-0.3-2.4-1-3.3c-0.7-0.9-1.6-1.7-2.8-2.4c-1.2-0.7-2.7-1.3-4.4-1.9c-1.7-0.6-3.7-1.2-5.8-1.9
			c-2.6-0.8-4.9-1.6-6.8-2.6c-1.9-0.9-3.5-2-4.8-3.3c-1.3-1.3-2.2-2.7-2.9-4.4c-0.6-1.7-1-3.6-1-5.9c0-3,0.5-5.7,1.5-8.1
			s2.4-4.3,4.3-5.9c1.8-1.6,3.9-2.8,6.3-3.6c2.4-0.8,5-1.2,7.7-1.2c3.8,0,7.4,0.7,10.6,2c3.2,1.3,6,2.9,8.4,4.7L1430.7-698z"/>
	</g>
</g>
<g>
	<g>
		<polygon class="st0" points="12.9,22 22.9,22 38.9,0.8 28.9,0.9 		"/>
		<path class="st1" d="M47.3,12c-3.2,0-6.4,0-9.6,0.1c-0.9-1.2-1.7-2.3-2.6-3.5c1.6-2.2,3.2-4.3,4.8-6.5C42.4,5.4,44.9,8.7,47.3,12z
			"/>
		<polygon class="st0" points="38.9,44.3 28.8,44.4 13,23.2 22.9,23.2 		"/>
		<polygon class="st1" points="40,43.2 35.2,36.8 37.7,33.2 47.3,33.3 		"/>
		<polygon class="st2" points="0.3,22 10.4,22.1 23.9,3.9 13.8,3.9 		"/>
		<polygon class="st2" points="24,41.3 13.9,41.4 0.4,23.3 10.3,23.2 		"/>
	</g>
	<g>
		<g>
			<path d="M56.3,11.9h-2.6v6.8h-1.6v-6.8h-2.6v-1.4h6.8V11.9z"/>
			<path d="M64.1,10.5v8.2h-1.6v-3.5h-3.7v3.5h-1.6v-8.2h1.6v3.3h3.7v-3.3H64.1z"/>
			<path d="M71.5,17.3v1.4h-5.7v-8.2h5.6v1.4h-4v2h3.4v1.3h-3.4v2.1H71.5z"/>
			<path d="M84.9,16.6c0,0.3-0.1,0.6-0.2,0.9c-0.1,0.3-0.3,0.5-0.6,0.7c-0.2,0.2-0.5,0.3-0.8,0.4c-0.3,0.1-0.7,0.1-1,0.1h-4v-8.2
				h4.4c0.3,0,0.5,0.1,0.8,0.2s0.4,0.3,0.6,0.5c0.2,0.2,0.3,0.4,0.4,0.7c0.1,0.3,0.1,0.5,0.1,0.8c0,0.4-0.1,0.8-0.3,1.1
				c-0.2,0.3-0.5,0.6-0.9,0.8c0.5,0.1,0.8,0.4,1.1,0.7S84.9,16,84.9,16.6z M79.9,11.9v2.1H82c0.3,0,0.5-0.1,0.7-0.3
				c0.2-0.2,0.3-0.4,0.3-0.8c0-0.3-0.1-0.6-0.3-0.7c-0.2-0.2-0.4-0.3-0.6-0.3H79.9z M83.3,16.3c0-0.1,0-0.3-0.1-0.4
				c-0.1-0.1-0.1-0.3-0.2-0.4s-0.2-0.2-0.3-0.2s-0.2-0.1-0.4-0.1h-2.4v2.2h2.4c0.1,0,0.3,0,0.4-0.1c0.1-0.1,0.2-0.1,0.3-0.2
				c0.1-0.1,0.2-0.2,0.2-0.3S83.3,16.4,83.3,16.3z"/>
			<path d="M91.8,17.3v1.4h-5.7v-8.2h5.6v1.4h-4v2h3.4v1.3h-3.4v2.1H91.8z"/>
			<path d="M97.8,12.7c-0.1-0.1-0.2-0.1-0.3-0.2c-0.1-0.1-0.3-0.2-0.5-0.3c-0.2-0.1-0.4-0.2-0.7-0.2c-0.2-0.1-0.5-0.1-0.7-0.1
				c-0.4,0-0.8,0.1-1,0.2s-0.3,0.4-0.3,0.7c0,0.2,0,0.3,0.1,0.4s0.2,0.2,0.4,0.3c0.2,0.1,0.3,0.2,0.6,0.2c0.2,0.1,0.5,0.1,0.8,0.2
				c0.4,0.1,0.8,0.2,1.1,0.3c0.3,0.1,0.6,0.3,0.8,0.5s0.4,0.4,0.5,0.7c0.1,0.3,0.2,0.6,0.2,1c0,0.4-0.1,0.8-0.2,1.1
				c-0.2,0.3-0.4,0.6-0.7,0.8c-0.3,0.2-0.6,0.3-1,0.4c-0.4,0.1-0.7,0.1-1.1,0.1c-0.6,0-1.2-0.1-1.8-0.3c-0.6-0.2-1.1-0.4-1.6-0.8
				l0.7-1.4c0.1,0.1,0.2,0.2,0.4,0.3s0.4,0.2,0.6,0.3s0.5,0.2,0.8,0.3c0.3,0.1,0.6,0.1,0.9,0.1c0.9,0,1.3-0.3,1.3-0.8
				c0-0.2,0-0.3-0.1-0.4c-0.1-0.1-0.2-0.2-0.4-0.3s-0.4-0.2-0.7-0.3c-0.3-0.1-0.6-0.2-0.9-0.3c-0.4-0.1-0.7-0.2-1-0.4
				c-0.3-0.1-0.5-0.3-0.7-0.4c-0.2-0.2-0.3-0.4-0.4-0.6c-0.1-0.2-0.1-0.5-0.1-0.8c0-0.4,0.1-0.8,0.2-1.1c0.2-0.3,0.4-0.6,0.6-0.8
				c0.3-0.2,0.6-0.4,0.9-0.5s0.7-0.2,1.2-0.2c0.6,0,1.1,0.1,1.6,0.3c0.5,0.2,0.9,0.4,1.3,0.6L97.8,12.7z"/>
			<path d="M106,11.9h-2.6v6.8h-1.6v-6.8h-2.6v-1.4h6.8V11.9z"/>
		</g>
		<g>
			<g>
				<path d="M49.4,31.7h0.8V34h1.3v0.7h-2.1V31.7z"/>
				<path d="M54.1,33.9h-1.5c0,0.1,0,0.2,0.1,0.3c0.1,0.1,0.2,0.1,0.3,0.1c0.1,0,0.1,0,0.2-0.1c0,0,0.1-0.1,0.1-0.1l0.7,0.1
					c-0.1,0.2-0.3,0.4-0.4,0.5c-0.2,0.1-0.4,0.1-0.7,0.1c-0.3,0-0.5,0-0.6-0.1c-0.1-0.1-0.3-0.2-0.4-0.4c-0.1-0.2-0.1-0.4-0.1-0.6
					c0-0.3,0.1-0.6,0.3-0.8c0.2-0.2,0.5-0.3,0.8-0.3c0.3,0,0.5,0,0.7,0.1c0.2,0.1,0.3,0.2,0.4,0.4S54.1,33.5,54.1,33.9L54.1,33.9z
					 M53.3,33.5c0-0.2-0.1-0.3-0.1-0.3C53.1,33,53.1,33,53,33c-0.1,0-0.2,0.1-0.3,0.2c0,0.1-0.1,0.2-0.1,0.3H53.3z"/>
				<path d="M55.3,31.7v0.8h0.4v0.6h-0.4v0.8c0,0.1,0,0.2,0,0.2c0,0,0.1,0.1,0.1,0.1c0.1,0,0.1,0,0.2-0.1l0.1,0.6
					c-0.2,0-0.4,0.1-0.5,0.1c-0.2,0-0.3,0-0.4-0.1c-0.1-0.1-0.2-0.1-0.2-0.2c0-0.1-0.1-0.3-0.1-0.5v-0.8h-0.3v-0.6h0.3v-0.4
					L55.3,31.7z"/>
				<path d="M56,31.7h0.8v0.7c0,0.3,0,0.4-0.1,0.6c-0.1,0.1-0.3,0.3-0.5,0.4L56,33c0.1-0.1,0.2-0.1,0.3-0.2c0.1-0.1,0.1-0.2,0.1-0.3
					H56V31.7z"/>
				<path d="M56.9,34.1l0.7-0.1c0,0.1,0.1,0.2,0.1,0.2c0.1,0,0.1,0.1,0.2,0.1c0.1,0,0.2,0,0.2-0.1c0,0,0.1-0.1,0.1-0.1
					c0-0.1,0-0.1-0.1-0.1c0,0-0.1-0.1-0.3-0.1c-0.3-0.1-0.4-0.1-0.5-0.1c-0.1,0-0.2-0.1-0.3-0.2c-0.1-0.1-0.1-0.2-0.1-0.3
					c0-0.1,0-0.3,0.1-0.4s0.2-0.2,0.3-0.2s0.3-0.1,0.5-0.1c0.2,0,0.4,0,0.5,0.1c0.1,0,0.2,0.1,0.3,0.2c0.1,0.1,0.1,0.2,0.2,0.3
					l-0.7,0.1c0-0.1,0-0.1-0.1-0.2C58.1,33,58,33,57.9,33c-0.1,0-0.1,0-0.2,0c0,0-0.1,0.1-0.1,0.1c0,0.1,0,0.1,0.1,0.1
					c0,0,0.2,0.1,0.3,0.1c0.3,0,0.4,0.1,0.6,0.1c0.1,0.1,0.2,0.1,0.3,0.2C59,33.8,59,33.9,59,34c0,0.1,0,0.2-0.1,0.4
					s-0.2,0.2-0.3,0.3c-0.1,0.1-0.3,0.1-0.6,0.1c-0.4,0-0.6-0.1-0.8-0.2C57.1,34.5,57,34.3,56.9,34.1z"/>
				<path d="M60.7,31.7h0.8v1h0.9v-1h0.8v3h-0.8v-1.2h-0.9v1.2h-0.8V31.7z"/>
				<path d="M64.5,33.3l-0.7-0.1c0-0.1,0.1-0.2,0.1-0.3c0.1-0.1,0.1-0.1,0.2-0.2c0.1,0,0.2-0.1,0.3-0.1c0.1,0,0.3,0,0.4,0
					c0.2,0,0.4,0,0.5,0c0.1,0,0.3,0.1,0.3,0.2c0.1,0.1,0.1,0.1,0.2,0.3s0.1,0.2,0.1,0.3v1c0,0.1,0,0.2,0,0.2s0,0.1,0.1,0.2h-0.7
					c0-0.1,0-0.1-0.1-0.1c0,0,0-0.1,0-0.1c-0.1,0.1-0.2,0.2-0.3,0.2c-0.1,0.1-0.3,0.1-0.5,0.1c-0.2,0-0.4-0.1-0.5-0.2
					s-0.2-0.3-0.2-0.4c0-0.2,0-0.3,0.1-0.4s0.2-0.2,0.5-0.2c0.3-0.1,0.5-0.1,0.5-0.1c0.1,0,0.2-0.1,0.3-0.1c0-0.1,0-0.2-0.1-0.2
					S65,33,64.9,33c-0.1,0-0.2,0-0.3,0.1C64.6,33.1,64.5,33.2,64.5,33.3z M65.1,33.7c-0.1,0-0.2,0.1-0.3,0.1c-0.2,0-0.2,0.1-0.3,0.1
					c0,0-0.1,0.1-0.1,0.2c0,0.1,0,0.1,0.1,0.2c0,0,0.1,0.1,0.2,0.1c0.1,0,0.2,0,0.2-0.1c0.1,0,0.1-0.1,0.2-0.2c0-0.1,0-0.1,0-0.3
					V33.7z"/>
				<path d="M66,32.6h0.8l0.4,1.4l0.4-1.4h0.8l-0.8,2.2h-0.7L66,32.6z"/>
				<path d="M70.7,33.9h-1.5c0,0.1,0,0.2,0.1,0.3c0.1,0.1,0.2,0.1,0.3,0.1c0.1,0,0.1,0,0.2-0.1c0,0,0.1-0.1,0.1-0.1l0.7,0.1
					c-0.1,0.2-0.3,0.4-0.4,0.5c-0.2,0.1-0.4,0.1-0.7,0.1c-0.3,0-0.5,0-0.6-0.1c-0.1-0.1-0.3-0.2-0.4-0.4c-0.1-0.2-0.1-0.4-0.1-0.6
					c0-0.3,0.1-0.6,0.3-0.8c0.2-0.2,0.5-0.3,0.8-0.3c0.3,0,0.5,0,0.7,0.1c0.2,0.1,0.3,0.2,0.4,0.4S70.7,33.5,70.7,33.9L70.7,33.9z
					 M69.9,33.5c0-0.2-0.1-0.3-0.1-0.3C69.7,33,69.6,33,69.5,33c-0.1,0-0.2,0.1-0.3,0.2c0,0.1-0.1,0.2-0.1,0.3H69.9z"/>
				<path d="M72.1,31.7h2.5v0.7h-0.9v2.2H73v-2.2h-0.9V31.7z"/>
				<path d="M75.1,31.7h0.8v1.1c0.1-0.1,0.2-0.2,0.3-0.3s0.2-0.1,0.4-0.1c0.2,0,0.4,0.1,0.5,0.2s0.2,0.3,0.2,0.6v1.4h-0.8v-1.2
					c0-0.1,0-0.2-0.1-0.3c0-0.1-0.1-0.1-0.2-0.1c-0.1,0-0.2,0-0.2,0.1c-0.1,0.1-0.1,0.2-0.1,0.4v1h-0.8V31.7z"/>
				<path d="M79.8,33.9h-1.5c0,0.1,0,0.2,0.1,0.3c0.1,0.1,0.2,0.1,0.3,0.1c0.1,0,0.1,0,0.2-0.1c0,0,0.1-0.1,0.1-0.1l0.7,0.1
					c-0.1,0.2-0.3,0.4-0.4,0.5c-0.2,0.1-0.4,0.1-0.7,0.1c-0.3,0-0.5,0-0.6-0.1c-0.1-0.1-0.3-0.2-0.4-0.4c-0.1-0.2-0.1-0.4-0.1-0.6
					c0-0.3,0.1-0.6,0.3-0.8c0.2-0.2,0.5-0.3,0.8-0.3c0.3,0,0.5,0,0.7,0.1c0.2,0.1,0.3,0.2,0.4,0.4S79.8,33.5,79.8,33.9L79.8,33.9z
					 M79,33.5c0-0.2-0.1-0.3-0.1-0.3C78.8,33,78.8,33,78.7,33c-0.1,0-0.2,0.1-0.3,0.2c0,0.1-0.1,0.2-0.1,0.3H79z"/>
				<path d="M81.5,31.7H83c0.3,0,0.5,0.1,0.6,0.2c0.1,0.1,0.2,0.3,0.2,0.5c0,0.2,0,0.3-0.1,0.5c-0.1,0.1-0.2,0.2-0.3,0.2
					c0.2,0.1,0.3,0.1,0.4,0.3c0.1,0.1,0.1,0.3,0.1,0.5c0,0.2,0,0.3-0.1,0.4c-0.1,0.1-0.2,0.2-0.3,0.3c-0.1,0-0.2,0.1-0.3,0.1
					c-0.2,0-0.3,0-0.4,0h-1.4V31.7z M82.3,32.9h0.4c0.1,0,0.2,0,0.3-0.1c0.1,0,0.1-0.1,0.1-0.2c0-0.1,0-0.2-0.1-0.2
					c-0.1,0-0.1-0.1-0.3-0.1h-0.4V32.9z M82.3,34.1h0.4c0.1,0,0.2,0,0.3-0.1c0.1-0.1,0.1-0.1,0.1-0.2c0-0.1,0-0.2-0.1-0.2
					c-0.1-0.1-0.2-0.1-0.3-0.1h-0.4V34.1z"/>
				<path d="M86.5,33.9H85c0,0.1,0,0.2,0.1,0.3c0.1,0.1,0.2,0.1,0.3,0.1c0.1,0,0.1,0,0.2-0.1c0,0,0.1-0.1,0.1-0.1l0.7,0.1
					c-0.1,0.2-0.3,0.4-0.4,0.5c-0.2,0.1-0.4,0.1-0.7,0.1c-0.3,0-0.5,0-0.6-0.1c-0.1-0.1-0.3-0.2-0.4-0.4c-0.1-0.2-0.1-0.4-0.1-0.6
					c0-0.3,0.1-0.6,0.3-0.8c0.2-0.2,0.5-0.3,0.8-0.3c0.3,0,0.5,0,0.7,0.1c0.2,0.1,0.3,0.2,0.4,0.4S86.5,33.5,86.5,33.9L86.5,33.9z
					 M85.8,33.5c0-0.2-0.1-0.3-0.1-0.3C85.6,33,85.5,33,85.4,33c-0.1,0-0.2,0.1-0.3,0.2c0,0.1-0.1,0.2-0.1,0.3H85.8z"/>
				<path d="M86.7,34.1l0.7-0.1c0,0.1,0.1,0.2,0.1,0.2c0.1,0,0.1,0.1,0.2,0.1c0.1,0,0.2,0,0.2-0.1c0,0,0.1-0.1,0.1-0.1
					c0-0.1,0-0.1-0.1-0.1c0,0-0.1-0.1-0.3-0.1c-0.3-0.1-0.4-0.1-0.5-0.1c-0.1,0-0.2-0.1-0.3-0.2c-0.1-0.1-0.1-0.2-0.1-0.3
					c0-0.1,0-0.3,0.1-0.4s0.2-0.2,0.3-0.2s0.3-0.1,0.5-0.1c0.2,0,0.4,0,0.5,0.1c0.1,0,0.2,0.1,0.3,0.2c0.1,0.1,0.1,0.2,0.2,0.3
					L88,33.2c0-0.1,0-0.1-0.1-0.2c-0.1,0-0.1-0.1-0.2-0.1c-0.1,0-0.1,0-0.2,0c0,0-0.1,0.1-0.1,0.1c0,0.1,0,0.1,0.1,0.1
					c0,0,0.2,0.1,0.3,0.1c0.3,0,0.4,0.1,0.6,0.1c0.1,0.1,0.2,0.1,0.3,0.2c0.1,0.1,0.1,0.2,0.1,0.3c0,0.1,0,0.2-0.1,0.4
					s-0.2,0.2-0.3,0.3c-0.1,0.1-0.3,0.1-0.6,0.1c-0.4,0-0.6-0.1-0.8-0.2C86.9,34.5,86.8,34.3,86.7,34.1z"/>
				<path d="M90.1,31.7v0.8h0.4v0.6h-0.4v0.8c0,0.1,0,0.2,0,0.2c0,0,0.1,0.1,0.1,0.1c0.1,0,0.1,0,0.2-0.1l0.1,0.6
					c-0.2,0-0.4,0.1-0.5,0.1c-0.2,0-0.3,0-0.4-0.1c-0.1-0.1-0.2-0.1-0.2-0.2c0-0.1-0.1-0.3-0.1-0.5v-0.8h-0.3v-0.6h0.3v-0.4
					L90.1,31.7z"/>
				<path d="M92.1,33.2c0-0.5,0.1-0.9,0.4-1.1c0.2-0.3,0.6-0.4,1-0.4c0.5,0,0.8,0.1,1,0.4c0.2,0.3,0.4,0.6,0.4,1.1
					c0,0.3-0.1,0.6-0.2,0.9s-0.3,0.4-0.5,0.5c-0.2,0.1-0.5,0.2-0.8,0.2c-0.3,0-0.6-0.1-0.8-0.2c-0.2-0.1-0.4-0.3-0.5-0.5
					C92.1,33.9,92.1,33.6,92.1,33.2z M92.9,33.2c0,0.3,0.1,0.5,0.2,0.6c0.1,0.1,0.2,0.2,0.4,0.2c0.2,0,0.3-0.1,0.4-0.2
					c0.1-0.1,0.1-0.4,0.1-0.7c0-0.3-0.1-0.5-0.2-0.6c-0.1-0.1-0.2-0.2-0.4-0.2c-0.2,0-0.3,0.1-0.4,0.2C93,32.7,92.9,32.9,92.9,33.2z
					"/>
				<path d="M96.1,32.6h0.4v0.6h-0.4v1.6h-0.8v-1.6h-0.3v-0.6h0.3v-0.1c0-0.1,0-0.2,0-0.3c0-0.1,0-0.2,0.1-0.3
					c0-0.1,0.1-0.1,0.2-0.2c0.1,0,0.2-0.1,0.4-0.1c0.1,0,0.3,0,0.6,0.1l-0.1,0.5c-0.1,0-0.2,0-0.2,0c-0.1,0-0.1,0-0.1,0
					c0,0-0.1,0.1-0.1,0.1C96.1,32.4,96.1,32.5,96.1,32.6z"/>
				<path d="M98.3,31.7h1.6c0.3,0,0.5,0.1,0.6,0.2c0.1,0.1,0.2,0.3,0.2,0.5c0,0.2,0,0.3-0.1,0.5c-0.1,0.1-0.2,0.2-0.3,0.2
					c0.2,0.1,0.3,0.1,0.4,0.3c0.1,0.1,0.1,0.3,0.1,0.5c0,0.2,0,0.3-0.1,0.4c-0.1,0.1-0.2,0.2-0.3,0.3c-0.1,0-0.2,0.1-0.3,0.1
					c-0.2,0-0.3,0-0.4,0h-1.4V31.7z M99.1,32.9h0.4c0.1,0,0.2,0,0.3-0.1c0.1,0,0.1-0.1,0.1-0.2c0-0.1,0-0.2-0.1-0.2
					c-0.1,0-0.1-0.1-0.3-0.1h-0.4V32.9z M99.1,34.1h0.4c0.1,0,0.2,0,0.3-0.1c0.1-0.1,0.1-0.1,0.1-0.2c0-0.1,0-0.2-0.1-0.2
					c-0.1-0.1-0.2-0.1-0.3-0.1h-0.4V34.1z"/>
				<path d="M103.4,33.9h-1.5c0,0.1,0,0.2,0.1,0.3c0.1,0.1,0.2,0.1,0.3,0.1c0.1,0,0.1,0,0.2-0.1c0,0,0.1-0.1,0.1-0.1l0.7,0.1
					c-0.1,0.2-0.3,0.4-0.4,0.5c-0.2,0.1-0.4,0.1-0.7,0.1c-0.3,0-0.5,0-0.6-0.1c-0.1-0.1-0.3-0.2-0.4-0.4c-0.1-0.2-0.1-0.4-0.1-0.6
					c0-0.3,0.1-0.6,0.3-0.8c0.2-0.2,0.5-0.3,0.8-0.3c0.3,0,0.5,0,0.7,0.1c0.2,0.1,0.3,0.2,0.4,0.4S103.4,33.5,103.4,33.9L103.4,33.9
					z M102.6,33.5c0-0.2-0.1-0.3-0.1-0.3c-0.1-0.1-0.1-0.1-0.3-0.1c-0.1,0-0.2,0.1-0.3,0.2c0,0.1-0.1,0.2-0.1,0.3H102.6z"/>
				<path d="M103.6,34.1l0.7-0.1c0,0.1,0.1,0.2,0.1,0.2c0.1,0,0.1,0.1,0.2,0.1c0.1,0,0.2,0,0.2-0.1c0,0,0.1-0.1,0.1-0.1
					c0-0.1,0-0.1-0.1-0.1c0,0-0.1-0.1-0.3-0.1c-0.3-0.1-0.4-0.1-0.5-0.1c-0.1,0-0.2-0.1-0.3-0.2c-0.1-0.1-0.1-0.2-0.1-0.3
					c0-0.1,0-0.3,0.1-0.4s0.2-0.2,0.3-0.2s0.3-0.1,0.5-0.1c0.2,0,0.4,0,0.5,0.1c0.1,0,0.2,0.1,0.3,0.2c0.1,0.1,0.1,0.2,0.2,0.3
					l-0.7,0.1c0-0.1,0-0.1-0.1-0.2c-0.1,0-0.1-0.1-0.2-0.1c-0.1,0-0.1,0-0.2,0c0,0-0.1,0.1-0.1,0.1c0,0.1,0,0.1,0.1,0.1
					c0,0,0.2,0.1,0.3,0.1c0.3,0,0.4,0.1,0.6,0.1c0.1,0.1,0.2,0.1,0.3,0.2c0.1,0.1,0.1,0.2,0.1,0.3c0,0.1,0,0.2-0.1,0.4
					s-0.2,0.2-0.3,0.3c-0.1,0.1-0.3,0.1-0.6,0.1c-0.4,0-0.6-0.1-0.8-0.2C103.7,34.5,103.6,34.3,103.6,34.1z"/>
				<path d="M106.9,31.7v0.8h0.4v0.6h-0.4v0.8c0,0.1,0,0.2,0,0.2c0,0,0.1,0.1,0.1,0.1c0.1,0,0.1,0,0.2-0.1l0.1,0.6
					c-0.2,0-0.4,0.1-0.5,0.1c-0.2,0-0.3,0-0.4-0.1c-0.1-0.1-0.2-0.1-0.2-0.2c0-0.1-0.1-0.3-0.1-0.5v-0.8h-0.3v-0.6h0.3v-0.4
					L106.9,31.7z"/>
			</g>
		</g>
		<g>
			<rect x="39" y="20.6" class="st0" width="35.6" height="8.6"/>
			<g>
				<g>
					<path class="st2" d="M41.5,24.9c0-0.3,0.1-0.7,0.2-1c0.1-0.3,0.3-0.6,0.5-0.9c0.2-0.3,0.5-0.5,0.8-0.7s0.7-0.2,1.1-0.2
						c0.5,0,0.9,0.1,1.2,0.3s0.6,0.5,0.8,0.9l-0.8,0.6c-0.1-0.2-0.2-0.3-0.2-0.4c-0.1-0.1-0.2-0.2-0.3-0.3c-0.1-0.1-0.2-0.1-0.4-0.1
						c-0.1,0-0.2,0-0.4,0c-0.3,0-0.5,0.1-0.7,0.2c-0.2,0.1-0.3,0.3-0.5,0.4c-0.1,0.2-0.2,0.4-0.3,0.6s-0.1,0.5-0.1,0.7
						c0,0.3,0,0.5,0.1,0.7s0.2,0.4,0.3,0.6c0.1,0.2,0.3,0.3,0.5,0.4c0.2,0.1,0.4,0.2,0.6,0.2c0.1,0,0.2,0,0.4,0
						c0.1,0,0.2-0.1,0.4-0.2c0.1-0.1,0.2-0.2,0.3-0.3c0.1-0.1,0.2-0.2,0.2-0.4l0.8,0.5c-0.1,0.2-0.2,0.4-0.4,0.6
						c-0.2,0.2-0.3,0.3-0.5,0.4c-0.2,0.1-0.4,0.2-0.6,0.3c-0.2,0.1-0.4,0.1-0.6,0.1c-0.4,0-0.7-0.1-1-0.3s-0.6-0.4-0.8-0.7
						c-0.2-0.3-0.4-0.6-0.5-0.9C41.6,25.6,41.5,25.2,41.5,24.9z"/>
					<path class="st2" d="M49,26.8c0.2,0,0.4-0.1,0.6-0.2c0.2-0.1,0.3-0.2,0.4-0.4c0.1-0.2,0.2-0.4,0.2-0.6c0-0.2,0.1-0.5,0.1-0.7
						v-2.9h1V25c0,0.4,0,0.8-0.1,1.1c-0.1,0.3-0.2,0.6-0.4,0.9c-0.2,0.3-0.4,0.5-0.7,0.6c-0.3,0.1-0.6,0.2-1,0.2
						c-0.4,0-0.8-0.1-1.1-0.2c-0.3-0.2-0.5-0.4-0.7-0.6c-0.2-0.3-0.3-0.6-0.4-0.9c-0.1-0.3-0.1-0.7-0.1-1.1v-2.9h1V25
						c0,0.2,0,0.5,0.1,0.7s0.1,0.4,0.2,0.6c0.1,0.2,0.2,0.3,0.4,0.4C48.6,26.8,48.8,26.8,49,26.8z"/>
					<path class="st2" d="M55.4,23.6c0,0-0.1-0.1-0.2-0.2c-0.1-0.1-0.2-0.1-0.3-0.2c-0.1-0.1-0.3-0.1-0.4-0.2C54.3,23,54.2,23,54,23
						c-0.3,0-0.5,0.1-0.6,0.2c-0.1,0.1-0.2,0.3-0.2,0.5c0,0.1,0,0.2,0.1,0.3c0.1,0.1,0.1,0.1,0.2,0.2c0.1,0.1,0.2,0.1,0.4,0.2
						c0.1,0,0.3,0.1,0.5,0.2c0.3,0.1,0.5,0.2,0.7,0.2c0.2,0.1,0.4,0.2,0.5,0.3c0.1,0.1,0.3,0.3,0.3,0.5c0.1,0.2,0.1,0.4,0.1,0.7
						c0,0.3-0.1,0.6-0.2,0.8c-0.1,0.2-0.2,0.4-0.4,0.5c-0.2,0.1-0.4,0.2-0.6,0.3c-0.2,0.1-0.5,0.1-0.7,0.1c-0.4,0-0.8-0.1-1.2-0.2
						c-0.4-0.1-0.7-0.3-1-0.5l0.4-1c0,0,0.1,0.1,0.2,0.2c0.1,0.1,0.2,0.2,0.4,0.2c0.2,0.1,0.3,0.1,0.5,0.2c0.2,0.1,0.4,0.1,0.6,0.1
						c0.6,0,0.8-0.2,0.8-0.6c0-0.1,0-0.2-0.1-0.3s-0.2-0.2-0.3-0.2s-0.3-0.1-0.4-0.2c-0.2-0.1-0.4-0.1-0.6-0.2
						c-0.2-0.1-0.5-0.2-0.6-0.2c-0.2-0.1-0.3-0.2-0.5-0.3c-0.1-0.1-0.2-0.3-0.3-0.4c-0.1-0.2-0.1-0.3-0.1-0.6c0-0.3,0-0.5,0.1-0.8
						c0.1-0.2,0.2-0.4,0.4-0.6s0.4-0.3,0.6-0.3c0.2-0.1,0.5-0.1,0.7-0.1c0.4,0,0.7,0.1,1,0.2c0.3,0.1,0.6,0.3,0.8,0.4L55.4,23.6z"/>
					<path class="st2" d="M60.6,23H59v4.7h-1V23h-1.7v-1h4.3V23z"/>
					<path class="st2" d="M63.3,27.8c-0.4,0-0.7-0.1-1-0.2c-0.3-0.2-0.6-0.4-0.8-0.7S61,26.3,60.9,26c-0.1-0.3-0.2-0.7-0.2-1.1
						c0-0.4,0.1-0.7,0.2-1.1c0.1-0.3,0.3-0.7,0.5-0.9c0.2-0.3,0.5-0.5,0.8-0.6s0.7-0.2,1-0.2c0.4,0,0.7,0.1,1,0.3s0.6,0.4,0.8,0.7
						s0.4,0.6,0.5,0.9c0.1,0.3,0.2,0.7,0.2,1.1c0,0.4-0.1,0.7-0.2,1.1s-0.3,0.7-0.5,0.9s-0.5,0.5-0.8,0.6
						C64,27.7,63.6,27.8,63.3,27.8z M61.8,24.9c0,0.2,0,0.5,0.1,0.7s0.2,0.4,0.3,0.6c0.1,0.2,0.3,0.3,0.5,0.4s0.4,0.2,0.6,0.2
						c0.2,0,0.5-0.1,0.6-0.2c0.2-0.1,0.3-0.3,0.5-0.4c0.1-0.2,0.2-0.4,0.3-0.6c0.1-0.2,0.1-0.5,0.1-0.7c0-0.2,0-0.5-0.1-0.7
						c-0.1-0.2-0.2-0.4-0.3-0.6c-0.1-0.2-0.3-0.3-0.5-0.4c-0.2-0.1-0.4-0.2-0.6-0.2c-0.2,0-0.5,0.1-0.7,0.2
						c-0.2,0.1-0.3,0.3-0.5,0.4c-0.1,0.2-0.2,0.4-0.3,0.6C61.8,24.4,61.8,24.7,61.8,24.9z"/>
					<path class="st2" d="M70.8,27.8V24l-1.3,2.8h-0.5L67.6,24v3.8h-1v-5.7h1.1l1.5,3.2l1.5-3.2h1.1v5.7H70.8z"/>
				</g>
			</g>
			<rect x="74.4" y="20.6" class="st2" width="33.2" height="8.6"/>
			<g>
				<g>
					<path class="st0" d="M84.3,26.3c0,0.2,0,0.5-0.1,0.6c-0.1,0.2-0.2,0.3-0.4,0.5c-0.2,0.1-0.3,0.2-0.5,0.3
						c-0.2,0.1-0.4,0.1-0.6,0.1h-2.5v-5.7h2.8c0.2,0,0.3,0,0.5,0.1c0.1,0.1,0.3,0.2,0.4,0.3c0.1,0.1,0.2,0.3,0.2,0.5
						c0.1,0.2,0.1,0.3,0.1,0.5c0,0.3-0.1,0.5-0.2,0.8s-0.3,0.4-0.6,0.5c0.3,0.1,0.5,0.3,0.7,0.5S84.3,25.9,84.3,26.3z M81.1,23v1.4
						h1.3c0.2,0,0.3-0.1,0.4-0.2c0.1-0.1,0.2-0.3,0.2-0.5c0-0.2-0.1-0.4-0.2-0.5S82.7,23,82.5,23H81.1z M83.3,26.1
						c0-0.1,0-0.2,0-0.3s-0.1-0.2-0.1-0.2c-0.1-0.1-0.1-0.1-0.2-0.2c-0.1,0-0.2-0.1-0.2-0.1h-1.5v1.5h1.5c0.1,0,0.2,0,0.3-0.1
						s0.1-0.1,0.2-0.2c0.1-0.1,0.1-0.1,0.1-0.2C83.3,26.3,83.3,26.2,83.3,26.1z"/>
					<path class="st0" d="M87.3,27.8c-0.4,0-0.7-0.1-1-0.2c-0.3-0.2-0.6-0.4-0.8-0.7S85.1,26.3,85,26c-0.1-0.3-0.2-0.7-0.2-1.1
						c0-0.4,0.1-0.7,0.2-1.1c0.1-0.3,0.3-0.7,0.5-0.9c0.2-0.3,0.5-0.5,0.8-0.6c0.3-0.2,0.7-0.2,1-0.2c0.4,0,0.7,0.1,1,0.3
						s0.6,0.4,0.8,0.7s0.4,0.6,0.5,0.9c0.1,0.3,0.2,0.7,0.2,1.1c0,0.4-0.1,0.7-0.2,1.1c-0.1,0.3-0.3,0.7-0.5,0.9
						c-0.2,0.3-0.5,0.5-0.8,0.6S87.7,27.8,87.3,27.8z M85.8,24.9c0,0.2,0,0.5,0.1,0.7s0.2,0.4,0.3,0.6c0.1,0.2,0.3,0.3,0.5,0.4
						s0.4,0.2,0.6,0.2c0.2,0,0.5-0.1,0.6-0.2c0.2-0.1,0.3-0.3,0.5-0.4c0.1-0.2,0.2-0.4,0.3-0.6c0.1-0.2,0.1-0.5,0.1-0.7
						c0-0.2,0-0.5-0.1-0.7s-0.2-0.4-0.3-0.6s-0.3-0.3-0.5-0.4c-0.2-0.1-0.4-0.2-0.6-0.2c-0.2,0-0.5,0.1-0.7,0.2
						c-0.2,0.1-0.3,0.3-0.5,0.4c-0.1,0.2-0.2,0.4-0.3,0.6C85.8,24.4,85.8,24.7,85.8,24.9z"/>
					<path class="st0" d="M90.9,22.1l1.3,2.1l1.3-2.1h1.1L92.8,25l1.8,2.8h-1.1l-1.2-2l-1.2,2h-1.1l1.8-2.8l-1.9-2.9H90.9z"/>
					<path class="st0" d="M98.7,26.8v1h-3.6v-5.7h3.5v1h-2.5v1.4h2.2v0.9h-2.2v1.5H98.7z"/>
					<path class="st0" d="M102.5,23.6c0,0-0.1-0.1-0.2-0.2c-0.1-0.1-0.2-0.1-0.3-0.2c-0.1-0.1-0.3-0.1-0.4-0.2
						c-0.2,0-0.3-0.1-0.5-0.1c-0.3,0-0.5,0.1-0.6,0.2c-0.1,0.1-0.2,0.3-0.2,0.5c0,0.1,0,0.2,0.1,0.3c0.1,0.1,0.1,0.1,0.2,0.2
						c0.1,0.1,0.2,0.1,0.4,0.2c0.1,0,0.3,0.1,0.5,0.2c0.3,0.1,0.5,0.2,0.7,0.2c0.2,0.1,0.4,0.2,0.5,0.3c0.1,0.1,0.3,0.3,0.3,0.5
						c0.1,0.2,0.1,0.4,0.1,0.7c0,0.3-0.1,0.6-0.2,0.8c-0.1,0.2-0.2,0.4-0.4,0.5c-0.2,0.1-0.4,0.2-0.6,0.3s-0.5,0.1-0.7,0.1
						c-0.4,0-0.8-0.1-1.2-0.2c-0.4-0.1-0.7-0.3-1-0.5l0.4-1c0,0,0.1,0.1,0.2,0.2c0.1,0.1,0.2,0.2,0.4,0.2c0.2,0.1,0.3,0.1,0.5,0.2
						c0.2,0.1,0.4,0.1,0.6,0.1c0.6,0,0.8-0.2,0.8-0.6c0-0.1,0-0.2-0.1-0.3c-0.1-0.1-0.2-0.2-0.3-0.2c-0.1-0.1-0.3-0.1-0.4-0.2
						c-0.2-0.1-0.4-0.1-0.6-0.2c-0.2-0.1-0.5-0.2-0.6-0.2c-0.2-0.1-0.3-0.2-0.5-0.3c-0.1-0.1-0.2-0.3-0.3-0.4s-0.1-0.3-0.1-0.6
						c0-0.3,0-0.5,0.1-0.8c0.1-0.2,0.2-0.4,0.4-0.6c0.2-0.2,0.4-0.3,0.6-0.3c0.2-0.1,0.5-0.1,0.7-0.1c0.4,0,0.7,0.1,1,0.2
						s0.6,0.3,0.8,0.4L102.5,23.6z"/>
				</g>
			</g>
		</g>
	</g>
</g>
<g>
</g>
<g>
</g>
<g>
</g>
<g>
</g>
<g>
</g>
</svg>
