<?xml version="1.0" encoding="utf-8"?>
<!-- Generator: Adobe Illustrator 23.0.5, SVG Export Plug-In . SVG Version: 6.00 Build 0)  -->
<svg version="1.1" id="Layer_1" xmlns="http://www.w3.org/2000/svg" xmlns:xlink="http://www.w3.org/1999/xlink" x="0px" y="0px"
	 viewBox="0 0 96.9 45.2" style="enable-background:new 0 0 96.9 45.2;" xml:space="preserve">
<style type="text/css">
	.st0{fill:#FDCB0A;}
	.st1{fill:#F38222;}
	.st2{fill:#AE2B31;}
	.st3{fill:#FFFFFF;}
</style>
<polygon class="st0" points="13.2,22.1 23.4,22.1 40,0.2 29.6,0.3 "/>
<path class="st1" d="M48.6,11.7c-3.3,0-6.6,0-9.9,0.1c-0.9-1.2-1.8-2.4-2.7-3.6c1.7-2.2,3.3-4.4,5-6.7C43.6,4.9,46.1,8.3,48.6,11.7z
	"/>
<polygon class="st0" points="39.9,45 29.6,45.2 13.3,23.3 23.5,23.3 "/>
<polygon class="st1" points="41,43.9 36.1,37.3 38.7,33.6 48.6,33.7 "/>
<polygon class="st2" points="0.2,22.1 10.6,22.2 24.5,3.4 14.1,3.4 "/>
<polygon class="st2" points="24.6,41.9 14.2,42 0.2,23.3 10.5,23.3 "/>
<g>
	<path class="st3" d="M41,15.9h-2.9v7.6h-1.8v-7.6h-2.9v-1.6H41V15.9z"/>
	<path class="st3" d="M49.9,14.3v9.2h-1.8v-3.9H44v3.9h-1.8v-9.2H44V18h4.2v-3.7H49.9z"/>
	<path class="st3" d="M58.2,21.9v1.6h-6.4v-9.2H58v1.6h-4.5v2.2h3.9v1.4h-3.9v2.4H58.2z"/>
	<path class="st3" d="M73.1,21.1c0,0.4-0.1,0.7-0.2,1c-0.2,0.3-0.4,0.5-0.6,0.7c-0.3,0.2-0.6,0.3-0.9,0.5c-0.4,0.1-0.7,0.2-1.1,0.2
		h-4.4v-9.2h4.9c0.3,0,0.6,0.1,0.9,0.2c0.3,0.1,0.5,0.3,0.7,0.5c0.2,0.2,0.3,0.5,0.4,0.7c0.1,0.3,0.1,0.6,0.1,0.8
		c0,0.4-0.1,0.9-0.3,1.3c-0.2,0.4-0.6,0.7-1,0.9c0.5,0.2,0.9,0.4,1.2,0.8C73,20,73.1,20.5,73.1,21.1z M67.5,15.8v2.3h2.4
		c0.3,0,0.6-0.1,0.8-0.3c0.2-0.2,0.3-0.5,0.3-0.9c0-0.4-0.1-0.6-0.3-0.8c-0.2-0.2-0.4-0.3-0.7-0.3H67.5z M71.3,20.8
		c0-0.2,0-0.3-0.1-0.5c-0.1-0.2-0.1-0.3-0.2-0.4c-0.1-0.1-0.2-0.2-0.3-0.3c-0.1-0.1-0.3-0.1-0.4-0.1h-2.7V22h2.6
		c0.2,0,0.3,0,0.5-0.1c0.1-0.1,0.3-0.1,0.4-0.3c0.1-0.1,0.2-0.2,0.2-0.4C71.3,21.1,71.3,20.9,71.3,20.8z"/>
	<path class="st3" d="M80.9,21.9v1.6h-6.4v-9.2h6.2v1.6h-4.5v2.2h3.9v1.4h-3.9v2.4H80.9z"/>
	<path class="st3" d="M87.5,16.7c-0.1-0.1-0.2-0.1-0.3-0.2c-0.2-0.1-0.4-0.2-0.6-0.3c-0.2-0.1-0.5-0.2-0.7-0.3
		c-0.3-0.1-0.5-0.1-0.8-0.1c-0.5,0-0.9,0.1-1.1,0.3c-0.2,0.2-0.4,0.4-0.4,0.8c0,0.2,0,0.3,0.1,0.5c0.1,0.1,0.2,0.2,0.4,0.3
		c0.2,0.1,0.4,0.2,0.7,0.3c0.3,0.1,0.6,0.2,0.9,0.2c0.4,0.1,0.9,0.2,1.2,0.4c0.4,0.1,0.7,0.3,0.9,0.5c0.3,0.2,0.4,0.5,0.6,0.7
		c0.1,0.3,0.2,0.6,0.2,1.1c0,0.5-0.1,0.9-0.3,1.3c-0.2,0.3-0.4,0.6-0.7,0.8c-0.3,0.2-0.7,0.4-1.1,0.5c-0.4,0.1-0.8,0.1-1.3,0.1
		c-0.7,0-1.4-0.1-2-0.3c-0.7-0.2-1.3-0.5-1.8-0.9l0.8-1.5c0.1,0.1,0.2,0.2,0.4,0.3c0.2,0.1,0.4,0.2,0.7,0.4c0.3,0.1,0.6,0.2,0.9,0.3
		c0.3,0.1,0.7,0.1,1,0.1c1,0,1.5-0.3,1.5-0.9c0-0.2-0.1-0.4-0.2-0.5c-0.1-0.1-0.3-0.3-0.5-0.4c-0.2-0.1-0.5-0.2-0.7-0.3
		c-0.3-0.1-0.6-0.2-1-0.3c-0.4-0.1-0.8-0.3-1.1-0.4c-0.3-0.1-0.6-0.3-0.8-0.5c-0.2-0.2-0.4-0.4-0.5-0.7c-0.1-0.3-0.2-0.6-0.2-0.9
		c0-0.5,0.1-0.9,0.3-1.2c0.2-0.4,0.4-0.7,0.7-0.9c0.3-0.2,0.7-0.4,1.1-0.5c0.4-0.1,0.8-0.2,1.3-0.2c0.6,0,1.2,0.1,1.8,0.3
		c0.5,0.2,1,0.4,1.4,0.7L87.5,16.7z"/>
	<path class="st3" d="M96.8,15.9h-2.9v7.6h-1.8v-7.6h-2.9v-1.6h7.6V15.9z"/>
</g>
<rect x="33.5" y="24.2" class="st0" width="32.8" height="7.9"/>
<g>
	<g>
		<path class="st2" d="M35.8,28.1c0-0.3,0.1-0.6,0.2-1c0.1-0.3,0.3-0.6,0.5-0.8c0.2-0.2,0.4-0.4,0.7-0.6c0.3-0.2,0.6-0.2,1-0.2
			c0.4,0,0.8,0.1,1.1,0.3c0.3,0.2,0.6,0.5,0.7,0.8l-0.7,0.5c-0.1-0.1-0.1-0.3-0.2-0.4c-0.1-0.1-0.2-0.2-0.3-0.2
			c-0.1-0.1-0.2-0.1-0.3-0.1c-0.1,0-0.2,0-0.3,0c-0.2,0-0.4,0.1-0.6,0.2c-0.2,0.1-0.3,0.2-0.4,0.4c-0.1,0.2-0.2,0.4-0.3,0.6
			c-0.1,0.2-0.1,0.4-0.1,0.6c0,0.2,0,0.5,0.1,0.7c0.1,0.2,0.2,0.4,0.3,0.6c0.1,0.2,0.3,0.3,0.4,0.4c0.2,0.1,0.4,0.1,0.6,0.1
			c0.1,0,0.2,0,0.3,0c0.1,0,0.2-0.1,0.3-0.1c0.1-0.1,0.2-0.1,0.3-0.2c0.1-0.1,0.2-0.2,0.2-0.4l0.8,0.5c-0.1,0.2-0.2,0.4-0.3,0.5
			c-0.1,0.2-0.3,0.3-0.5,0.4c-0.2,0.1-0.4,0.2-0.6,0.2c-0.2,0.1-0.4,0.1-0.6,0.1c-0.3,0-0.7-0.1-0.9-0.2c-0.3-0.2-0.5-0.4-0.7-0.6
			c-0.2-0.3-0.4-0.5-0.5-0.9C35.9,28.8,35.8,28.5,35.8,28.1z"/>
		<path class="st2" d="M42.7,29.9c0.2,0,0.4,0,0.6-0.1c0.2-0.1,0.3-0.2,0.4-0.4c0.1-0.2,0.2-0.3,0.2-0.5c0-0.2,0.1-0.4,0.1-0.6v-2.7
			h0.9v2.7c0,0.4,0,0.7-0.1,1c-0.1,0.3-0.2,0.6-0.4,0.8c-0.2,0.2-0.4,0.4-0.6,0.6c-0.3,0.1-0.6,0.2-0.9,0.2c-0.4,0-0.7-0.1-1-0.2
			c-0.3-0.1-0.5-0.3-0.6-0.6c-0.2-0.2-0.3-0.5-0.4-0.8c-0.1-0.3-0.1-0.6-0.1-1v-2.7h0.9v2.7c0,0.2,0,0.4,0.1,0.6
			c0,0.2,0.1,0.4,0.2,0.5c0.1,0.2,0.2,0.3,0.4,0.4C42.3,29.9,42.5,29.9,42.7,29.9z"/>
		<path class="st2" d="M48.6,26.9c0,0-0.1-0.1-0.2-0.1c-0.1-0.1-0.2-0.1-0.3-0.2c-0.1-0.1-0.2-0.1-0.4-0.1c-0.1,0-0.3-0.1-0.4-0.1
			c-0.3,0-0.4,0.1-0.6,0.2c-0.1,0.1-0.2,0.2-0.2,0.4c0,0.1,0,0.2,0.1,0.3c0,0.1,0.1,0.1,0.2,0.2c0.1,0.1,0.2,0.1,0.3,0.1
			c0.1,0,0.3,0.1,0.5,0.1c0.2,0.1,0.4,0.1,0.6,0.2c0.2,0.1,0.4,0.2,0.5,0.3c0.1,0.1,0.2,0.3,0.3,0.4c0.1,0.2,0.1,0.4,0.1,0.6
			c0,0.3,0,0.5-0.1,0.7s-0.2,0.4-0.4,0.5s-0.4,0.2-0.6,0.3c-0.2,0.1-0.4,0.1-0.7,0.1c-0.4,0-0.7-0.1-1.1-0.2
			c-0.4-0.1-0.7-0.3-0.9-0.5l0.4-0.9c0,0,0.1,0.1,0.2,0.2c0.1,0.1,0.2,0.1,0.4,0.2c0.1,0.1,0.3,0.1,0.5,0.2c0.2,0,0.4,0.1,0.5,0.1
			c0.5,0,0.8-0.2,0.8-0.5c0-0.1,0-0.2-0.1-0.3S48,29,47.9,28.9c-0.1-0.1-0.2-0.1-0.4-0.2c-0.2,0-0.3-0.1-0.5-0.2
			c-0.2-0.1-0.4-0.1-0.6-0.2c-0.2-0.1-0.3-0.2-0.4-0.3c-0.1-0.1-0.2-0.2-0.3-0.4c-0.1-0.1-0.1-0.3-0.1-0.5c0-0.3,0-0.5,0.1-0.7
			c0.1-0.2,0.2-0.4,0.4-0.5c0.2-0.1,0.3-0.2,0.6-0.3c0.2-0.1,0.4-0.1,0.7-0.1c0.3,0,0.6,0.1,0.9,0.2c0.3,0.1,0.5,0.3,0.7,0.4
			L48.6,26.9z"/>
		<path class="st2" d="M53.4,26.4h-1.5v4.4H51v-4.4h-1.5v-0.9h4V26.4z"/>
		<path class="st2" d="M55.8,30.8c-0.3,0-0.7-0.1-1-0.2s-0.5-0.4-0.7-0.6c-0.2-0.2-0.4-0.5-0.5-0.9c-0.1-0.3-0.2-0.6-0.2-1
			c0-0.4,0.1-0.7,0.2-1c0.1-0.3,0.3-0.6,0.5-0.9c0.2-0.2,0.5-0.4,0.7-0.6c0.3-0.1,0.6-0.2,0.9-0.2c0.3,0,0.7,0.1,0.9,0.2
			c0.3,0.2,0.5,0.4,0.7,0.6c0.2,0.3,0.4,0.5,0.5,0.9c0.1,0.3,0.2,0.6,0.2,1c0,0.4-0.1,0.7-0.2,1c-0.1,0.3-0.3,0.6-0.5,0.8
			c-0.2,0.2-0.5,0.4-0.7,0.6C56.5,30.8,56.2,30.8,55.8,30.8z M54.5,28.2c0,0.2,0,0.4,0.1,0.7c0.1,0.2,0.2,0.4,0.3,0.6
			c0.1,0.2,0.3,0.3,0.4,0.4c0.2,0.1,0.4,0.1,0.6,0.1c0.2,0,0.4-0.1,0.6-0.2c0.2-0.1,0.3-0.2,0.4-0.4c0.1-0.2,0.2-0.4,0.3-0.6
			c0.1-0.2,0.1-0.4,0.1-0.6c0-0.2,0-0.4-0.1-0.7c-0.1-0.2-0.2-0.4-0.3-0.6c-0.1-0.2-0.3-0.3-0.4-0.4c-0.2-0.1-0.4-0.1-0.6-0.1
			c-0.2,0-0.4,0.1-0.6,0.2c-0.2,0.1-0.3,0.2-0.4,0.4c-0.1,0.2-0.2,0.4-0.3,0.6C54.5,27.7,54.5,28,54.5,28.2z"/>
		<path class="st2" d="M62.8,30.8v-3.5l-1.2,2.6h-0.5l-1.2-2.6v3.5h-0.9v-5.3h1l1.4,3l1.4-3h1v5.3H62.8z"/>
	</g>
</g>
<g>
	<g>
		<path class="st3" d="M52.9,37.7c0,0.1,0,0.1,0,0.1C52.9,37.8,52.9,37.8,52.9,37.7C52.9,37.8,52.9,37.7,52.9,37.7
			c-0.1,0-0.1-0.1-0.3-0.2c-0.2-0.1-0.6-0.1-1-0.1c-0.4,0-0.8,0.1-1.1,0.2c-0.1,0-0.2,0.1-0.3,0.1c-0.1,0-0.2,0.1-0.3,0.1
			c-0.1,0-0.2,0-0.2-0.1c0-0.2,0.1-0.3,0.4-0.4c0.3-0.1,0.6-0.2,1.1-0.2c0.7,0,1.2,0.1,1.4,0.3C52.9,37.4,52.9,37.5,52.9,37.7z
			 M53.9,34.8c0,0.3-0.2,0.5-0.6,0.8c-0.1,0.1-0.3,0.2-0.5,0.3c-0.4,0.2-0.9,0.3-1.2,0.3c-0.1,0-0.3,0-0.3,0c0,0,0,0.1-0.1,0.2
			c0,0.1-0.1,0.1-0.1,0.2c0,0,0,0.1-0.1,0.1c0,0.1-0.1,0.1-0.1,0.1c-0.1,0.1-0.1,0.2-0.2,0.2c-0.1,0.1-0.2,0.2-0.4,0.2
			c0,0-0.1,0-0.1,0s-0.1,0-0.1,0c0,0,0,0,0,0c0,0,0,0,0,0c0,0,0,0,0.1,0c0,0,0.1,0,0.1,0c0.1,0,0.2-0.1,0.4-0.2
			c0.1-0.1,0.2-0.3,0.5-0.7c-0.2-0.1-0.4-0.2-0.4-0.3c0,0,0,0,0,0c0,0,0,0,0,0c0,0.1,0.1,0.1,0.3,0.1c0.1,0,0.1,0,0.2,0h0
			c0.2-0.3,0.3-0.5,0.5-0.7c0.2-0.2,0.4-0.4,0.6-0.5c0.3-0.2,0.6-0.3,0.9-0.3c0.1,0,0.3,0,0.3,0.1C53.9,34.5,53.9,34.7,53.9,34.8z
			 M53.6,34.8c0-0.1,0-0.1,0-0.2c0-0.1-0.1-0.2-0.4-0.2c-0.1,0-0.1,0-0.3,0.1c-0.1,0-0.3,0.1-0.4,0.2c-0.3,0.2-0.7,0.6-1,1.1
			c0.4-0.1,0.8-0.2,1.2-0.3C53.1,35.3,53.5,35.1,53.6,34.8z"/>
		<path class="st3" d="M54,36.7c0.1-0.1,0.2-0.2,0.2-0.3c0-0.1-0.1-0.1-0.2-0.1c0,0-0.1,0-0.2,0c-0.1,0.1-0.2,0.2-0.3,0.3
			c-0.1,0.2-0.2,0.3-0.2,0.5c0,0.1,0,0.1,0,0.2c0,0.1,0.1,0.1,0.2,0.1c0.1,0,0.3-0.1,0.5-0.2c0.2-0.2,0.4-0.3,0.5-0.5
			c0,0,0.1,0,0.1,0c0,0,0,0,0,0.1c-0.1,0.1-0.2,0.2-0.2,0.2c0,0-0.1,0.1-0.2,0.2c-0.1,0.1-0.2,0.2-0.3,0.2c-0.2,0.1-0.4,0.2-0.5,0.2
			c-0.1,0-0.2,0-0.3-0.1C53,37.4,53,37.3,53,37.1c0-0.3,0.1-0.5,0.3-0.7s0.4-0.3,0.7-0.3c0.2,0,0.3,0,0.3,0.1c0,0,0,0.1,0,0.1
			c0,0,0,0.1,0,0.1C54.2,36.6,54.1,36.7,54,36.7c-0.1,0.1-0.3,0.2-0.4,0.2c0,0-0.1,0-0.1,0c0,0,0,0,0,0c0,0,0,0,0,0
			C53.7,36.9,53.8,36.8,54,36.7z"/>
		<path class="st3" d="M55.2,35.9c0.1-0.1,0.1-0.2,0.2-0.2c0-0.1,0.1-0.1,0.1-0.1c0,0,0.1-0.1,0.2-0.1c0.1,0,0.2,0,0.2,0
			c0.1,0,0.1,0,0.1,0c0,0-0.1,0.1-0.2,0.2c-0.1,0.1-0.3,0.3-0.4,0.5c0.2,0,0.3,0.1,0.4,0.2c0,0,0,0.1,0,0.1c0,0,0,0-0.1,0
			c-0.1-0.1-0.2-0.1-0.3-0.1c-0.1,0-0.1,0-0.2,0c-0.2,0.3-0.4,0.6-0.4,0.8c0,0.1,0,0.1,0,0.1c0,0.1,0,0.2,0.1,0.2
			c0.1,0,0.2-0.1,0.4-0.2c0.2-0.2,0.4-0.3,0.5-0.5c0,0,0,0,0.1,0c0,0,0,0,0,0.1c-0.2,0.3-0.4,0.5-0.6,0.6c-0.2,0.1-0.3,0.2-0.5,0.2
			c-0.2,0-0.3-0.1-0.3-0.3c0-0.1,0-0.2,0.1-0.4l-0.1,0.1c0,0,0,0,0,0c0,0,0,0,0,0c0,0,0,0,0,0c0.2-0.2,0.3-0.3,0.4-0.5
			c-0.1,0-0.1,0-0.1,0c0,0,0,0,0-0.1c0,0,0-0.1,0-0.1c0,0,0.1-0.1,0.2-0.1c0.1,0,0.1,0,0.2,0C55.1,36.1,55.1,36,55.2,35.9z"/>
		<path class="st3" d="M56.1,35.5c0.1,0,0.1,0,0.1,0.1c0,0,0,0.1,0,0.1c0,0,0,0.1-0.1,0.2c0,0.1-0.1,0.2-0.2,0.3
			c-0.1,0.1-0.2,0.2-0.4,0.2c0,0,0,0,0,0c0,0,0,0,0,0c0.1,0,0.2-0.1,0.3-0.2c0.1-0.1,0.2-0.2,0.2-0.4c-0.1,0.1-0.1,0.1-0.2,0.1
			c0,0-0.1,0-0.1,0c0,0,0,0,0-0.1c0-0.1,0-0.2,0.1-0.2C55.9,35.5,56,35.5,56.1,35.5z"/>
		<path class="st3" d="M56,37.2C56,37.2,56,37.2,56,37.2C56,37.2,56,37.2,56,37.2C56,37.2,56,37.2,56,37.2c0.1,0.1,0.2,0.2,0.3,0.2
			c0.1,0,0.3-0.1,0.4-0.2c0.1-0.1,0.1-0.2,0.2-0.4c0.1-0.1,0.1-0.2,0.2-0.3c0-0.1,0.1-0.2,0.2-0.3c0.1-0.1,0.2-0.1,0.2-0.2
			c0,0,0,0-0.1,0s-0.1,0-0.2,0.1c-0.1,0.1-0.2,0.1-0.3,0.2c-0.1,0.1-0.2,0.2-0.3,0.3c-0.1,0.1-0.2,0.2-0.2,0.2c0,0,0,0,0,0
			c0,0,0,0,0-0.1c0.1-0.1,0.2-0.2,0.3-0.3c0.1-0.1,0.2-0.2,0.3-0.3c0.1-0.1,0.2-0.1,0.2-0.2c0.1,0,0.2-0.1,0.2-0.1
			c0.1,0,0.2,0,0.2,0.1c-0.1,0-0.1,0.1-0.2,0.3c0,0.1-0.1,0.3-0.2,0.5c-0.1,0.2-0.1,0.3-0.2,0.5c0.1,0,0.2-0.1,0.3-0.2
			c0.2-0.1,0.3-0.2,0.4-0.4c0,0,0,0,0.1,0c0,0,0,0,0,0c0,0,0,0-0.1,0.1c-0.1,0.1-0.1,0.1-0.2,0.2c-0.1,0.1-0.2,0.2-0.3,0.2
			c-0.2,0.2-0.5,0.3-0.7,0.3C56.2,37.5,56,37.4,56,37.2z"/>
		<path class="st3" d="M61.4,34.8C61.4,34.8,61.4,34.9,61.4,34.8c0,0,0,0.1,0,0.1c-0.2,0.3-0.5,0.7-0.7,1.2c0.1,0,0.3,0,0.4,0.1
			c0.4,0.1,0.6,0.2,0.6,0.4c0,0,0,0,0,0s0,0,0,0c0-0.1-0.2-0.1-0.5-0.2c-0.1,0-0.2,0-0.3,0c-0.1,0-0.3,0-0.4,0
			c-0.4,0.7-0.7,1.3-0.8,1.6c0,0,0,0.1,0,0.1c0,0,0,0,0,0c0-0.2,0.3-0.7,0.8-1.6c-0.2,0-0.3,0-0.4,0.1c-0.5,0.1-0.8,0.2-1,0.4
			c0,0.1-0.1,0.1-0.1,0.2c0,0.1,0,0.1,0.1,0.2c0,0,0,0,0,0l0,0c-0.1-0.1-0.2-0.2-0.2-0.4c0-0.1,0.1-0.3,0.2-0.4
			c0.2-0.2,0.5-0.3,0.9-0.4c0.2,0,0.5-0.1,0.7-0.1c0,0,0,0,0,0C61,35.3,61.3,34.9,61.4,34.8L61.4,34.8z M63.1,34.4
			C63.1,34.4,63.1,34.4,63.1,34.4c0,0,0,0.1,0,0.1c-0.3,0.4-0.6,1-1,1.6c-0.3,0.6-0.6,1.1-0.7,1.4c0,0.1,0,0.1-0.1,0c0,0,0,0,0-0.1
			c0-0.1,0.2-0.5,0.5-1c0.3-0.6,0.6-1.1,0.8-1.5C62.9,34.6,63,34.4,63.1,34.4L63.1,34.4z"/>
		<path class="st3" d="M63.6,36.7c0,0-0.1,0.1-0.1,0.1c0,0-0.1,0.1-0.1,0.2c0,0.1-0.1,0.1-0.1,0.2c0,0.1,0,0.1,0.1,0.1
			c0,0,0.1,0,0.2-0.1c0.2-0.1,0.4-0.3,0.7-0.6c0,0,0,0,0.1,0c0,0,0,0,0,0c0,0,0,0,0,0c-0.5,0.5-0.8,0.8-1.1,0.8
			c-0.1,0-0.1,0-0.2-0.1c0,0-0.1-0.1-0.1-0.2c0-0.1,0-0.2,0.1-0.3c-0.1,0.2-0.3,0.3-0.4,0.4c-0.1,0.1-0.3,0.1-0.3,0.1
			c-0.1,0-0.2,0-0.2-0.1c-0.1-0.1-0.1-0.1-0.1-0.2c0-0.2,0.1-0.5,0.3-0.7c0.1-0.2,0.3-0.3,0.5-0.3c0.1,0,0.2-0.1,0.3-0.1
			s0.2,0,0.3,0.1c0.1,0.1,0.1,0.1,0.2,0.2c0.1,0,0.1,0,0.2,0.1c0,0,0,0,0,0c0,0,0,0,0,0.1C63.7,36.7,63.7,36.7,63.6,36.7z
			 M63.3,36.3c-0.1,0-0.1,0-0.2,0.1c-0.1,0.1-0.3,0.2-0.4,0.4c-0.2,0.3-0.3,0.5-0.3,0.6c0,0.1,0,0.1,0.1,0.1c0,0,0.1,0,0.2-0.1
			c0.1-0.1,0.2-0.2,0.4-0.3c0,0,0,0,0.1-0.1c0.1-0.1,0.1-0.1,0.1-0.2c0.1-0.2,0.2-0.3,0.2-0.3C63.5,36.3,63.4,36.3,63.3,36.3z"/>
		<path class="st3" d="M65.7,36.1C65.7,36.1,65.7,36.1,65.7,36.1C65.7,36.1,65.7,36.1,65.7,36.1C65.7,36.1,65.7,36.1,65.7,36.1
			c0,0-0.1-0.1-0.1-0.1c-0.1,0-0.3,0.2-0.5,0.7c-0.2,0.3-0.3,0.5-0.4,0.6c-0.1,0.1-0.1,0.1-0.2,0.1c-0.1,0-0.1,0-0.2,0
			c0,0-0.1,0-0.1,0c0-0.1,0.1-0.2,0.1-0.3s0.1-0.3,0.1-0.4c0-0.1,0-0.2,0-0.2l-0.2,0.2c-0.1,0.1-0.2,0.2-0.3,0.3c0,0-0.1,0-0.1,0
			c0,0,0,0,0-0.1c0,0,0,0,0.1-0.1c0,0,0.1-0.1,0.1-0.1c0,0,0,0,0.1-0.1c0,0,0.1-0.1,0.1-0.1c0.1-0.1,0.1-0.2,0.2-0.3
			c0,0,0-0.1,0-0.1c0,0,0-0.1,0-0.1c0,0,0,0,0,0c0,0,0,0,0.1,0c0.1,0,0.2,0.1,0.2,0.2c0,0,0,0.1,0,0.2c0,0.1,0,0.2,0,0.4
			c0,0.2-0.1,0.3-0.2,0.5c0.1-0.1,0.3-0.3,0.4-0.7c0.2-0.4,0.3-0.6,0.4-0.7c0,0,0.1-0.1,0.1-0.1C65.6,35.9,65.7,36,65.7,36.1z"/>
		<path class="st3" d="M66.4,36.7c0.1-0.1,0.2-0.2,0.2-0.3c0-0.1-0.1-0.1-0.2-0.1c0,0-0.1,0-0.2,0c-0.1,0.1-0.2,0.2-0.3,0.3
			c-0.1,0.2-0.2,0.3-0.2,0.5c0,0.1,0,0.1,0,0.2c0,0.1,0.1,0.1,0.2,0.1c0.1,0,0.3-0.1,0.5-0.2c0.2-0.2,0.4-0.3,0.5-0.5
			c0,0,0.1,0,0.1,0c0,0,0,0,0,0.1c-0.1,0.1-0.2,0.2-0.2,0.2c0,0-0.1,0.1-0.2,0.2c-0.1,0.1-0.2,0.2-0.3,0.2c-0.2,0.1-0.4,0.2-0.5,0.2
			c-0.1,0-0.2,0-0.3-0.1c-0.1-0.1-0.1-0.2-0.1-0.3c0-0.3,0.1-0.5,0.3-0.7c0.2-0.2,0.4-0.3,0.7-0.3c0.2,0,0.3,0,0.3,0.1
			c0,0,0,0.1,0,0.1c0,0,0,0.1,0,0.1C66.6,36.6,66.5,36.7,66.4,36.7c-0.1,0.1-0.3,0.2-0.4,0.2c0,0-0.1,0-0.1,0c0,0,0,0,0,0
			c0,0,0,0,0,0C66.1,36.9,66.2,36.8,66.4,36.7z"/>
		<path class="st3" d="M71.6,35.1c0-0.1-0.2-0.2-0.5-0.3c-0.2,0-0.4,0-0.6,0c-0.2,0-0.5,0-0.8,0c-0.7,0.1-1.2,0.2-1.5,0.3
			c-0.3,0.1-0.3,0.2-0.2,0.4c0,0,0,0,0,0c0,0,0,0-0.1,0c0-0.1-0.1-0.1-0.1-0.2c0-0.1,0-0.1,0-0.2c0-0.1,0.1-0.1,0.1-0.2
			c0.1-0.1,0.2-0.1,0.3-0.2c0.3-0.1,0.7-0.2,1.1-0.3c0.2,0,0.4,0,0.6,0c0.5,0,0.9,0.1,1.3,0.2c0.2,0.1,0.4,0.2,0.4,0.3
			c0,0.1,0,0.1,0,0.2c0,0.1,0,0.1,0,0.2c0,0.1-0.1,0.1-0.1,0.1c0,0-0.1,0-0.1,0c0,0,0-0.1,0.1-0.1C71.6,35.2,71.6,35.2,71.6,35.1z
			 M69.1,37.2c0,0.1,0,0.2,0,0.3c0,0.2,0,0.3,0.1,0.3c0,0,0,0,0,0l0.1-0.1c0,0,0,0,0,0c0,0,0,0,0,0c0,0-0.1,0.1-0.2,0.1c0,0,0,0,0,0
			c-0.3,0-0.4-0.2-0.4-0.5c0-0.2,0-0.3,0.1-0.5c0.1-0.2,0.2-0.4,0.3-0.6c0.1-0.2,0.4-0.6,0.8-1.3c0-0.1,0.1-0.1,0.1-0.1s0,0,0,0
			c0,0,0,0,0,0c0,0,0,0,0,0C69.6,35.9,69.2,36.7,69.1,37.2z"/>
		<path class="st3" d="M71,36.3C71,36.3,70.9,36.3,71,36.3c-0.2-0.1-0.3,0-0.4,0.2c0,0-0.1,0.1-0.2,0.2c-0.1,0.1-0.2,0.3-0.3,0.4
			L70,37.4l0,0c0,0,0,0,0,0.1c0,0-0.1,0.1-0.1,0.1c0,0,0,0,0,0c0,0,0,0,0-0.1c0,0,0.1-0.1,0.1-0.3c0.1-0.2,0.1-0.3,0.2-0.5
			c-0.1,0.1-0.2,0.2-0.3,0.3c0,0,0,0-0.1,0c0,0,0,0,0,0c0,0,0,0,0-0.1c0.2-0.2,0.3-0.3,0.4-0.5c0.1-0.2,0.2-0.5,0.4-0.8
			c0.2-0.3,0.4-0.6,0.6-0.8c0.1-0.2,0.3-0.3,0.4-0.3c0.1,0,0.1,0,0.2,0s0.1,0,0.2,0.1c0.1,0,0.1,0.1,0.1,0.2c0,0.1,0,0.3-0.1,0.4
			c-0.1,0.1-0.2,0.3-0.4,0.5c-0.2,0.2-0.4,0.3-0.6,0.4c0,0-0.1,0-0.1,0c0,0,0,0,0-0.1c0.2-0.1,0.3-0.2,0.6-0.4
			c0.2-0.2,0.3-0.3,0.4-0.4c0.1-0.1,0.1-0.2,0.1-0.3c0-0.1,0-0.1-0.1-0.1c-0.1,0-0.2,0.1-0.3,0.2c-0.2,0.2-0.4,0.5-0.7,0.8
			c-0.2,0.3-0.4,0.7-0.6,1c0.1-0.1,0.2-0.2,0.2-0.3c0.2-0.2,0.3-0.3,0.5-0.3c0.1,0,0.2,0.1,0.2,0.2c0,0,0,0,0,0.1s0,0.1,0,0.2
			c0,0.1-0.1,0.2-0.2,0.4c-0.1,0.2-0.1,0.3-0.1,0.3c0,0,0,0.1,0,0.1c0,0,0.1,0,0.1-0.1c0.2-0.1,0.4-0.3,0.6-0.5c0,0,0,0,0,0
			c0,0,0,0,0,0.1c-0.2,0.2-0.4,0.4-0.6,0.6c-0.1,0.1-0.2,0.1-0.3,0.1c0,0,0,0-0.1,0c-0.1,0-0.2-0.1-0.2-0.2c0-0.1,0-0.2,0.1-0.4
			c0,0,0.1-0.1,0.2-0.2C70.9,36.5,71,36.4,71,36.3z"/>
		<path class="st3" d="M72.5,36.7c0.1-0.1,0.2-0.2,0.2-0.3c0-0.1-0.1-0.1-0.2-0.1c0,0-0.1,0-0.2,0c-0.1,0.1-0.2,0.2-0.3,0.3
			c-0.1,0.2-0.2,0.3-0.2,0.5c0,0.1,0,0.1,0,0.2c0,0.1,0.1,0.1,0.2,0.1c0.1,0,0.3-0.1,0.5-0.2c0.2-0.2,0.4-0.3,0.5-0.5
			c0,0,0.1,0,0.1,0c0,0,0,0,0,0.1C73,36.9,72.9,37,72.9,37c0,0-0.1,0.1-0.2,0.2c-0.1,0.1-0.2,0.2-0.3,0.2c-0.2,0.1-0.4,0.2-0.5,0.2
			c-0.1,0-0.2,0-0.3-0.1c-0.1-0.1-0.1-0.2-0.1-0.3c0-0.3,0.1-0.5,0.3-0.7c0.2-0.2,0.4-0.3,0.7-0.3c0.2,0,0.3,0,0.3,0.1
			c0,0,0,0.1,0,0.1c0,0,0,0.1,0,0.1C72.7,36.6,72.6,36.7,72.5,36.7c-0.1,0.1-0.3,0.2-0.4,0.2c0,0-0.1,0-0.1,0c0,0,0,0,0,0
			c0,0,0,0,0,0C72.2,36.9,72.3,36.8,72.5,36.7z"/>
		<path class="st3" d="M75.6,35.9c0.1,0,0.2,0,0.3,0c0.1,0,0.2,0,0.4,0.1c0.1,0,0.3,0.1,0.3,0.2c0.1,0.1,0.1,0.2,0.1,0.3
			c0,0.1,0,0.2-0.1,0.4c-0.1,0.1-0.2,0.2-0.3,0.4c-0.4,0.4-0.8,0.6-1.4,0.6c-0.2,0-0.3,0-0.4-0.1c-0.1,0-0.2-0.1-0.2-0.1
			c0,0-0.1-0.1-0.1-0.1s-0.1-0.1,0-0.1c0,0,0.1,0,0.1,0s0.2,0,0.4,0c0.2,0,0.4,0,0.6-0.1c0.2,0,0.4-0.1,0.6-0.2
			c0.2-0.1,0.3-0.2,0.4-0.3c0.1-0.1,0.2-0.3,0.2-0.4c0-0.1,0-0.2-0.1-0.2c0-0.1-0.1-0.1-0.2-0.2c-0.1,0-0.2-0.1-0.3-0.1
			c-0.1,0-0.2,0-0.3,0c-0.1,0-0.3,0.1-0.5,0.1c-0.2,0.1-0.3,0.2-0.4,0.3c-0.1,0.1-0.1,0.2-0.2,0.3c0,0.1-0.1,0.2-0.1,0.3
			c0,0.1-0.1,0.2-0.1,0.2c0,0,0,0.1-0.1,0.1s0,0,0,0c0-0.1,0.1-0.3,0.3-0.7c0.2-0.4,0.4-0.7,0.6-1c0.2-0.3,0.3-0.4,0.4-0.4
			c0,0,0,0,0,0c0,0,0,0,0,0.1c-0.4,0.5-0.6,0.8-0.6,0.9c1-0.2,1.7-0.5,1.9-0.8c0-0.1,0.1-0.1,0.1-0.2s0-0.1-0.1-0.1
			c-0.1-0.1-0.3-0.1-0.5-0.1c-0.2,0-0.6,0.1-1,0.2c-0.4,0.1-0.7,0.3-0.8,0.4c0,0-0.1,0.1-0.1,0.1c0,0,0,0,0,0c0,0,0,0,0,0
			c-0.1,0-0.1-0.1-0.1-0.1c0-0.1,0-0.1,0-0.1s0,0,0-0.1c0.1-0.2,0.4-0.4,0.8-0.5c0.4-0.1,0.8-0.2,1-0.2c0.5,0,0.8,0.1,0.9,0.3
			c0,0.1,0.1,0.1,0.1,0.2c0,0.1-0.1,0.2-0.2,0.4C76.6,35.5,76.2,35.7,75.6,35.9z"/>
		<path class="st3" d="M77.8,36.7c0.1-0.1,0.2-0.2,0.2-0.3c0-0.1-0.1-0.1-0.2-0.1c0,0-0.1,0-0.2,0c-0.1,0.1-0.2,0.2-0.3,0.3
			c-0.1,0.2-0.2,0.3-0.2,0.5c0,0.1,0,0.1,0,0.2c0,0.1,0.1,0.1,0.2,0.1c0.1,0,0.3-0.1,0.5-0.2c0.2-0.2,0.4-0.3,0.5-0.5
			c0,0,0.1,0,0.1,0c0,0,0,0,0,0.1c-0.1,0.1-0.2,0.2-0.2,0.2c0,0-0.1,0.1-0.2,0.2c-0.1,0.1-0.2,0.2-0.3,0.2c-0.2,0.1-0.4,0.2-0.5,0.2
			c-0.1,0-0.2,0-0.3-0.1c-0.1-0.1-0.1-0.2-0.1-0.3c0-0.3,0.1-0.5,0.3-0.7c0.2-0.2,0.4-0.3,0.7-0.3c0.2,0,0.3,0,0.3,0.1
			c0,0,0,0.1,0,0.1c0,0,0,0.1,0,0.1C78,36.6,77.9,36.7,77.8,36.7c-0.1,0.1-0.3,0.2-0.4,0.2c0,0-0.1,0-0.1,0c0,0,0,0,0,0c0,0,0,0,0,0
			C77.5,36.9,77.6,36.8,77.8,36.7z"/>
		<path class="st3" d="M78,37.2C78,37.2,78,37.2,78,37.2C78,37.2,78,37.2,78,37.2C78,37.2,78,37.2,78,37.2c0.1,0.1,0.2,0.2,0.3,0.2
			c0.1,0,0.3-0.1,0.4-0.2c0.1-0.1,0.1-0.2,0.2-0.4c0.1-0.1,0.1-0.2,0.2-0.3c0-0.1,0.1-0.2,0.2-0.3c0.1-0.1,0.2-0.1,0.2-0.2
			c0,0,0,0-0.1,0s-0.1,0-0.2,0.1c-0.1,0.1-0.2,0.1-0.3,0.2c-0.1,0.1-0.2,0.2-0.3,0.3c-0.1,0.1-0.2,0.2-0.2,0.2c0,0,0,0,0,0
			c0,0,0,0,0-0.1c0.1-0.1,0.2-0.2,0.3-0.3c0.1-0.1,0.2-0.2,0.3-0.3c0.1-0.1,0.2-0.1,0.2-0.2c0.1,0,0.2-0.1,0.2-0.1
			c0.1,0,0.2,0,0.2,0.1c-0.1,0-0.1,0.1-0.2,0.3c0,0.1-0.1,0.3-0.2,0.5c-0.1,0.2-0.1,0.3-0.2,0.5c0.1,0,0.2-0.1,0.3-0.2
			c0.2-0.1,0.3-0.2,0.4-0.4c0,0,0,0,0.1,0c0,0,0,0,0,0c0,0,0,0-0.1,0.1S79.5,37,79.5,37c-0.1,0.1-0.2,0.2-0.3,0.2
			c-0.2,0.2-0.5,0.3-0.7,0.3C78.2,37.5,78.1,37.4,78,37.2z"/>
		<path class="st3" d="M80.3,35.9c0.1-0.1,0.1-0.2,0.2-0.2c0-0.1,0.1-0.1,0.1-0.1c0,0,0.1-0.1,0.2-0.1c0.1,0,0.2,0,0.2,0
			c0.1,0,0.1,0,0.1,0c0,0-0.1,0.1-0.2,0.2c-0.1,0.1-0.3,0.3-0.4,0.5c0.2,0,0.3,0.1,0.4,0.2c0,0,0,0.1,0,0.1c0,0,0,0-0.1,0
			c-0.1-0.1-0.2-0.1-0.3-0.1c-0.1,0-0.1,0-0.2,0c-0.2,0.3-0.4,0.6-0.4,0.8c0,0.1,0,0.1,0,0.1c0,0.1,0,0.2,0.1,0.2
			c0.1,0,0.2-0.1,0.4-0.2c0.2-0.2,0.4-0.3,0.5-0.5c0,0,0,0,0.1,0c0,0,0,0,0,0.1c-0.2,0.3-0.4,0.5-0.6,0.6c-0.2,0.1-0.3,0.2-0.5,0.2
			c-0.2,0-0.3-0.1-0.3-0.3c0-0.1,0-0.2,0.1-0.4l-0.1,0.1c0,0,0,0,0,0c0,0,0,0,0,0c0,0,0,0,0,0c0.2-0.2,0.3-0.3,0.4-0.5
			c-0.1,0-0.1,0-0.1,0c0,0,0,0,0-0.1c0,0,0-0.1,0-0.1c0,0,0.1-0.1,0.2-0.1c0.1,0,0.1,0,0.2,0C80.2,36.1,80.2,36,80.3,35.9z"/>
		<path class="st3" d="M85.2,35.1c0,0.3-0.1,0.6-0.2,0.8c-0.1,0.3-0.3,0.5-0.5,0.8c-0.2,0.3-0.5,0.6-0.9,0.8
			c-0.2,0.1-0.4,0.2-0.5,0.2c-0.3,0-0.5-0.1-0.6-0.3c-0.1-0.2-0.2-0.4-0.2-0.6c0-0.3,0.1-0.6,0.3-1c0.2-0.3,0.3-0.5,0.6-0.7
			c0.2-0.2,0.4-0.3,0.6-0.4c0.1,0,0.2-0.1,0.3-0.1c0.1,0,0.2,0,0.3,0.1c0.1,0.1,0.1,0.2,0.1,0.4c0,0.1,0,0.2,0,0.3c0,0,0,0,0,0
			c0,0,0,0,0-0.1c0,0,0-0.1,0-0.1c0-0.1-0.1-0.2-0.2-0.2c-0.2,0-0.5,0.1-0.8,0.3c-0.3,0.2-0.5,0.5-0.7,0.7c-0.2,0.3-0.3,0.6-0.3,0.9
			c0,0.3,0.1,0.5,0.4,0.5c0,0,0.1,0,0.1,0c0.2,0,0.3,0,0.6-0.1c0.4-0.2,0.7-0.4,1-0.7c0.3-0.4,0.5-0.9,0.5-1.5c0-0.2,0-0.4-0.1-0.5
			c0-0.1-0.1-0.2-0.1-0.2c0,0-0.1,0-0.1,0c0,0,0,0,0,0c0,0,0,0,0.1,0s0.1,0,0.2,0.1C85.2,34.6,85.2,34.8,85.2,35.1z"/>
		<path class="st3" d="M86.8,35.6C86.8,35.6,86.8,35.6,86.8,35.6C86.7,35.6,86.7,35.6,86.8,35.6c-0.1-0.1-0.1-0.1-0.1-0.2
			c0,0-0.1-0.1-0.1-0.1c0,0-0.1,0-0.1,0c-0.1,0-0.2,0-0.3,0.1c-0.2,0.1-0.4,0.3-0.6,0.7c0.2,0,0.3,0,0.3,0.1
			c0.1,0.1,0.1,0.1,0.1,0.2c0,0,0,0-0.1,0c0,0-0.1,0-0.2,0c-0.1,0-0.2,0-0.3,0.1c-0.2,0.3-0.3,0.6-0.4,1c0,0.1-0.1,0.3-0.1,0.4
			c0,0.1,0,0.2,0.1,0.2c0,0,0,0,0,0c0,0,0,0,0,0s0,0,0,0c-0.1-0.1-0.2-0.2-0.2-0.4c0-0.2,0.1-0.5,0.3-1c0,0,0,0,0,0c0,0,0,0,0,0
			c0,0,0,0,0-0.1c0,0,0-0.1,0-0.1c0,0,0-0.1,0.1-0.1c0,0,0.1-0.1,0.2-0.1c0.2-0.4,0.4-0.7,0.6-0.9c0.1-0.1,0.3-0.1,0.4-0.1
			s0.3,0,0.4,0.1C86.7,35.3,86.8,35.4,86.8,35.6z"/>
		<path class="st3" d="M88.5,35.9c0.1,0,0.2,0,0.3,0c0.1,0,0.2,0,0.4,0.1c0.1,0,0.3,0.1,0.3,0.2c0.1,0.1,0.1,0.2,0.1,0.3
			c0,0.1,0,0.2-0.1,0.4c-0.1,0.1-0.2,0.2-0.3,0.4c-0.4,0.4-0.8,0.6-1.4,0.6c-0.2,0-0.3,0-0.4-0.1s-0.2-0.1-0.2-0.1
			c0,0-0.1-0.1-0.1-0.1c-0.1,0-0.1-0.1,0-0.1c0,0,0.1,0,0.1,0s0.2,0,0.4,0s0.4,0,0.6-0.1c0.2,0,0.4-0.1,0.6-0.2
			c0.2-0.1,0.3-0.2,0.4-0.3c0.1-0.1,0.2-0.3,0.2-0.4c0-0.1,0-0.2-0.1-0.2c0-0.1-0.1-0.1-0.2-0.2c-0.1,0-0.2-0.1-0.3-0.1
			s-0.2,0-0.3,0c-0.1,0-0.3,0.1-0.5,0.1c-0.2,0.1-0.3,0.2-0.4,0.3c-0.1,0.1-0.1,0.2-0.2,0.3c0,0.1-0.1,0.2-0.1,0.3
			c0,0.1-0.1,0.2-0.1,0.2c0,0,0,0.1-0.1,0.1c0,0,0,0,0,0c0-0.1,0.1-0.3,0.3-0.7c0.2-0.4,0.4-0.7,0.6-1c0.2-0.3,0.3-0.4,0.4-0.4
			c0,0,0,0,0,0c0,0,0,0,0,0.1c-0.4,0.5-0.6,0.8-0.6,0.9c1-0.2,1.7-0.5,1.9-0.8c0-0.1,0.1-0.1,0.1-0.2s0-0.1-0.1-0.1
			c-0.1-0.1-0.3-0.1-0.5-0.1c-0.2,0-0.6,0.1-1,0.2c-0.4,0.1-0.7,0.3-0.8,0.4c0,0-0.1,0.1-0.1,0.1c0,0,0,0,0,0c0,0,0,0,0,0
			c-0.1,0-0.1-0.1-0.1-0.1c0-0.1,0-0.1,0-0.1s0,0,0-0.1c0.1-0.2,0.4-0.4,0.8-0.5c0.4-0.1,0.8-0.2,1-0.2c0.5,0,0.8,0.1,0.9,0.3
			c0,0.1,0.1,0.1,0.1,0.2c0,0.1-0.1,0.2-0.2,0.4C89.5,35.5,89.1,35.7,88.5,35.9z"/>
		<path class="st3" d="M90.7,36.7c0.1-0.1,0.2-0.2,0.2-0.3c0-0.1-0.1-0.1-0.2-0.1c0,0-0.1,0-0.2,0c-0.1,0.1-0.2,0.2-0.3,0.3
			c-0.1,0.2-0.2,0.3-0.2,0.5c0,0.1,0,0.1,0,0.2c0,0.1,0.1,0.1,0.2,0.1c0.1,0,0.3-0.1,0.5-0.2c0.2-0.2,0.4-0.3,0.5-0.5
			c0,0,0.1,0,0.1,0c0,0,0,0,0,0.1c-0.1,0.1-0.2,0.2-0.2,0.2c0,0-0.1,0.1-0.2,0.2c-0.1,0.1-0.2,0.2-0.3,0.2c-0.2,0.1-0.4,0.2-0.5,0.2
			c-0.1,0-0.2,0-0.3-0.1c-0.1-0.1-0.1-0.2-0.1-0.3c0-0.3,0.1-0.5,0.3-0.7c0.2-0.2,0.4-0.3,0.7-0.3c0.2,0,0.3,0,0.3,0.1
			c0,0,0,0.1,0,0.1c0,0,0,0.1,0,0.1C90.9,36.6,90.8,36.7,90.7,36.7c-0.1,0.1-0.3,0.2-0.4,0.2c0,0-0.1,0-0.1,0c0,0,0,0,0,0
			c0,0,0,0,0,0C90.4,36.9,90.5,36.8,90.7,36.7z"/>
		<path class="st3" d="M90.9,37.2C90.9,37.2,90.9,37.2,90.9,37.2C90.9,37.2,90.9,37.2,90.9,37.2C90.9,37.2,90.9,37.2,90.9,37.2
			c0.1,0.1,0.2,0.2,0.3,0.2c0.1,0,0.3-0.1,0.4-0.2c0.1-0.1,0.1-0.2,0.2-0.4c0.1-0.1,0.1-0.2,0.2-0.3c0-0.1,0.1-0.2,0.2-0.3
			s0.2-0.1,0.2-0.2c0,0,0,0-0.1,0s-0.1,0-0.2,0.1c-0.1,0.1-0.2,0.1-0.3,0.2c-0.1,0.1-0.2,0.2-0.3,0.3c-0.1,0.1-0.2,0.2-0.2,0.2
			c0,0,0,0,0,0c0,0,0,0,0-0.1c0.1-0.1,0.2-0.2,0.3-0.3c0.1-0.1,0.2-0.2,0.3-0.3c0.1-0.1,0.2-0.1,0.2-0.2c0.1,0,0.2-0.1,0.2-0.1
			c0.1,0,0.2,0,0.2,0.1c-0.1,0-0.1,0.1-0.2,0.3c0,0.1-0.1,0.3-0.2,0.5c-0.1,0.2-0.1,0.3-0.2,0.5c0.1,0,0.2-0.1,0.3-0.2
			c0.2-0.1,0.3-0.2,0.4-0.4c0,0,0,0,0.1,0c0,0,0,0,0,0c0,0,0,0-0.1,0.1c-0.1,0.1-0.1,0.1-0.2,0.2c-0.1,0.1-0.2,0.2-0.3,0.2
			c-0.2,0.2-0.5,0.3-0.7,0.3C91.1,37.5,91,37.4,90.9,37.2z"/>
		<path class="st3" d="M93.2,35.9c0.1-0.1,0.1-0.2,0.2-0.2c0-0.1,0.1-0.1,0.1-0.1c0,0,0.1-0.1,0.2-0.1c0.1,0,0.2,0,0.2,0
			c0.1,0,0.1,0,0.1,0c0,0-0.1,0.1-0.2,0.2c-0.1,0.1-0.3,0.3-0.4,0.5c0.2,0,0.3,0.1,0.4,0.2c0,0,0,0.1,0,0.1c0,0,0,0-0.1,0
			c-0.1-0.1-0.2-0.1-0.3-0.1c-0.1,0-0.1,0-0.2,0c-0.2,0.3-0.4,0.6-0.4,0.8c0,0.1,0,0.1,0,0.1c0,0.1,0,0.2,0.1,0.2
			c0.1,0,0.2-0.1,0.4-0.2c0.2-0.2,0.4-0.3,0.5-0.5c0,0,0,0,0.1,0c0,0,0,0,0,0.1c-0.2,0.3-0.4,0.5-0.6,0.6c-0.2,0.1-0.3,0.2-0.5,0.2
			c-0.2,0-0.3-0.1-0.3-0.3c0-0.1,0-0.2,0.1-0.4l-0.1,0.1c0,0,0,0,0,0c0,0,0,0,0,0c0,0,0,0,0,0c0.2-0.2,0.3-0.3,0.4-0.5
			c-0.1,0-0.1,0-0.1,0c0,0,0,0,0-0.1c0,0,0-0.1,0-0.1c0,0,0.1-0.1,0.2-0.1c0.1,0,0.1,0,0.2,0C93.1,36.1,93.1,36,93.2,35.9z"/>
	</g>
</g>
<rect x="66.1" y="24.2" class="st2" width="30.6" height="7.9"/>
<g>
	<g>
		<path class="st0" d="M75.2,29.4c0,0.2,0,0.4-0.1,0.6c-0.1,0.2-0.2,0.3-0.3,0.4c-0.1,0.1-0.3,0.2-0.5,0.3c-0.2,0.1-0.4,0.1-0.6,0.1
			h-2.3v-5.3h2.6c0.2,0,0.3,0,0.5,0.1c0.1,0.1,0.2,0.2,0.3,0.3c0.1,0.1,0.2,0.3,0.2,0.4c0.1,0.2,0.1,0.3,0.1,0.5
			c0,0.3-0.1,0.5-0.2,0.7c-0.1,0.2-0.3,0.4-0.5,0.5c0.3,0.1,0.5,0.2,0.6,0.5C75.1,28.8,75.2,29.1,75.2,29.4z M72.3,26.4v1.3h1.2
			c0.2,0,0.3-0.1,0.4-0.2c0.1-0.1,0.2-0.3,0.2-0.5c0-0.2-0.1-0.4-0.2-0.5c-0.1-0.1-0.2-0.2-0.4-0.2H72.3z M74.3,29.3
			c0-0.1,0-0.2,0-0.3c0-0.1-0.1-0.2-0.1-0.2c0-0.1-0.1-0.1-0.2-0.2c-0.1,0-0.1-0.1-0.2-0.1h-1.4v1.4h1.4c0.1,0,0.2,0,0.2-0.1
			c0.1,0,0.1-0.1,0.2-0.1c0.1-0.1,0.1-0.1,0.1-0.2S74.3,29.3,74.3,29.3z"/>
		<path class="st0" d="M78,30.8c-0.3,0-0.7-0.1-1-0.2c-0.3-0.2-0.5-0.4-0.7-0.6c-0.2-0.2-0.4-0.5-0.5-0.9c-0.1-0.3-0.2-0.6-0.2-1
			c0-0.4,0.1-0.7,0.2-1c0.1-0.3,0.3-0.6,0.5-0.9c0.2-0.2,0.5-0.4,0.7-0.6c0.3-0.1,0.6-0.2,0.9-0.2c0.3,0,0.7,0.1,0.9,0.2
			s0.5,0.4,0.7,0.6c0.2,0.3,0.4,0.5,0.5,0.9c0.1,0.3,0.2,0.6,0.2,1c0,0.4-0.1,0.7-0.2,1c-0.1,0.3-0.3,0.6-0.5,0.8
			c-0.2,0.2-0.5,0.4-0.7,0.6C78.6,30.8,78.3,30.8,78,30.8z M76.6,28.2c0,0.2,0,0.4,0.1,0.7c0.1,0.2,0.2,0.4,0.3,0.6
			c0.1,0.2,0.3,0.3,0.4,0.4c0.2,0.1,0.4,0.1,0.6,0.1c0.2,0,0.4-0.1,0.6-0.2c0.2-0.1,0.3-0.2,0.4-0.4c0.1-0.2,0.2-0.4,0.3-0.6
			c0.1-0.2,0.1-0.4,0.1-0.6c0-0.2,0-0.4-0.1-0.7c-0.1-0.2-0.2-0.4-0.3-0.6c-0.1-0.2-0.3-0.3-0.4-0.4c-0.2-0.1-0.4-0.1-0.6-0.1
			c-0.2,0-0.4,0.1-0.6,0.2c-0.2,0.1-0.3,0.2-0.4,0.4c-0.1,0.2-0.2,0.4-0.3,0.6C76.6,27.7,76.6,28,76.6,28.2z"/>
		<path class="st0" d="M81.3,25.5l1.2,2l1.2-2h1L83,28.2l1.6,2.6h-1l-1.1-1.9l-1.1,1.9h-1l1.6-2.6l-1.7-2.7H81.3z"/>
		<path class="st0" d="M88.5,29.9v0.9h-3.3v-5.3h3.3v0.9h-2.3v1.3h2v0.8h-2v1.4H88.5z"/>
		<path class="st0" d="M92,26.9c0,0-0.1-0.1-0.2-0.1c-0.1-0.1-0.2-0.1-0.3-0.2c-0.1-0.1-0.2-0.1-0.4-0.1c-0.1,0-0.3-0.1-0.4-0.1
			c-0.3,0-0.4,0.1-0.6,0.2c-0.1,0.1-0.2,0.2-0.2,0.4c0,0.1,0,0.2,0.1,0.3s0.1,0.1,0.2,0.2c0.1,0.1,0.2,0.1,0.3,0.1s0.3,0.1,0.5,0.1
			c0.2,0.1,0.4,0.1,0.6,0.2c0.2,0.1,0.4,0.2,0.5,0.3c0.1,0.1,0.2,0.3,0.3,0.4c0.1,0.2,0.1,0.4,0.1,0.6c0,0.3,0,0.5-0.1,0.7
			c-0.1,0.2-0.2,0.4-0.4,0.5c-0.2,0.1-0.4,0.2-0.6,0.3c-0.2,0.1-0.4,0.1-0.7,0.1c-0.4,0-0.7-0.1-1.1-0.2c-0.4-0.1-0.7-0.3-0.9-0.5
			l0.4-0.9c0,0,0.1,0.1,0.2,0.2s0.2,0.1,0.4,0.2c0.1,0.1,0.3,0.1,0.5,0.2s0.4,0.1,0.5,0.1c0.5,0,0.8-0.2,0.8-0.5
			c0-0.1,0-0.2-0.1-0.3c-0.1-0.1-0.1-0.1-0.2-0.2c-0.1-0.1-0.2-0.1-0.4-0.2c-0.2,0-0.3-0.1-0.5-0.2c-0.2-0.1-0.4-0.1-0.6-0.2
			c-0.2-0.1-0.3-0.2-0.4-0.3c-0.1-0.1-0.2-0.2-0.3-0.4C89,27.5,89,27.4,89,27.2c0-0.3,0-0.5,0.1-0.7s0.2-0.4,0.4-0.5
			c0.2-0.1,0.3-0.2,0.6-0.3c0.2-0.1,0.4-0.1,0.7-0.1c0.3,0,0.6,0.1,0.9,0.2c0.3,0.1,0.5,0.3,0.7,0.4L92,26.9z"/>
	</g>
</g>
</svg>
